<svg width="15" height="15" viewBox="0 0 15 15" fill="none" xmlns="http://www.w3.org/2000/svg">
<mask id="path-1-inside-1_6024_2850" fill="white">
<path d="M13.6344 6.13076H8.86479V1.36577C8.86479 0.611523 8.25616 0 7.50182 0C6.74747 0 6.13917 0.611524 6.13917 1.3661V6.13407H1.36727C0.612926 6.13407 -0.000329882 6.74559 5.36467e-07 7.50016C-0.000329882 7.87712 0.151993 8.22269 0.398815 8.46948C0.645968 8.71693 0.98696 8.8732 1.36364 8.8732H6.13917V13.6346C6.13917 14.0118 6.28885 14.3535 6.53601 14.5999C6.78316 14.847 7.12316 15 7.5005 15C8.25451 15 8.86479 14.3885 8.86479 13.6346V8.87287H13.6344C14.3887 8.87287 15.0003 8.25606 15 7.50182C14.9997 6.7479 14.3881 6.13076 13.6344 6.13076Z"/>
</mask>
<path d="M13.6344 6.13076H8.86479V1.36577C8.86479 0.611523 8.25616 0 7.50182 0C6.74747 0 6.13917 0.611524 6.13917 1.3661V6.13407H1.36727C0.612926 6.13407 -0.000329882 6.74559 5.36467e-07 7.50016C-0.000329882 7.87712 0.151993 8.22269 0.398815 8.46948C0.645968 8.71693 0.98696 8.8732 1.36364 8.8732H6.13917V13.6346C6.13917 14.0118 6.28885 14.3535 6.53601 14.5999C6.78316 14.847 7.12316 15 7.5005 15C8.25451 15 8.86479 14.3885 8.86479 13.6346V8.87287H13.6344C14.3887 8.87287 15.0003 8.25606 15 7.50182C14.9997 6.7479 14.3881 6.13076 13.6344 6.13076Z" fill="white"/>
<path d="M8.86479 6.13076H-8.75558V23.7511H8.86479V6.13076ZM6.13917 6.13407V23.7544H23.7595V6.13407H6.13917ZM5.36467e-07 7.50016L17.6204 7.51561L17.6204 7.50403L17.6204 7.49245L5.36467e-07 7.50016ZM0.398815 8.46948L12.8658 -3.9825L12.8575 -3.99082L0.398815 8.46948ZM6.13917 8.8732H23.7595V-8.74717H6.13917V8.8732ZM6.53601 14.5999L18.9947 2.13961L18.9863 2.13127L18.978 2.12294L6.53601 14.5999ZM8.86479 8.87287V-8.7475H-8.75558V8.87287H8.86479ZM15 7.50182L32.6204 7.4941V7.49409L15 7.50182ZM13.6344 -11.4896H8.86479V23.7511H13.6344V-11.4896ZM26.4852 6.13076V1.36577H-8.75558V6.13076H26.4852ZM26.4852 1.36577C26.4852 -9.07206 18.0354 -17.6204 7.50182 -17.6204V17.6204C-1.52311 17.6204 -8.75558 10.2951 -8.75558 1.36577H26.4852ZM7.50182 -17.6204C-3.04013 -17.6204 -11.4812 -9.0637 -11.4812 1.3661H23.7595C23.7595 10.2868 16.5351 17.6204 7.50182 17.6204V-17.6204ZM-11.4812 1.3661V6.13407H23.7595V1.3661H-11.4812ZM6.13917 -11.4863H1.36727V23.7544H6.13917V-11.4863ZM1.36727 -11.4863C-9.08987 -11.4863 -17.625 -3.01281 -17.6204 7.50788L17.6204 7.49245C17.6243 16.504 10.3157 23.7544 1.36727 23.7544V-11.4863ZM-17.6204 7.48472C-17.6249 12.6573 -15.532 17.4581 -12.0598 20.9298L12.8575 -3.99082C15.836 -1.01271 17.6242 3.09694 17.6204 7.51561L-17.6204 7.48472ZM-12.0682 20.9215C-8.73693 24.2567 -3.99363 26.4936 1.36364 26.4936V-8.74717C5.96755 -8.74717 10.0289 -6.82284 12.8658 -3.9825L-12.0682 20.9215ZM1.36364 26.4936H6.13917V-8.74717H1.36364V26.4936ZM-11.4812 8.8732V13.6346H23.7595V8.8732H-11.4812ZM-11.4812 13.6346C-11.4812 18.761 -9.42028 23.5724 -5.90596 27.0769L18.978 2.12294C21.998 5.13449 23.7595 9.2627 23.7595 13.6346H-11.4812ZM-5.92265 27.0602C-2.52223 30.4602 2.2409 32.6204 7.5005 32.6204V-2.62037C12.0054 -2.62037 16.0885 -0.766128 18.9947 2.13961L-5.92265 27.0602ZM7.5005 32.6204C18.006 32.6204 26.4852 24.0999 26.4852 13.6346H-8.75558C-8.75558 4.67705 -1.49697 -2.62037 7.5005 -2.62037V32.6204ZM26.4852 13.6346V8.87287H-8.75558V13.6346H26.4852ZM8.86479 26.4932H13.6344V-8.7475H8.86479V26.4932ZM13.6344 26.4932C24.205 26.4932 32.6249 17.9008 32.6204 7.4941L-2.62037 7.50954C-2.62427 -1.3887 4.57246 -8.7475 13.6344 -8.7475V26.4932ZM32.6204 7.49409C32.6158 -2.88893 24.2155 -11.4896 13.6344 -11.4896V23.7511C4.56058 23.7511 -2.61648 16.3847 -2.62037 7.50954L32.6204 7.49409Z" fill="#F3B46E" mask="url(#path-1-inside-1_6024_2850)"/>
</svg>
