<svg width="25" height="24" viewBox="0 0 25 24" fill="none" xmlns="http://www.w3.org/2000/svg">
<path d="M9.32745 7.93166C8.92191 7.53841 8.26438 7.53841 7.85884 7.93166C7.4533 8.32492 7.4533 8.96251 7.85884 9.35575L10.5861 12.0004L7.85887 14.645C7.45333 15.0381 7.45333 15.6758 7.85887 16.069C8.26441 16.4623 8.92194 16.4623 9.32745 16.069L12.0547 13.4245L14.7819 16.069C15.1874 16.4623 15.845 16.4623 16.2505 16.069C16.6561 15.6758 16.6561 15.0381 16.2505 14.6449L13.5232 12.0004L16.2505 9.35575C16.6561 8.96254 16.6561 8.32495 16.2505 7.9317C15.845 7.53843 15.1874 7.53843 14.7819 7.9317L12.0547 10.5762L9.32745 7.93166Z" fill="white"/>
<path fill-rule="evenodd" clip-rule="evenodd" d="M12.2227 0C5.59524 0 0.222656 5.37258 0.222656 12C0.222656 18.6275 5.59524 24 12.2227 24C18.8501 24 24.2227 18.6275 24.2227 12C24.2227 5.37258 18.8501 0 12.2227 0ZM1.89707 12C1.89707 6.29734 6.52 1.67442 12.2227 1.67442C17.9253 1.67442 22.5482 6.29734 22.5482 12C22.5482 17.7026 17.9253 22.3256 12.2227 22.3256C6.52 22.3256 1.89707 17.7026 1.89707 12Z" fill="white"/>
</svg>
