<svg width="18" height="16" viewBox="0 0 18 16" fill="none" xmlns="http://www.w3.org/2000/svg">
<path d="M16.8528 11.4146L11.157 1.5439C10.6437 0.6551 9.69546 0.107422 8.66892 0.107422C7.64242 0.107422 6.69415 0.6551 6.1809 1.5439L0.384939 11.5836C-0.128313 12.4724 -0.128313 13.5678 0.384939 14.4566C0.898191 15.3454 1.84646 15.8931 2.87296 15.8931H14.4649C14.4681 15.8931 14.4712 15.8931 14.4712 15.8931C16.0579 15.8931 17.3442 14.6068 17.3442 13.0201C17.3442 12.4255 17.1627 11.8715 16.8528 11.4146ZM9.89888 12.3754C9.89888 13.0545 9.37624 13.574 8.67208 13.574C7.96793 13.574 7.44529 13.0545 7.44529 12.3754V12.3472C7.44529 11.6712 7.96793 11.1486 8.67208 11.1486C9.37624 11.1486 9.89888 11.6681 9.89888 12.3472V12.3754ZM9.92705 4.29481L9.31991 9.59633C9.27922 9.97814 9.02573 10.216 8.67208 10.216C8.31844 10.216 8.06494 9.97501 8.02426 9.59633L7.41712 4.29168C7.37643 3.8817 7.59867 3.57187 7.98044 3.57187H9.36059C9.7424 3.575 9.96773 3.88483 9.92705 4.29481Z" fill="#FF1F1F"/>
</svg>
