<svg width="20" height="21" viewBox="0 0 20 21" fill="none" xmlns="http://www.w3.org/2000/svg">
<path d="M7.5 8V5.66667C7.5 4.73333 7.5 4.26667 7.68167 3.91C7.84167 3.59583 8.09583 3.34167 8.41 3.18167C8.76667 3 9.23333 3 10.1667 3H14.8333C15.7667 3 16.2333 3 16.59 3.18167C16.9036 3.34145 17.1585 3.59641 17.3183 3.91C17.5 4.26667 17.5 4.73333 17.5 5.66667V10.3333C17.5 11.2667 17.5 11.7333 17.3183 12.09C17.1585 12.4036 16.9036 12.6585 16.59 12.8183C16.2333 13 15.7667 13 14.8358 13H12.5M7.5 8H5.16667C4.23333 8 3.76667 8 3.41 8.18167C3.09641 8.34145 2.84145 8.59641 2.68167 8.91C2.5 9.26667 2.5 9.73333 2.5 10.6667V15.3333C2.5 16.2667 2.5 16.7333 2.68167 17.09C2.84145 17.4036 3.09641 17.6585 3.41 17.8183C3.76583 18 4.2325 18 5.16417 18H9.83667C10.7675 18 11.2333 18 11.59 17.8183C11.9036 17.6585 12.1585 17.4036 12.3183 17.09C12.5 16.7333 12.5 16.2675 12.5 15.3358V13M7.5 8H9.83333C10.7667 8 11.2333 8 11.59 8.18167C11.9036 8.34145 12.1585 8.59641 12.3183 8.91C12.5 9.26583 12.5 9.7325 12.5 10.6642V13" stroke="white" stroke-width="1.16667" stroke-linecap="round" stroke-linejoin="round"/>
</svg>
