<svg width="44" height="32" viewBox="0 0 44 32" fill="none" xmlns="http://www.w3.org/2000/svg">
<g clip-path="url(#clip0_6305_3678)">
<path d="M43.7765 0H-0.000244141V1.93834C-0.000244141 2.28562 0.139309 2.61232 0.378424 2.84145L4.29841 6.52375C4.80994 7.1211 5.51422 7.4616 6.24501 7.4616H9.35437C9.35437 7.4616 9.36107 10.156 9.36107 11.7295C9.36107 13.3028 9.97707 15.0016 9.97707 15.0016L9.5572 15.4407C9.10745 14.795 7.11975 12.2344 5.79989 12.2344L0.810347 12.2067V18.8623L9.36107 18.9665V32C11.5616 29.7089 13.769 27.4249 15.965 25.129V12.6583C15.965 10.8014 15.571 9.2907 15.2085 7.63165L15.2077 7.62825L15.2054 7.61765L15.2028 7.6073C15.1995 7.59445 15.1966 7.5831 15.1972 7.57085C15.1977 7.56085 15.2007 7.5503 15.2077 7.538C15.2528 7.46705 15.4388 7.39625 15.6157 7.3608C15.751 7.3338 15.8809 7.3274 15.9385 7.3574C16.8868 7.8407 17.894 8.0211 18.9384 8.0397C20.9041 8.07435 22.8745 8.07405 24.8402 8.0397C25.8838 8.02105 26.8902 7.8403 27.8377 7.3574C27.9706 7.28795 28.4888 7.4129 28.5686 7.538C28.5885 7.57275 28.5752 7.5935 28.5686 7.62825L28.5677 7.63165C28.2054 9.29 27.8112 10.8176 27.8112 12.6583V25.129C30.0073 27.4249 32.2146 29.7089 34.4151 32V18.9665L42.9659 18.8623V12.2067L37.9763 12.2344C36.6565 12.2344 34.6688 14.795 34.219 15.4407L33.7992 15.0016C33.7992 15.0016 34.4151 13.3028 34.4151 11.7295C34.4151 10.156 34.4218 7.4616 34.4218 7.4616H37.5312C38.262 7.4616 38.9663 7.1211 39.4778 6.52375L43.3978 2.84145C43.6369 2.61232 43.7765 2.28562 43.7765 1.93834V0Z" fill="url(#paint0_linear_6305_3678)"/>
<path d="M21.8874 19.3534C19.6087 19.3534 17.7615 17.4218 17.7615 15.039C17.7615 12.6562 19.6087 10.7246 21.8874 10.7246C24.166 10.7246 26.0132 12.6562 26.0132 15.039C26.0132 17.4218 24.166 19.3534 21.8874 19.3534Z" fill="url(#paint1_linear_6305_3678)"/>
</g>
<defs>
<linearGradient id="paint0_linear_6305_3678" x1="26.2415" y1="-2.73871" x2="33.5973" y2="35.7591" gradientUnits="userSpaceOnUse">
<stop offset="0.0922689" stop-color="#E3E3E3"/>
<stop offset="0.480967" stop-color="#F8F8F8"/>
<stop offset="0.595467" stop-color="#A9A9A9"/>
<stop offset="0.84772" stop-color="#F7F7F7"/>
<stop offset="1" stop-color="#343434"/>
</linearGradient>
<linearGradient id="paint1_linear_6305_3678" x1="22.708" y1="9.98612" x2="25.4445" y2="19.998" gradientUnits="userSpaceOnUse">
<stop offset="0.0922689" stop-color="#E3E3E3"/>
<stop offset="0.480967" stop-color="#F8F8F8"/>
<stop offset="0.595467" stop-color="#A9A9A9"/>
<stop offset="0.84772" stop-color="#F7F7F7"/>
<stop offset="1" stop-color="#343434"/>
</linearGradient>
<clipPath id="clip0_6305_3678">
<rect width="44" height="32" fill="white" transform="translate(-0.000244141)"/>
</clipPath>
</defs>
</svg>
