<svg width="19" height="20" viewBox="0 0 19 20" fill="none" xmlns="http://www.w3.org/2000/svg">
<path d="M5.65777 11.1978C7.16945 11.1976 8.19863 12.9539 8.19863 14.4655C8.19863 15.1656 8.3087 15.838 8.51123 16.4637C8.83095 17.4514 8.37001 18.6675 7.33181 18.6675C4.36649 18.6675 2.17955 17.6665 0.842786 15.6461C0.555039 15.2112 0.400391 14.6904 0.400391 14.1563V13.2975C0.400391 12.138 1.27315 11.198 2.34975 11.198L5.65777 11.1978ZM13.8329 9.33106C16.4659 9.33106 18.6004 11.6298 18.6004 14.4655C18.6004 17.3013 16.4659 19.6 13.8329 19.6C11.2 19.6 9.06544 17.3013 9.06544 14.4655C9.06544 11.6298 11.2 9.33106 13.8329 9.33106ZM13.8329 16.5669C13.534 16.5669 13.2916 16.8279 13.2916 17.1499C13.2916 17.4719 13.534 17.7329 13.8329 17.7329C14.1319 17.7329 14.3742 17.4719 14.3742 17.1499C14.3742 16.8279 14.1319 16.5669 13.8329 16.5669ZM13.833 11.0806C12.9246 11.0806 12.217 11.8437 12.2264 12.905C12.2287 13.1628 12.4246 13.3697 12.664 13.3673C12.9033 13.3648 13.0955 13.1538 13.0932 12.8961C13.0884 12.3555 13.405 12.0141 13.833 12.0141C14.2424 12.0141 14.5727 12.38 14.5727 12.9005C14.5727 13.08 14.5248 13.2201 14.3786 13.4247L14.2971 13.5329L14.2113 13.6386L13.9812 13.9094L13.863 14.0562C13.5307 14.4825 13.3996 14.796 13.3996 15.2792C13.3996 15.537 13.5936 15.746 13.833 15.746C14.0723 15.746 14.2664 15.537 14.2664 15.2792C14.2664 15.0895 14.3171 14.9441 14.4734 14.7281L14.547 14.631L14.6345 14.5232L14.8649 14.252L14.9815 14.1072C15.3094 13.6864 15.4396 13.3761 15.4396 12.9005C15.4396 11.8702 14.7267 11.0806 13.833 11.0806ZM7.33181 0C9.72543 0 11.6659 2.08979 11.6659 4.6677C11.6659 7.24559 9.72543 9.33536 7.33181 9.33536C4.93819 9.33536 2.99776 7.24559 2.99776 4.6677C2.99776 2.08979 4.93819 0 7.33181 0Z" fill="#E3E3E3"/>
</svg>
