<svg width="28" height="29" viewBox="0 0 28 29" fill="none" xmlns="http://www.w3.org/2000/svg">
<path d="M13.9925 0.0510487C12.1508 0.0396299 10.3251 0.393955 8.62141 1.09348C6.91769 1.793 5.3698 2.8238 4.0675 4.1261C2.7652 5.4284 1.7344 6.97628 1.03488 8.68C0.335361 10.3837 -0.0189639 12.2094 -0.00754504 14.051C-0.0189639 15.8927 0.335361 17.7184 1.03488 19.4221C1.7344 21.1258 2.7652 22.6737 4.0675 23.976C5.3698 25.2783 6.91769 26.3091 8.62141 27.0086C10.3251 27.7081 12.1508 28.0625 13.9925 28.051C15.8342 28.0625 17.6598 27.7081 19.3635 27.0086C21.0672 26.3091 22.6151 25.2783 23.9174 23.976C25.2197 22.6737 26.2505 21.1258 26.95 19.4221C27.6495 17.7184 28.0039 15.8927 27.9925 14.051C28.0039 12.2094 27.6495 10.3837 26.95 8.68C26.2505 6.97628 25.2197 5.4284 23.9174 4.1261C22.6151 2.8238 21.0672 1.793 19.3635 1.09348C17.6598 0.393955 15.8342 0.0396299 13.9925 0.0510487ZM19.4375 21.051L6.99246 8.60705L8.54845 7.05105L20.9925 19.496L19.4375 21.051Z" fill="#D95972"/>
</svg>
