<svg width="17" height="17" viewBox="0 0 17 17" fill="none" xmlns="http://www.w3.org/2000/svg">
<path d="M6.6694 10.0781C6.28607 9.69545 6.05273 9.17545 6.05273 8.59211C6.05273 7.42345 6.99407 6.48145 8.16207 6.48145C8.74007 6.48145 9.27207 6.71545 9.64873 7.09811" stroke="#DBDBDB" stroke-width="1.5" stroke-linecap="round" stroke-linejoin="round"/>
<path d="M10.2323 8.96582C10.0777 9.82582 9.40035 10.5045 8.54102 10.6605" stroke="#DBDBDB" stroke-width="1.5" stroke-linecap="round" stroke-linejoin="round"/>
<path d="M4.59943 12.148C3.54143 11.3173 2.64543 10.104 1.99609 8.59132C2.65209 7.07199 3.55409 5.85199 4.61876 5.01466C5.67676 4.17732 6.89743 3.72266 8.16276 3.72266C9.43543 3.72266 10.6554 4.18399 11.7201 5.02732" stroke="#DBDBDB" stroke-width="1.5" stroke-linecap="round" stroke-linejoin="round"/>
<path d="M13.1279 6.49414C13.5866 7.10347 13.9899 7.80681 14.3293 8.59147C13.0179 11.6295 10.7006 13.4595 8.16261 13.4595C7.58728 13.4595 7.01994 13.3661 6.47461 13.1841" stroke="#DBDBDB" stroke-width="1.5" stroke-linecap="round" stroke-linejoin="round"/>
<path d="M13.4203 3.33301L2.9043 13.849" stroke="#DBDBDB" stroke-width="1.5" stroke-linecap="round" stroke-linejoin="round"/>
</svg>
