<svg width="21" height="20" viewBox="0 0 21 20" fill="none" xmlns="http://www.w3.org/2000/svg">
<path d="M20.1637 8.76806L20.1638 8.7681C20.6585 9.20018 20.3513 10.0134 19.6995 10.0139H19.4872C18.5435 10.0139 17.7806 10.7805 17.7806 11.7237V18.7905C17.7806 19.1836 17.4633 19.5 17.0736 19.5H13.5574V13.8062C13.5574 13.153 13.0289 12.6224 12.3752 12.6224H8.53376C7.87964 12.6224 7.35195 13.1534 7.35195 13.8062V19.4996H3.62303C3.23363 19.4996 2.91604 19.1831 2.91604 18.7902V11.7233C2.91604 10.7801 2.15313 10.0135 1.20943 10.0135C0.558997 10.0135 0.250631 9.20235 0.744065 8.76929C0.744078 8.76928 0.74409 8.76927 0.744102 8.76926L9.96957 0.67521L9.96964 0.675145C10.2351 0.442142 10.6318 0.441357 10.8988 0.674364C10.8988 0.674398 10.8989 0.674432 10.8989 0.674467L20.1637 8.76806Z" fill="white" stroke="#F3B46E"/>
</svg>
