<svg width="24" height="25" viewBox="0 0 24 25" fill="none" xmlns="http://www.w3.org/2000/svg">
<g clip-path="url(#clip0_35_16585)">
<path d="M24 14.0004V18.5004H19.5V17.0004H21.293C20.9727 16.516 20.5508 16.1449 20.0273 15.8871C19.5039 15.6293 18.9531 15.5004 18.375 15.5004C17.9531 15.5004 17.5391 15.5707 17.1328 15.7113C16.7266 15.8519 16.3672 16.0551 16.0547 16.3207C15.7422 16.5863 15.4883 16.9027 15.293 17.2699C15.0977 17.6371 15 18.0472 15 18.5004H13.5C13.5 17.8363 13.6328 17.2308 13.8984 16.684C14.1641 16.1371 14.5273 15.6605 14.9883 15.2543C15.4492 14.848 15.9688 14.5394 16.5469 14.3285C17.125 14.1176 17.7344 14.0082 18.375 14.0004C18.7812 14.0004 19.1797 14.0433 19.5703 14.1293C19.9609 14.2152 20.3359 14.3519 20.6953 14.5394C21.0547 14.7269 21.3867 14.9457 21.6914 15.1957C21.9961 15.4457 22.2656 15.7465 22.5 16.098V14.0004H24ZM19.125 23.0004C19.5469 23.0004 19.957 22.9301 20.3555 22.7894C20.7539 22.6488 21.1133 22.4457 21.4336 22.1801C21.7539 21.9144 22.0117 21.598 22.207 21.2308C22.4023 20.8636 22.5 20.4535 22.5 20.0004H24C24 20.6644 23.8672 21.2699 23.6016 21.8168C23.3359 22.3636 22.9727 22.8402 22.5117 23.2465C22.0508 23.6527 21.5312 23.9613 20.9531 24.1722C20.375 24.3832 19.7656 24.4926 19.125 24.5004C18.7188 24.5004 18.3203 24.4574 17.9297 24.3715C17.5391 24.2855 17.1641 24.1488 16.8047 23.9613C16.4453 23.7738 16.1133 23.5551 15.8086 23.3051C15.5039 23.0551 15.2344 22.7543 15 22.4027V24.5004H13.5V20.0004H18V21.5004H16.207C16.5273 21.9847 16.9492 22.3558 17.4727 22.6136C17.9961 22.8715 18.5469 23.0004 19.125 23.0004ZM16.5 9.50037C15.8828 9.50037 15.3008 9.61755 14.7539 9.85193C14.207 10.0863 13.7305 10.4066 13.3242 10.8129C12.918 11.2191 12.5977 11.6957 12.3633 12.2426C12.1289 12.7894 12.0078 13.3715 12 13.9886C12 14.7152 11.8398 15.3949 11.5195 16.0277C11.1992 16.6605 10.7422 17.1957 10.1484 17.6332C10.5 17.8129 10.832 18.0238 11.1445 18.266C11.457 18.5082 11.7422 18.7777 12 19.0746L10.8047 20.0004C10.3828 19.5238 9.88672 19.1566 9.31641 18.8988C8.74609 18.641 8.14062 18.5082 7.5 18.5004C6.875 18.5004 6.29297 18.6176 5.75391 18.8519C5.21484 19.0863 4.73828 19.4066 4.32422 19.8129C3.91016 20.2191 3.58594 20.6996 3.35156 21.2543C3.11719 21.809 3 22.391 3 23.0004H1.5C1.5 22.4301 1.57812 21.8793 1.73438 21.348C1.89062 20.8168 2.11328 20.3129 2.40234 19.8363C2.69141 19.3597 3.04297 18.9379 3.45703 18.5707C3.87109 18.2035 4.33203 17.8871 4.83984 17.6215C4.26172 17.1996 3.8125 16.6722 3.49219 16.0394C3.17188 15.4066 3.00781 14.7269 3 14.0004C3 13.3832 3.11719 12.8011 3.35156 12.2543C3.58594 11.7074 3.90625 11.2308 4.3125 10.8246C4.71875 10.4183 5.19531 10.0941 5.74219 9.85193C6.28906 9.60974 6.875 9.49255 7.5 9.50037C8.21875 9.50037 8.89453 9.66052 9.52734 9.98083C10.1602 10.3011 10.6914 10.7543 11.1211 11.3402C11.418 10.7543 11.7969 10.2308 12.2578 9.7699C12.7188 9.30896 13.2461 8.92615 13.8398 8.62146C13.2617 8.19958 12.8125 7.67224 12.4922 7.03943C12.1719 6.40662 12.0078 5.72693 12 5.00037C12 4.38318 12.1172 3.80115 12.3516 3.25427C12.5859 2.7074 12.9062 2.23083 13.3125 1.82458C13.7188 1.41833 14.1953 1.09412 14.7422 0.851929C15.2891 0.609741 15.875 0.492554 16.5 0.500366C17.1172 0.500366 17.6992 0.617554 18.2461 0.851929C18.793 1.0863 19.2695 1.40662 19.6758 1.81287C20.082 2.21912 20.4062 2.69958 20.6484 3.25427C20.8906 3.80896 21.0078 4.39099 21 5.00037C21 5.71912 20.8398 6.3949 20.5195 7.02771C20.1992 7.66052 19.7461 8.19177 19.1602 8.62146C19.9414 9.01208 20.6016 9.54333 21.1406 10.2152C21.6797 10.8871 22.0625 11.6488 22.2891 12.5004H20.7188C20.5625 12.0551 20.3438 11.6488 20.0625 11.2816C19.7812 10.9144 19.457 10.598 19.0898 10.3324C18.7227 10.0668 18.3203 9.86365 17.8828 9.72302C17.4453 9.5824 16.9844 9.50818 16.5 9.50037ZM16.5 2.00037C16.0859 2.00037 15.6992 2.07849 15.3398 2.23474C14.9805 2.39099 14.6602 2.60583 14.3789 2.87927C14.0977 3.15271 13.8828 3.46912 13.7344 3.82849C13.5859 4.18787 13.5078 4.57849 13.5 5.00037C13.5 5.41443 13.5781 5.80115 13.7344 6.16052C13.8906 6.5199 14.1055 6.84021 14.3789 7.12146C14.6523 7.40271 14.9688 7.61755 15.3281 7.76599C15.6875 7.91443 16.0781 7.99255 16.5 8.00037C16.9141 8.00037 17.3008 7.92224 17.6602 7.76599C18.0195 7.60974 18.3398 7.3949 18.6211 7.12146C18.9023 6.84802 19.1172 6.53162 19.2656 6.17224C19.4141 5.81287 19.4922 5.42224 19.5 5.00037C19.5 4.5863 19.4219 4.19958 19.2656 3.84021C19.1094 3.48083 18.8945 3.16052 18.6211 2.87927C18.3477 2.59802 18.0312 2.38318 17.6719 2.23474C17.3125 2.0863 16.9219 2.00818 16.5 2.00037ZM7.5 17.0004C7.91406 17.0004 8.30078 16.9222 8.66016 16.766C9.01953 16.6097 9.33984 16.3949 9.62109 16.1215C9.90234 15.848 10.1172 15.5316 10.2656 15.1722C10.4141 14.8129 10.4922 14.4222 10.5 14.0004C10.5 13.5863 10.4219 13.1957 10.2656 12.8285C10.1094 12.4613 9.89844 12.1449 9.63281 11.8793C9.36719 11.6136 9.04688 11.3988 8.67188 11.2347C8.29688 11.0707 7.90625 10.9926 7.5 11.0004C7.08594 11.0004 6.69922 11.0785 6.33984 11.2347C5.98047 11.391 5.66016 11.6058 5.37891 11.8793C5.09766 12.1527 4.88281 12.4691 4.73438 12.8285C4.58594 13.1879 4.50781 13.5785 4.5 14.0004C4.5 14.4144 4.57812 14.8011 4.73438 15.1605C4.89062 15.5199 5.10547 15.8402 5.37891 16.1215C5.65234 16.4027 5.96875 16.6176 6.32812 16.766C6.6875 16.9144 7.07812 16.9926 7.5 17.0004Z" fill="white"/>
</g>
<defs>
<clipPath id="clip0_35_16585">
<rect width="24" height="24" fill="white" transform="translate(0 0.5)"/>
</clipPath>
</defs>
</svg>
