<svg width="42" height="42" viewBox="0 0 42 42" fill="none" xmlns="http://www.w3.org/2000/svg">
<path d="M20.0098 23.8349C18.7402 25.8176 18.0041 28.1746 18.0041 30.7035C18.0041 33.9022 19.1817 36.8261 21.1271 39.0648C19.5662 39.3789 17.8693 39.5349 16.0421 39.5349C9.33041 39.5349 4.38048 37.4312 1.35484 33.1847C0.703548 32.2706 0.353516 31.1762 0.353516 30.0537V28.2486C0.353516 25.8117 2.32893 23.8361 4.76571 23.8361L20.0098 23.8349ZM30.7568 19.9122C36.7164 19.9122 41.5475 24.7436 41.5475 30.7035C41.5475 36.6634 36.7164 41.4948 30.7568 41.4948C24.7974 41.4948 19.9661 36.6634 19.9661 30.7035C19.9661 24.7436 24.7974 19.9122 30.7568 19.9122ZM30.7568 35.1201C30.0801 35.1201 29.5315 35.6687 29.5315 36.3454C29.5315 37.0221 30.0801 37.5707 30.7568 37.5707C31.4335 37.5707 31.982 37.0221 31.982 36.3454C31.982 35.6687 31.4335 35.1201 30.7568 35.1201ZM30.757 23.5893C28.7009 23.5893 27.0993 25.1931 27.1207 27.4237C27.1258 27.9655 27.5692 28.4004 28.1111 28.3953C28.6528 28.39 29.0878 27.9466 29.0825 27.4049C29.0717 26.2689 29.7882 25.5513 30.757 25.5513C31.6836 25.5513 32.4313 26.3203 32.4313 27.4143C32.4313 27.7914 32.3228 28.0859 31.9918 28.516L31.8074 28.7434L31.6132 28.9655L31.0925 29.5347L30.8249 29.8431C30.0728 30.7392 29.776 31.3981 29.776 32.4136C29.776 32.9553 30.2151 33.3946 30.757 33.3946C31.2987 33.3946 31.738 32.9553 31.738 32.4136C31.738 32.0149 31.8527 31.7092 32.2065 31.2554L32.373 31.0512L32.5712 30.8247L33.0925 30.2548L33.3566 29.9505C34.0988 29.066 34.3933 28.4138 34.3933 27.4143C34.3933 25.2488 32.7798 23.5893 30.757 23.5893ZM16.0421 0.300781C21.4599 0.300781 25.8519 4.69297 25.8519 10.111C25.8519 15.5291 21.4599 19.9212 16.0421 19.9212C10.6244 19.9212 6.23243 15.5291 6.23243 10.111C6.23243 4.69297 10.6244 0.300781 16.0421 0.300781Z" fill="#E3E3E3"/>
</svg>
