<svg width="42" height="41" viewBox="0 0 42 41" fill="none" xmlns="http://www.w3.org/2000/svg">
<path d="M20.0273 23.2589C18.7846 25.2121 18.064 27.5341 18.064 30.0255C18.064 33.1767 19.2167 36.0571 21.121 38.2626C19.5931 38.572 17.9321 38.7257 16.1436 38.7257C9.57397 38.7257 4.72883 36.6532 1.76723 32.4698C1.12973 31.5693 0.787109 30.4911 0.787109 29.3853V27.607C0.787109 25.2063 2.7207 23.2601 5.1059 23.2601L20.0273 23.2589ZM30.5468 19.3944C36.3802 19.3944 41.1091 24.154 41.1091 30.0255C41.1091 35.8969 36.3802 40.6565 30.5468 40.6565C24.7135 40.6565 19.9845 35.8969 19.9845 30.0255C19.9845 24.154 24.7135 19.3944 30.5468 19.3944ZM30.5468 34.3764C29.8844 34.3764 29.3475 34.9169 29.3475 35.5836C29.3475 36.2502 29.8844 36.7907 30.5468 36.7907C31.2091 36.7907 31.7461 36.2502 31.7461 35.5836C31.7461 34.9169 31.2091 34.3764 30.5468 34.3764ZM30.547 23.0169C28.5344 23.0169 26.9667 24.5969 26.9877 26.7944C26.9927 27.3281 27.4267 27.7566 27.9571 27.7516C28.4873 27.7464 28.9131 27.3095 28.9079 26.7758C28.8973 25.6567 29.5987 24.9498 30.547 24.9498C31.454 24.9498 32.1859 25.7073 32.1859 26.7851C32.1859 27.1566 32.0797 27.4467 31.7557 27.8704L31.5752 28.0945L31.385 28.3133L30.8754 28.874L30.6134 29.1779C29.8773 30.0606 29.5868 30.7097 29.5868 31.7102C29.5868 32.2439 30.0165 32.6766 30.547 32.6766C31.0772 32.6766 31.5072 32.2439 31.5072 31.7102C31.5072 31.3174 31.6195 31.0163 31.9658 30.5692L32.1288 30.368L32.3228 30.1449L32.833 29.5834L33.0915 29.2836C33.818 28.4122 34.1063 27.7697 34.1063 26.7851C34.1063 24.6518 32.5269 23.0169 30.547 23.0169ZM16.1436 0.0742188C21.4467 0.0742188 25.7457 4.40119 25.7457 9.7388C25.7457 15.0764 21.4467 19.4033 16.1436 19.4033C10.8406 19.4033 6.54157 15.0764 6.54157 9.7388C6.54157 4.40119 10.8406 0.0742188 16.1436 0.0742188Z" fill="#E3E3E3"/>
</svg>
