<svg width="247" height="134" viewBox="0 0 247 134" fill="none" xmlns="http://www.w3.org/2000/svg">
<path d="M0.280935 103.008L104.512 110.267L108.285 110.256L246.944 119.307L244.033 89.6073L153.045 96.9303L237.854 71.7056L210.884 38.2999L145.472 86.5771L192.029 18.4378L136.028 0.380452L126.139 86.6302L108.285 0.380458L60.0286 12.3805L108.229 89.9802L38.2765 30.2859L18.0688 55.3333L104.476 97.0637L5.87471 79.4156L0.280935 103.008Z" fill="url(#paint0_radial_6261_4066)"/>
<g filter="url(#filter0_d_6261_4066)">
<path d="M26.8069 81.3789H61.0286C63.2377 81.3789 65.0286 83.1698 65.0286 85.3789V126.379C65.0286 128.588 63.2377 130.379 61.0286 130.379H26.8069C23.2263 130.379 21.4494 126.035 24.0035 123.526L39.0598 108.732C40.6552 107.165 40.6552 104.593 39.0598 103.026L24.0035 88.2321C21.4494 85.7226 23.2263 81.3789 26.8069 81.3789Z" fill="url(#paint1_linear_6261_4066)"/>
<path d="M215.25 81.3789H181.029C178.819 81.3789 177.029 83.1698 177.029 85.3789V126.379C177.029 128.588 178.819 130.379 181.029 130.379H215.25C218.831 130.379 220.608 126.035 218.054 123.526L202.997 108.732C201.402 107.165 201.402 104.593 202.997 103.026L218.054 88.2321C220.608 85.7226 218.831 81.3789 215.25 81.3789Z" fill="url(#paint2_linear_6261_4066)"/>
<path d="M65.0286 126.879V117.379V114.379H53.0286V114.879L65.0286 126.879Z" fill="#1A202D"/>
<path d="M177.029 126.88V117.38V114.38L189.029 112.88C189.029 112.88 189.529 111.38 189.529 112.88L177.029 126.88Z" fill="#1A202D"/>
<rect x="49.0286" y="66.3789" width="143" height="51" rx="12" fill="#D3D8FF"/>
<rect x="49.0286" y="64.3789" width="143" height="51" rx="12" fill="url(#paint3_linear_6261_4066)"/>
</g>
<g filter="url(#filter1_d_6261_4066)">
<mask id="path-8-outside-1_6261_4066" maskUnits="userSpaceOnUse" x="54" y="80" width="134" height="18" fill="black">
<rect fill="white" x="54" y="80" width="134" height="18"/>
<path d="M63.392 97V91.06L56.088 81.16H59.52L64.866 87.87L70.146 81.16H73.644L66.318 91.082V97H63.392ZM77.9706 97C77.4133 97 76.8999 96.8607 76.4306 96.582C75.9759 96.3033 75.6093 95.9367 75.3306 95.482C75.0519 95.0127 74.9126 94.4993 74.9126 93.942V84.218C74.9126 83.6607 75.0519 83.1547 75.3306 82.7C75.6093 82.2307 75.9759 81.8567 76.4306 81.578C76.8999 81.2993 77.4133 81.16 77.9706 81.16H87.6946C88.2519 81.16 88.7579 81.2993 89.2126 81.578C89.6819 81.8567 90.0559 82.2307 90.3346 82.7C90.6133 83.1547 90.7526 83.6607 90.7526 84.218V93.942C90.7526 94.4993 90.6133 95.0127 90.3346 95.482C90.0559 95.9367 89.6819 96.3033 89.2126 96.582C88.7579 96.8607 88.2519 97 87.6946 97H77.9706ZM78.0806 94.074H87.5406C87.6139 94.074 87.6799 94.052 87.7386 94.008C87.7973 93.9493 87.8266 93.8833 87.8266 93.81V84.35C87.8266 84.2767 87.7973 84.218 87.7386 84.174C87.6799 84.1153 87.6139 84.086 87.5406 84.086H78.0806C78.0073 84.086 77.9413 84.1153 77.8826 84.174C77.8386 84.218 77.8166 84.2767 77.8166 84.35V93.81C77.8166 93.8833 77.8386 93.9493 77.8826 94.008C77.9413 94.052 78.0073 94.074 78.0806 94.074ZM96.1894 97C95.632 97 95.1187 96.8607 94.6494 96.582C94.1947 96.3033 93.828 95.9367 93.5494 95.482C93.2707 95.0127 93.1314 94.4993 93.1314 93.942V81.16H96.0354V93.81C96.0354 93.8833 96.0574 93.9493 96.1014 94.008C96.16 94.052 96.226 94.074 96.2994 94.074H105.759C105.833 94.074 105.899 94.052 105.957 94.008C106.016 93.9493 106.045 93.8833 106.045 93.81V81.16H108.971V93.942C108.971 94.4993 108.832 95.0127 108.553 95.482C108.275 95.9367 107.901 96.3033 107.431 96.582C106.977 96.8607 106.471 97 105.913 97H96.1894ZM118.141 97V81.138H121.045V94.074H133.981V97H118.141ZM138.277 97C137.72 97 137.207 96.8607 136.737 96.582C136.283 96.3033 135.916 95.9367 135.637 95.482C135.359 95.0127 135.219 94.4993 135.219 93.942V84.218C135.219 83.6607 135.359 83.1547 135.637 82.7C135.916 82.2307 136.283 81.8567 136.737 81.578C137.207 81.2993 137.72 81.16 138.277 81.16H148.001C148.559 81.16 149.065 81.2993 149.519 81.578C149.989 81.8567 150.363 82.2307 150.641 82.7C150.92 83.1547 151.059 83.6607 151.059 84.218V93.942C151.059 94.4993 150.92 95.0127 150.641 95.482C150.363 95.9367 149.989 96.3033 149.519 96.582C149.065 96.8607 148.559 97 148.001 97H138.277ZM138.387 94.074H147.847C147.921 94.074 147.987 94.052 148.045 94.008C148.104 93.9493 148.133 93.8833 148.133 93.81V84.35C148.133 84.2767 148.104 84.218 148.045 84.174C147.987 84.1153 147.921 84.086 147.847 84.086H138.387C138.314 84.086 138.248 84.1153 138.189 84.174C138.145 84.218 138.123 84.2767 138.123 84.35V93.81C138.123 93.8833 138.145 93.9493 138.189 94.008C138.248 94.052 138.314 94.074 138.387 94.074ZM156.474 97C155.917 97 155.403 96.8607 154.934 96.582C154.479 96.3033 154.113 95.9367 153.834 95.482C153.555 95.0127 153.416 94.4993 153.416 93.942V92.732H156.32V93.81C156.32 93.8833 156.342 93.9493 156.386 94.008C156.445 94.052 156.511 94.074 156.584 94.074H166.066C166.139 94.074 166.198 94.052 166.242 94.008C166.301 93.9493 166.33 93.8833 166.33 93.81V90.796C166.33 90.7227 166.301 90.664 166.242 90.62C166.198 90.576 166.139 90.554 166.066 90.554H156.474C155.917 90.554 155.403 90.4147 154.934 90.136C154.479 89.8573 154.113 89.4907 153.834 89.036C153.555 88.5667 153.416 88.046 153.416 87.474V84.218C153.416 83.6607 153.555 83.1547 153.834 82.7C154.113 82.2307 154.479 81.8567 154.934 81.578C155.403 81.2993 155.917 81.16 156.474 81.16H166.198C166.755 81.16 167.261 81.2993 167.716 81.578C168.185 81.8567 168.559 82.2307 168.838 82.7C169.117 83.1547 169.256 83.6607 169.256 84.218V85.428H166.33V84.35C166.33 84.2767 166.301 84.218 166.242 84.174C166.198 84.1153 166.139 84.086 166.066 84.086H156.584C156.511 84.086 156.445 84.1153 156.386 84.174C156.342 84.218 156.32 84.2767 156.32 84.35V87.364C156.32 87.4373 156.342 87.496 156.386 87.54C156.445 87.584 156.511 87.606 156.584 87.606H166.198C166.755 87.606 167.261 87.7453 167.716 88.024C168.185 88.3027 168.559 88.6767 168.838 89.146C169.117 89.6007 169.256 90.114 169.256 90.686V93.942C169.256 94.4993 169.117 95.0127 168.838 95.482C168.559 95.9367 168.185 96.3033 167.716 96.582C167.261 96.8607 166.755 97 166.198 97H156.474ZM171.702 97V81.16H186.288V84.086H174.628V87.606H184V90.554H174.628V94.074H186.288V97H171.702Z"/>
</mask>
<path d="M63.392 97V91.06L56.088 81.16H59.52L64.866 87.87L70.146 81.16H73.644L66.318 91.082V97H63.392ZM77.9706 97C77.4133 97 76.8999 96.8607 76.4306 96.582C75.9759 96.3033 75.6093 95.9367 75.3306 95.482C75.0519 95.0127 74.9126 94.4993 74.9126 93.942V84.218C74.9126 83.6607 75.0519 83.1547 75.3306 82.7C75.6093 82.2307 75.9759 81.8567 76.4306 81.578C76.8999 81.2993 77.4133 81.16 77.9706 81.16H87.6946C88.2519 81.16 88.7579 81.2993 89.2126 81.578C89.6819 81.8567 90.0559 82.2307 90.3346 82.7C90.6133 83.1547 90.7526 83.6607 90.7526 84.218V93.942C90.7526 94.4993 90.6133 95.0127 90.3346 95.482C90.0559 95.9367 89.6819 96.3033 89.2126 96.582C88.7579 96.8607 88.2519 97 87.6946 97H77.9706ZM78.0806 94.074H87.5406C87.6139 94.074 87.6799 94.052 87.7386 94.008C87.7973 93.9493 87.8266 93.8833 87.8266 93.81V84.35C87.8266 84.2767 87.7973 84.218 87.7386 84.174C87.6799 84.1153 87.6139 84.086 87.5406 84.086H78.0806C78.0073 84.086 77.9413 84.1153 77.8826 84.174C77.8386 84.218 77.8166 84.2767 77.8166 84.35V93.81C77.8166 93.8833 77.8386 93.9493 77.8826 94.008C77.9413 94.052 78.0073 94.074 78.0806 94.074ZM96.1894 97C95.632 97 95.1187 96.8607 94.6494 96.582C94.1947 96.3033 93.828 95.9367 93.5494 95.482C93.2707 95.0127 93.1314 94.4993 93.1314 93.942V81.16H96.0354V93.81C96.0354 93.8833 96.0574 93.9493 96.1014 94.008C96.16 94.052 96.226 94.074 96.2994 94.074H105.759C105.833 94.074 105.899 94.052 105.957 94.008C106.016 93.9493 106.045 93.8833 106.045 93.81V81.16H108.971V93.942C108.971 94.4993 108.832 95.0127 108.553 95.482C108.275 95.9367 107.901 96.3033 107.431 96.582C106.977 96.8607 106.471 97 105.913 97H96.1894ZM118.141 97V81.138H121.045V94.074H133.981V97H118.141ZM138.277 97C137.72 97 137.207 96.8607 136.737 96.582C136.283 96.3033 135.916 95.9367 135.637 95.482C135.359 95.0127 135.219 94.4993 135.219 93.942V84.218C135.219 83.6607 135.359 83.1547 135.637 82.7C135.916 82.2307 136.283 81.8567 136.737 81.578C137.207 81.2993 137.72 81.16 138.277 81.16H148.001C148.559 81.16 149.065 81.2993 149.519 81.578C149.989 81.8567 150.363 82.2307 150.641 82.7C150.92 83.1547 151.059 83.6607 151.059 84.218V93.942C151.059 94.4993 150.92 95.0127 150.641 95.482C150.363 95.9367 149.989 96.3033 149.519 96.582C149.065 96.8607 148.559 97 148.001 97H138.277ZM138.387 94.074H147.847C147.921 94.074 147.987 94.052 148.045 94.008C148.104 93.9493 148.133 93.8833 148.133 93.81V84.35C148.133 84.2767 148.104 84.218 148.045 84.174C147.987 84.1153 147.921 84.086 147.847 84.086H138.387C138.314 84.086 138.248 84.1153 138.189 84.174C138.145 84.218 138.123 84.2767 138.123 84.35V93.81C138.123 93.8833 138.145 93.9493 138.189 94.008C138.248 94.052 138.314 94.074 138.387 94.074ZM156.474 97C155.917 97 155.403 96.8607 154.934 96.582C154.479 96.3033 154.113 95.9367 153.834 95.482C153.555 95.0127 153.416 94.4993 153.416 93.942V92.732H156.32V93.81C156.32 93.8833 156.342 93.9493 156.386 94.008C156.445 94.052 156.511 94.074 156.584 94.074H166.066C166.139 94.074 166.198 94.052 166.242 94.008C166.301 93.9493 166.33 93.8833 166.33 93.81V90.796C166.33 90.7227 166.301 90.664 166.242 90.62C166.198 90.576 166.139 90.554 166.066 90.554H156.474C155.917 90.554 155.403 90.4147 154.934 90.136C154.479 89.8573 154.113 89.4907 153.834 89.036C153.555 88.5667 153.416 88.046 153.416 87.474V84.218C153.416 83.6607 153.555 83.1547 153.834 82.7C154.113 82.2307 154.479 81.8567 154.934 81.578C155.403 81.2993 155.917 81.16 156.474 81.16H166.198C166.755 81.16 167.261 81.2993 167.716 81.578C168.185 81.8567 168.559 82.2307 168.838 82.7C169.117 83.1547 169.256 83.6607 169.256 84.218V85.428H166.33V84.35C166.33 84.2767 166.301 84.218 166.242 84.174C166.198 84.1153 166.139 84.086 166.066 84.086H156.584C156.511 84.086 156.445 84.1153 156.386 84.174C156.342 84.218 156.32 84.2767 156.32 84.35V87.364C156.32 87.4373 156.342 87.496 156.386 87.54C156.445 87.584 156.511 87.606 156.584 87.606H166.198C166.755 87.606 167.261 87.7453 167.716 88.024C168.185 88.3027 168.559 88.6767 168.838 89.146C169.117 89.6007 169.256 90.114 169.256 90.686V93.942C169.256 94.4993 169.117 95.0127 168.838 95.482C168.559 95.9367 168.185 96.3033 167.716 96.582C167.261 96.8607 166.755 97 166.198 97H156.474ZM171.702 97V81.16H186.288V84.086H174.628V87.606H184V90.554H174.628V94.074H186.288V97H171.702Z" fill="white"/>
<path d="M63.392 97H62.392V98H63.392V97ZM63.392 91.06H64.392V90.731L64.1967 90.4663L63.392 91.06ZM56.088 81.16V80.16H54.1075L55.2833 81.7537L56.088 81.16ZM59.52 81.16L60.3021 80.5369L60.0019 80.16H59.52V81.16ZM64.866 87.87L64.0839 88.4931L64.8709 89.4809L65.6519 88.4884L64.866 87.87ZM70.146 81.16V80.16H69.6604L69.3601 80.5416L70.146 81.16ZM73.644 81.16L74.4485 81.754L75.6254 80.16H73.644V81.16ZM66.318 91.082L65.5135 90.488L65.318 90.7528V91.082H66.318ZM66.318 97V98H67.318V97H66.318ZM64.392 97V91.06H62.392V97H64.392ZM64.1967 90.4663L56.8927 80.5663L55.2833 81.7537L62.5873 91.6537L64.1967 90.4663ZM56.088 82.16H59.52V80.16H56.088V82.16ZM58.7379 81.7831L64.0839 88.4931L65.6481 87.2469L60.3021 80.5369L58.7379 81.7831ZM65.6519 88.4884L70.9319 81.7784L69.3601 80.5416L64.0801 87.2516L65.6519 88.4884ZM70.146 82.16H73.644V80.16H70.146V82.16ZM72.8395 80.566L65.5135 90.488L67.1225 91.676L74.4485 81.754L72.8395 80.566ZM65.318 91.082V97H67.318V91.082H65.318ZM66.318 96H63.392V98H66.318V96ZM76.4306 96.582L75.908 97.4347L75.9201 97.4419L76.4306 96.582ZM75.3306 95.482L74.4707 95.9926L74.478 96.0046L75.3306 95.482ZM75.3306 82.7L76.1833 83.2226L76.1905 83.2105L75.3306 82.7ZM76.4306 81.578L75.92 80.7181L75.908 80.7254L76.4306 81.578ZM89.2126 81.578L88.69 82.4307L88.7021 82.4379L89.2126 81.578ZM90.3346 82.7L89.4747 83.2106L89.482 83.2226L90.3346 82.7ZM90.3346 95.482L91.1873 96.0046L91.1945 95.9925L90.3346 95.482ZM89.2126 96.582L88.702 95.7221L88.69 95.7294L89.2126 96.582ZM87.7386 94.008L88.3386 94.808L88.3955 94.7654L88.4457 94.7151L87.7386 94.008ZM87.7386 84.174L87.0315 84.8811L87.0818 84.9314L87.1386 84.974L87.7386 84.174ZM77.8826 84.174L78.5897 84.8811L78.5897 84.8811L77.8826 84.174ZM77.8826 94.008L77.0826 94.608L77.1683 94.7223L77.2826 94.808L77.8826 94.008ZM77.9706 96C77.589 96 77.2526 95.9071 76.9411 95.7221L75.9201 97.4419C76.5473 97.8143 77.2376 98 77.9706 98V96ZM76.9532 95.7294C76.633 95.5332 76.3794 95.2796 76.1832 94.9594L74.478 96.0046C74.8391 96.5937 75.3189 97.0735 75.908 97.4346L76.9532 95.7294ZM76.1905 94.9715C76.0055 94.66 75.9126 94.3236 75.9126 93.942H73.9126C73.9126 94.675 74.0983 95.3653 74.4708 95.9925L76.1905 94.9715ZM75.9126 93.942V84.218H73.9126V93.942H75.9126ZM75.9126 84.218C75.9126 83.8364 76.0054 83.5127 76.1832 83.2226L74.478 82.1774C74.0985 82.7966 73.9126 83.4849 73.9126 84.218H75.9126ZM76.1905 83.2105C76.3882 82.8775 76.6404 82.6223 76.9532 82.4306L75.908 80.7254C75.3115 81.091 74.8304 81.5838 74.4708 82.1895L76.1905 83.2105ZM76.9411 82.4379C77.2526 82.2529 77.589 82.16 77.9706 82.16V80.16C77.2376 80.16 76.5473 80.3457 75.9201 80.7181L76.9411 82.4379ZM77.9706 82.16H87.6946V80.16H77.9706V82.16ZM87.6946 82.16C88.0762 82.16 88.3999 82.2528 88.69 82.4306L89.7352 80.7254C89.116 80.3459 88.4277 80.16 87.6946 80.16V82.16ZM88.7021 82.4379C89.0276 82.6311 89.2815 82.885 89.4748 83.2105L91.1945 82.1895C90.8304 81.5763 90.3363 81.0822 89.7231 80.7181L88.7021 82.4379ZM89.482 83.2226C89.6598 83.5127 89.7526 83.8364 89.7526 84.218H91.7526C91.7526 83.4849 91.5667 82.7966 91.1872 82.1774L89.482 83.2226ZM89.7526 84.218V93.942H91.7526V84.218H89.7526ZM89.7526 93.942C89.7526 94.3236 89.6597 94.66 89.4748 94.9715L91.1945 95.9925C91.5669 95.3653 91.7526 94.675 91.7526 93.942H89.7526ZM89.482 94.9594C89.2903 95.2722 89.0351 95.5244 88.7021 95.7221L89.7231 97.4419C90.3288 97.0823 90.8216 96.6011 91.1872 96.0046L89.482 94.9594ZM88.69 95.7294C88.3999 95.9072 88.0762 96 87.6946 96V98C88.4277 98 89.116 97.8141 89.7352 97.4346L88.69 95.7294ZM87.6946 96H77.9706V98H87.6946V96ZM78.0806 95.074H87.5406V93.074H78.0806V95.074ZM87.5406 95.074C87.8303 95.074 88.1068 94.9818 88.3386 94.808L87.1386 93.208C87.1906 93.169 87.2545 93.1336 87.3289 93.1088C87.4033 93.084 87.4756 93.074 87.5406 93.074V95.074ZM88.4457 94.7151C88.6651 94.4958 88.8266 94.1842 88.8266 93.81H86.8266C86.8266 93.709 86.8477 93.6052 86.8908 93.5084C86.9328 93.4138 86.9868 93.3456 87.0315 93.3009L88.4457 94.7151ZM88.8266 93.81V84.35H86.8266V93.81H88.8266ZM88.8266 84.35C88.8266 83.9619 88.6491 83.6068 88.3386 83.374L87.1386 84.974C87.0586 84.914 86.9728 84.8234 86.9102 84.6982C86.8476 84.573 86.8266 84.4501 86.8266 84.35H88.8266ZM88.4457 83.4669C88.2264 83.2475 87.9149 83.086 87.5406 83.086V85.086C87.4396 85.086 87.3358 85.0649 87.239 85.0218C87.1444 84.9798 87.0762 84.9258 87.0315 84.8811L88.4457 83.4669ZM87.5406 83.086H78.0806V85.086H87.5406V83.086ZM78.0806 83.086C77.7064 83.086 77.3949 83.2475 77.1755 83.4669L78.5897 84.8811C78.545 84.9258 78.4768 84.9798 78.3822 85.0218C78.2854 85.0649 78.1817 85.086 78.0806 85.086V83.086ZM77.1755 83.4669C76.9108 83.7316 76.8166 84.0624 76.8166 84.35H78.8166C78.8166 84.4132 78.8071 84.5018 78.7694 84.6021C78.7307 84.7055 78.6694 84.8015 78.5897 84.8811L77.1755 83.4669ZM76.8166 84.35V93.81H78.8166V84.35H76.8166ZM76.8166 93.81C76.8166 94.0997 76.9088 94.3762 77.0826 94.608L78.6826 93.408C78.7216 93.46 78.757 93.5239 78.7818 93.5983C78.8066 93.6726 78.8166 93.745 78.8166 93.81H76.8166ZM77.2826 94.808C77.5144 94.9818 77.7909 95.074 78.0806 95.074V93.074C78.1456 93.074 78.218 93.084 78.2923 93.1088C78.3667 93.1336 78.4306 93.169 78.4826 93.208L77.2826 94.808ZM94.6494 96.582L94.1267 97.4347L94.1388 97.4419L94.6494 96.582ZM93.5494 95.482L92.6894 95.9926L92.6968 96.0046L93.5494 95.482ZM93.1314 81.16V80.16H92.1314V81.16H93.1314ZM96.0354 81.16H97.0354V80.16H96.0354V81.16ZM96.1014 94.008L95.3014 94.608L95.3871 94.7223L95.5014 94.808L96.1014 94.008ZM105.957 94.008L106.557 94.808L106.614 94.7654L106.664 94.7151L105.957 94.008ZM106.045 81.16V80.16H105.045V81.16H106.045ZM108.971 81.16H109.971V80.16H108.971V81.16ZM108.553 95.482L109.406 96.0046L109.413 95.9925L108.553 95.482ZM107.431 96.582L106.921 95.7221L106.909 95.7294L107.431 96.582ZM96.1894 96C95.8077 96 95.4713 95.9071 95.1599 95.7221L94.1388 97.4419C94.766 97.8143 95.4563 98 96.1894 98V96ZM95.1719 95.7294C94.8518 95.5332 94.5982 95.2796 94.402 94.9594L92.6968 96.0046C93.0579 96.5937 93.5376 97.0735 94.1268 97.4346L95.1719 95.7294ZM94.4092 94.9715C94.2243 94.66 94.1314 94.3236 94.1314 93.942H92.1314C92.1314 94.675 92.3171 95.3653 92.6895 95.9925L94.4092 94.9715ZM94.1314 93.942V81.16H92.1314V93.942H94.1314ZM93.1314 82.16H96.0354V80.16H93.1314V82.16ZM95.0354 81.16V93.81H97.0354V81.16H95.0354ZM95.0354 93.81C95.0354 94.0997 95.1275 94.3762 95.3014 94.608L96.9014 93.408C96.9403 93.46 96.9758 93.5239 97.0005 93.5983C97.0253 93.6726 97.0354 93.745 97.0354 93.81H95.0354ZM95.5014 94.808C95.7331 94.9818 96.0097 95.074 96.2994 95.074V93.074C96.3643 93.074 96.4367 93.084 96.5111 93.1088C96.5855 93.1336 96.6494 93.169 96.7014 93.208L95.5014 94.808ZM96.2994 95.074H105.759V93.074H96.2994V95.074ZM105.759 95.074C106.049 95.074 106.326 94.9818 106.557 94.808L105.357 93.208C105.409 93.169 105.473 93.1336 105.548 93.1088C105.622 93.084 105.694 93.074 105.759 93.074V95.074ZM106.664 94.7151C106.884 94.4958 107.045 94.1842 107.045 93.81H105.045C105.045 93.709 105.066 93.6052 105.11 93.5084C105.152 93.4138 105.206 93.3456 105.25 93.3009L106.664 94.7151ZM107.045 93.81V81.16H105.045V93.81H107.045ZM106.045 82.16H108.971V80.16H106.045V82.16ZM107.971 81.16V93.942H109.971V81.16H107.971ZM107.971 93.942C107.971 94.3236 107.878 94.66 107.694 94.9715L109.413 95.9925C109.786 95.3653 109.971 94.675 109.971 93.942H107.971ZM107.701 94.9594C107.509 95.2722 107.254 95.5244 106.921 95.7221L107.942 97.4419C108.548 97.0823 109.04 96.6011 109.406 96.0046L107.701 94.9594ZM106.909 95.7294C106.619 95.9072 106.295 96 105.913 96V98C106.646 98 107.335 97.8141 107.954 97.4346L106.909 95.7294ZM105.913 96H96.1894V98H105.913V96ZM118.141 97H117.141V98H118.141V97ZM118.141 81.138V80.138H117.141V81.138H118.141ZM121.045 81.138H122.045V80.138H121.045V81.138ZM121.045 94.074H120.045V95.074H121.045V94.074ZM133.981 94.074H134.981V93.074H133.981V94.074ZM133.981 97V98H134.981V97H133.981ZM119.141 97V81.138H117.141V97H119.141ZM118.141 82.138H121.045V80.138H118.141V82.138ZM120.045 81.138V94.074H122.045V81.138H120.045ZM121.045 95.074H133.981V93.074H121.045V95.074ZM132.981 94.074V97H134.981V94.074H132.981ZM133.981 96H118.141V98H133.981V96ZM136.737 96.582L136.215 97.4347L136.227 97.4419L136.737 96.582ZM135.637 95.482L134.777 95.9926L134.785 96.0046L135.637 95.482ZM135.637 82.7L136.49 83.2226L136.497 83.2105L135.637 82.7ZM136.737 81.578L136.227 80.7181L136.215 80.7254L136.737 81.578ZM149.519 81.578L148.997 82.4307L149.009 82.4379L149.519 81.578ZM150.641 82.7L149.781 83.2106L149.789 83.2226L150.641 82.7ZM150.641 95.482L151.494 96.0046L151.501 95.9925L150.641 95.482ZM149.519 96.582L149.009 95.7221L148.997 95.7294L149.519 96.582ZM148.045 94.008L148.645 94.808L148.702 94.7654L148.752 94.7151L148.045 94.008ZM148.045 84.174L147.338 84.8811L147.388 84.9314L147.445 84.974L148.045 84.174ZM138.189 84.174L138.896 84.8811V84.8811L138.189 84.174ZM138.189 94.008L137.389 94.608L137.475 94.7223L137.589 94.808L138.189 94.008ZM138.277 96C137.896 96 137.559 95.9071 137.248 95.7221L136.227 97.4419C136.854 97.8143 137.544 98 138.277 98V96ZM137.26 95.7294C136.94 95.5332 136.686 95.2796 136.49 94.9594L134.785 96.0046C135.146 96.5937 135.626 97.0735 136.215 97.4346L137.26 95.7294ZM136.497 94.9715C136.312 94.66 136.219 94.3236 136.219 93.942H134.219C134.219 94.675 134.405 95.3653 134.777 95.9925L136.497 94.9715ZM136.219 93.942V84.218H134.219V93.942H136.219ZM136.219 84.218C136.219 83.8364 136.312 83.5127 136.49 83.2226L134.785 82.1774C134.405 82.7966 134.219 83.4849 134.219 84.218H136.219ZM136.497 83.2105C136.695 82.8775 136.947 82.6223 137.26 82.4306L136.215 80.7254C135.618 81.091 135.137 81.5838 134.777 82.1895L136.497 83.2105ZM137.248 82.4379C137.559 82.2529 137.896 82.16 138.277 82.16V80.16C137.544 80.16 136.854 80.3457 136.227 80.7181L137.248 82.4379ZM138.277 82.16H148.001V80.16H138.277V82.16ZM148.001 82.16C148.383 82.16 148.707 82.2528 148.997 82.4306L150.042 80.7254C149.423 80.3459 148.734 80.16 148.001 80.16V82.16ZM149.009 82.4379C149.334 82.6311 149.588 82.885 149.781 83.2105L151.501 82.1895C151.137 81.5763 150.643 81.0822 150.03 80.7181L149.009 82.4379ZM149.789 83.2226C149.966 83.5127 150.059 83.8364 150.059 84.218H152.059C152.059 83.4849 151.873 82.7966 151.494 82.1774L149.789 83.2226ZM150.059 84.218V93.942H152.059V84.218H150.059ZM150.059 93.942C150.059 94.3236 149.966 94.66 149.781 94.9715L151.501 95.9925C151.874 95.3653 152.059 94.675 152.059 93.942H150.059ZM149.789 94.9594C149.597 95.2722 149.342 95.5244 149.009 95.7221L150.03 97.4419C150.635 97.0823 151.128 96.6011 151.494 96.0046L149.789 94.9594ZM148.997 95.7294C148.707 95.9072 148.383 96 148.001 96V98C148.734 98 149.423 97.8141 150.042 97.4346L148.997 95.7294ZM148.001 96H138.277V98H148.001V96ZM138.387 95.074H147.847V93.074H138.387V95.074ZM147.847 95.074C148.137 95.074 148.413 94.9818 148.645 94.808L147.445 93.208C147.497 93.169 147.561 93.1336 147.636 93.1088C147.71 93.084 147.782 93.074 147.847 93.074V95.074ZM148.752 94.7151C148.972 94.4958 149.133 94.1842 149.133 93.81H147.133C147.133 93.709 147.154 93.6052 147.197 93.5084C147.239 93.4138 147.293 93.3456 147.338 93.3009L148.752 94.7151ZM149.133 93.81V84.35H147.133V93.81H149.133ZM149.133 84.35C149.133 83.9619 148.956 83.6068 148.645 83.374L147.445 84.974C147.365 84.914 147.279 84.8234 147.217 84.6982C147.154 84.573 147.133 84.4501 147.133 84.35H149.133ZM148.752 83.4669C148.533 83.2475 148.221 83.086 147.847 83.086V85.086C147.746 85.086 147.642 85.0649 147.546 85.0218C147.451 84.9798 147.383 84.9258 147.338 84.8811L148.752 83.4669ZM147.847 83.086H138.387V85.086H147.847V83.086ZM138.387 83.086C138.013 83.086 137.701 83.2475 137.482 83.4669L138.896 84.8811C138.852 84.9258 138.783 84.9798 138.689 85.0218C138.592 85.0649 138.488 85.086 138.387 85.086V83.086ZM137.482 83.4669C137.217 83.7316 137.123 84.0624 137.123 84.35H139.123C139.123 84.4132 139.114 84.5018 139.076 84.6021C139.037 84.7055 138.976 84.8015 138.896 84.8811L137.482 83.4669ZM137.123 84.35V93.81H139.123V84.35H137.123ZM137.123 93.81C137.123 94.0997 137.215 94.3762 137.389 94.608L138.989 93.408C139.028 93.46 139.064 93.5239 139.088 93.5983C139.113 93.6726 139.123 93.745 139.123 93.81H137.123ZM137.589 94.808C137.821 94.9818 138.098 95.074 138.387 95.074V93.074C138.452 93.074 138.525 93.084 138.599 93.1088C138.673 93.1336 138.737 93.169 138.789 93.208L137.589 94.808ZM154.934 96.582L154.411 97.4347L154.423 97.4419L154.934 96.582ZM153.834 95.482L152.974 95.9926L152.981 96.0046L153.834 95.482ZM153.416 92.732V91.732H152.416V92.732H153.416ZM156.32 92.732H157.32V91.732H156.32V92.732ZM156.386 94.008L155.586 94.608L155.672 94.7223L155.786 94.808L156.386 94.008ZM166.242 94.008L166.949 94.7151L166.242 94.008ZM166.242 90.62L165.535 91.3271L165.585 91.3774L165.642 91.42L166.242 90.62ZM154.934 90.136L154.411 90.9887L154.423 90.9959L154.934 90.136ZM153.834 89.036L152.974 89.5466L152.981 89.5586L153.834 89.036ZM153.834 82.7L154.687 83.2226L154.694 83.2105L153.834 82.7ZM154.934 81.578L154.423 80.7181L154.411 80.7254L154.934 81.578ZM167.716 81.578L167.193 82.4307L167.205 82.4379L167.716 81.578ZM168.838 82.7L167.978 83.2106L167.985 83.2226L168.838 82.7ZM169.256 85.428V86.428H170.256V85.428H169.256ZM166.33 85.428H165.33V86.428H166.33V85.428ZM166.242 84.174L165.442 84.774L165.528 84.8883L165.642 84.974L166.242 84.174ZM156.386 84.174L157.093 84.8811L157.093 84.8811L156.386 84.174ZM156.386 87.54L155.679 88.2471L155.729 88.2974L155.786 88.34L156.386 87.54ZM167.716 88.024L167.193 88.8767L167.205 88.8839L167.716 88.024ZM168.838 89.146L167.978 89.6566L167.985 89.6686L168.838 89.146ZM168.838 95.482L169.691 96.0046L169.698 95.9925L168.838 95.482ZM167.716 96.582L167.205 95.7221L167.193 95.7294L167.716 96.582ZM156.474 96C156.092 96 155.756 95.9071 155.445 95.7221L154.423 97.4419C155.051 97.8143 155.741 98 156.474 98V96ZM155.457 95.7294C155.136 95.5332 154.883 95.2796 154.687 94.9594L152.981 96.0046C153.343 96.5937 153.822 97.0735 154.411 97.4346L155.457 95.7294ZM154.694 94.9715C154.509 94.66 154.416 94.3236 154.416 93.942H152.416C152.416 94.675 152.602 95.3653 152.974 95.9925L154.694 94.9715ZM154.416 93.942V92.732H152.416V93.942H154.416ZM153.416 93.732H156.32V91.732H153.416V93.732ZM155.32 92.732V93.81H157.32V92.732H155.32ZM155.32 93.81C155.32 94.0997 155.412 94.3762 155.586 94.608L157.186 93.408C157.225 93.46 157.26 93.5239 157.285 93.5983C157.31 93.6726 157.32 93.745 157.32 93.81H155.32ZM155.786 94.808C156.018 94.9818 156.294 95.074 156.584 95.074V93.074C156.649 93.074 156.721 93.084 156.796 93.1088C156.87 93.1336 156.934 93.169 156.986 93.208L155.786 94.808ZM156.584 95.074H166.066V93.074H156.584V95.074ZM166.066 95.074C166.354 95.074 166.684 94.9798 166.949 94.7151L165.535 93.3009C165.615 93.2212 165.711 93.1599 165.814 93.1212C165.914 93.0836 166.003 93.074 166.066 93.074V95.074ZM166.949 94.7151C167.168 94.4958 167.33 94.1842 167.33 93.81H165.33C165.33 93.709 165.351 93.6052 165.394 93.5084C165.436 93.4138 165.49 93.3456 165.535 93.3009L166.949 94.7151ZM167.33 93.81V90.796H165.33V93.81H167.33ZM167.33 90.796C167.33 90.4079 167.152 90.0529 166.842 89.82L165.642 91.42C165.562 91.36 165.476 91.2694 165.414 91.1442C165.351 91.019 165.33 90.8961 165.33 90.796H167.33ZM166.949 89.9129C166.684 89.6482 166.354 89.554 166.066 89.554V91.554C166.003 91.554 165.914 91.5444 165.814 91.5068C165.711 91.4681 165.615 91.4068 165.535 91.3271L166.949 89.9129ZM166.066 89.554H156.474V91.554H166.066V89.554ZM156.474 89.554C156.092 89.554 155.756 89.4611 155.445 89.2761L154.423 90.9959C155.051 91.3683 155.741 91.554 156.474 91.554V89.554ZM155.457 89.2834C155.136 89.0872 154.883 88.8336 154.687 88.5134L152.981 89.5586C153.343 90.1477 153.822 90.6275 154.411 90.9886L155.457 89.2834ZM154.694 88.5255C154.511 88.2182 154.416 87.8753 154.416 87.474H152.416C152.416 88.2167 152.599 88.9152 152.974 89.5465L154.694 88.5255ZM154.416 87.474V84.218H152.416V87.474H154.416ZM154.416 84.218C154.416 83.8364 154.509 83.5127 154.687 83.2226L152.981 82.1774C152.602 82.7966 152.416 83.4849 152.416 84.218H154.416ZM154.694 83.2105C154.892 82.8775 155.144 82.6223 155.457 82.4306L154.411 80.7254C153.815 81.091 153.334 81.5838 152.974 82.1895L154.694 83.2105ZM155.445 82.4379C155.756 82.2529 156.092 82.16 156.474 82.16V80.16C155.741 80.16 155.051 80.3457 154.423 80.7181L155.445 82.4379ZM156.474 82.16H166.198V80.16H156.474V82.16ZM166.198 82.16C166.58 82.16 166.903 82.2528 167.193 82.4306L168.239 80.7254C167.619 80.3459 166.931 80.16 166.198 80.16V82.16ZM167.205 82.4379C167.531 82.6311 167.785 82.885 167.978 83.2105L169.698 82.1895C169.334 81.5763 168.84 81.0822 168.227 80.7181L167.205 82.4379ZM167.985 83.2226C168.163 83.5127 168.256 83.8364 168.256 84.218H170.256C170.256 83.4849 170.07 82.7966 169.691 82.1774L167.985 83.2226ZM168.256 84.218V85.428H170.256V84.218H168.256ZM169.256 84.428H166.33V86.428H169.256V84.428ZM167.33 85.428V84.35H165.33V85.428H167.33ZM167.33 84.35C167.33 83.9619 167.152 83.6068 166.842 83.374L165.642 84.974C165.562 84.914 165.476 84.8234 165.414 84.6982C165.351 84.573 165.33 84.4501 165.33 84.35H167.33ZM167.042 83.574C166.809 83.2635 166.454 83.086 166.066 83.086V85.086C165.966 85.086 165.843 85.065 165.718 85.0024C165.593 84.9398 165.502 84.854 165.442 84.774L167.042 83.574ZM166.066 83.086H156.584V85.086H166.066V83.086ZM156.584 83.086C156.21 83.086 155.898 83.2475 155.679 83.4669L157.093 84.8811C157.048 84.9258 156.98 84.9798 156.886 85.0218C156.789 85.0649 156.685 85.086 156.584 85.086V83.086ZM155.679 83.4669C155.414 83.7316 155.32 84.0624 155.32 84.35H157.32C157.32 84.4132 157.31 84.5018 157.273 84.6021C157.234 84.7055 157.173 84.8015 157.093 84.8811L155.679 83.4669ZM155.32 84.35V87.364H157.32V84.35H155.32ZM155.32 87.364C155.32 87.6516 155.414 87.9824 155.679 88.2471L157.093 86.8329C157.173 86.9126 157.234 87.0085 157.273 87.1119C157.31 87.2122 157.32 87.3008 157.32 87.364H155.32ZM155.786 88.34C156.018 88.5138 156.294 88.606 156.584 88.606V86.606C156.649 86.606 156.721 86.616 156.796 86.6408C156.87 86.6656 156.934 86.701 156.986 86.74L155.786 88.34ZM156.584 88.606H166.198V86.606H156.584V88.606ZM166.198 88.606C166.58 88.606 166.903 88.6988 167.193 88.8766L168.239 87.1714C167.619 86.7919 166.931 86.606 166.198 86.606V88.606ZM167.205 88.8839C167.531 89.0771 167.785 89.331 167.978 89.6565L169.698 88.6355C169.334 88.0223 168.84 87.5282 168.227 87.1641L167.205 88.8839ZM167.985 89.6686C168.161 89.9545 168.256 90.2845 168.256 90.686H170.256C170.256 89.9435 170.073 89.2468 169.691 88.6234L167.985 89.6686ZM168.256 90.686V93.942H170.256V90.686H168.256ZM168.256 93.942C168.256 94.3236 168.163 94.66 167.978 94.9715L169.698 95.9925C170.07 95.3653 170.256 94.675 170.256 93.942H168.256ZM167.985 94.9594C167.794 95.2722 167.538 95.5244 167.205 95.7221L168.227 97.4419C168.832 97.0823 169.325 96.6011 169.691 96.0046L167.985 94.9594ZM167.193 95.7294C166.903 95.9072 166.58 96 166.198 96V98C166.931 98 167.619 97.8141 168.239 97.4346L167.193 95.7294ZM166.198 96H156.474V98H166.198V96ZM171.702 97H170.702V98H171.702V97ZM171.702 81.16V80.16H170.702V81.16H171.702ZM186.288 81.16H187.288V80.16H186.288V81.16ZM186.288 84.086V85.086H187.288V84.086H186.288ZM174.628 84.086V83.086H173.628V84.086H174.628ZM174.628 87.606H173.628V88.606H174.628V87.606ZM184 87.606H185V86.606H184V87.606ZM184 90.554V91.554H185V90.554H184ZM174.628 90.554V89.554H173.628V90.554H174.628ZM174.628 94.074H173.628V95.074H174.628V94.074ZM186.288 94.074H187.288V93.074H186.288V94.074ZM186.288 97V98H187.288V97H186.288ZM172.702 97V81.16H170.702V97H172.702ZM171.702 82.16H186.288V80.16H171.702V82.16ZM185.288 81.16V84.086H187.288V81.16H185.288ZM186.288 83.086H174.628V85.086H186.288V83.086ZM173.628 84.086V87.606H175.628V84.086H173.628ZM174.628 88.606H184V86.606H174.628V88.606ZM183 87.606V90.554H185V87.606H183ZM184 89.554H174.628V91.554H184V89.554ZM173.628 90.554V94.074H175.628V90.554H173.628ZM174.628 95.074H186.288V93.074H174.628V95.074ZM185.288 94.074V97H187.288V94.074H185.288ZM186.288 96H171.702V98H186.288V96Z" fill="#4E4E4E" mask="url(#path-8-outside-1_6261_4066)"/>
</g>
<defs>
<filter id="filter0_d_6261_4066" x="22.7988" y="64.3789" width="196.459" height="69" filterUnits="userSpaceOnUse" color-interpolation-filters="sRGB">
<feFlood flood-opacity="0" result="BackgroundImageFix"/>
<feColorMatrix in="SourceAlpha" type="matrix" values="0 0 0 0 0 0 0 0 0 0 0 0 0 0 0 0 0 0 127 0" result="hardAlpha"/>
<feOffset dy="3"/>
<feComposite in2="hardAlpha" operator="out"/>
<feColorMatrix type="matrix" values="0 0 0 0 0.827451 0 0 0 0 0.847059 0 0 0 0 1 0 0 0 1 0"/>
<feBlend mode="normal" in2="BackgroundImageFix" result="effect1_dropShadow_6261_4066"/>
<feBlend mode="normal" in="SourceGraphic" in2="effect1_dropShadow_6261_4066" result="shape"/>
</filter>
<filter id="filter1_d_6261_4066" x="56.0879" y="81.1387" width="130.2" height="17.8613" filterUnits="userSpaceOnUse" color-interpolation-filters="sRGB">
<feFlood flood-opacity="0" result="BackgroundImageFix"/>
<feColorMatrix in="SourceAlpha" type="matrix" values="0 0 0 0 0 0 0 0 0 0 0 0 0 0 0 0 0 0 127 0" result="hardAlpha"/>
<feOffset dy="2"/>
<feComposite in2="hardAlpha" operator="out"/>
<feColorMatrix type="matrix" values="0 0 0 0 0.533382 0 0 0 0 0.513679 0 0 0 0 0.507451 0 0 0 1 0"/>
<feBlend mode="normal" in2="BackgroundImageFix" result="effect1_dropShadow_6261_4066"/>
<feBlend mode="normal" in="SourceGraphic" in2="effect1_dropShadow_6261_4066" result="shape"/>
</filter>
<radialGradient id="paint0_radial_6261_4066" cx="0" cy="0" r="1" gradientUnits="userSpaceOnUse" gradientTransform="translate(123.486 65.1822) rotate(89.8427) scale(54.4633 123.309)">
<stop stop-color="#9C9C9C"/>
<stop offset="1" stop-color="#4E4E4E" stop-opacity="0"/>
</radialGradient>
<linearGradient id="paint1_linear_6261_4066" x1="41.0286" y1="81.3789" x2="41.0286" y2="130.379" gradientUnits="userSpaceOnUse">
<stop stop-color="#B4B4B4"/>
<stop offset="1" stop-color="#4E4E4E"/>
</linearGradient>
<linearGradient id="paint2_linear_6261_4066" x1="201.029" y1="81.3789" x2="201.029" y2="130.379" gradientUnits="userSpaceOnUse">
<stop stop-color="#B4B4B4"/>
<stop offset="1" stop-color="#4E4E4E"/>
</linearGradient>
<linearGradient id="paint3_linear_6261_4066" x1="120.529" y1="64.3789" x2="120.529" y2="115.379" gradientUnits="userSpaceOnUse">
<stop stop-color="#B4B4B4"/>
<stop offset="1" stop-color="#4E4E4E"/>
</linearGradient>
</defs>
</svg>
