<svg width="24" height="24" viewBox="0 0 24 24" fill="none" xmlns="http://www.w3.org/2000/svg">
<path d="M12 3.25C6.41 3.25 2 6.07 2 9.71V14.29C2 17.91 6.39 20.75 12 20.75C17.61 20.75 22 17.91 22 14.29V9.72C22 6.09 17.57 3.25 12 3.25ZM12 6.12C15.69 6.12 18.47 7.67 18.47 9.72C18.4527 10.3336 18.2066 10.9186 17.78 11.36C16.78 12.54 14.52 13.29 12 13.29C9.48 13.29 7.25 12.54 6.19 11.29C5.77635 10.8548 5.54086 10.2803 5.53 9.68C5.49 7.67 8.27 6.12 12 6.12ZM20.5 14.29C20.5 16.98 16.61 19.29 12 19.29C7.39 19.29 3.5 17.02 3.5 14.29V13.14C5.28 15.01 8.5 16.14 12 16.14C15.5 16.14 18.73 14.96 20.5 13.14V14.29Z" fill="white"/>
<path d="M16.93 9.70914C16.9163 9.95404 16.8131 10.1854 16.64 10.3591C16 11.0891 14.31 11.8091 11.96 11.8091C9.60999 11.8091 7.95999 11.0891 7.24999 10.3291C7.08885 10.1663 6.99586 9.94815 6.98999 9.71914C6.98999 8.71914 9.10999 7.61914 11.99 7.61914C14.87 7.61914 16.92 8.71914 16.93 9.70914Z" fill="white"/>
</svg>
