<svg width="23" height="22" viewBox="0 0 23 22" fill="none" xmlns="http://www.w3.org/2000/svg">
<g clip-path="url(#clip0_119_3568)">
<path fill-rule="evenodd" clip-rule="evenodd" d="M22.5 11C22.5 17.0741 17.5741 22 11.5 22C5.4259 22 0.5 17.0741 0.5 11C0.5 4.9259 5.4259 0 11.5 0C17.5741 0 22.5 4.9259 22.5 11Z" fill="#29296E"/>
<path fill-rule="evenodd" clip-rule="evenodd" d="M16.6543 8.06358L16.3738 7.20461C16.3212 7.02931 16.181 6.89784 16.0057 6.83648L15.1467 6.57354C15.024 6.53848 15.024 6.37194 15.1467 6.32812L16.0057 6.04764C16.181 5.99505 16.3125 5.85481 16.3738 5.67951L16.6368 4.82055C16.6718 4.69784 16.8384 4.69784 16.8822 4.82055L17.1627 5.67951C17.2152 5.85481 17.3555 5.98628 17.5308 6.04764L18.3897 6.31059C18.5125 6.34565 18.5125 6.51218 18.3897 6.55601L17.5308 6.83648C17.3555 6.88907 17.224 7.02931 17.1627 7.20461L16.8997 8.06358C16.8559 8.17752 16.6893 8.17752 16.6543 8.06358Z" fill="#FAFAFA"/>
<path fill-rule="evenodd" clip-rule="evenodd" d="M1.46484 10.8251C1.72779 10.3079 2.24492 9.9135 2.78835 9.66808C3.33178 9.42267 3.92779 9.27366 4.51504 9.22984C5.69831 9.12466 6.85528 9.31749 7.90707 9.66808C8.4505 9.83462 8.93257 10.0537 9.43217 10.2816C9.67759 10.3956 9.90548 10.5358 10.1421 10.6673L10.7907 11.0442C11.5095 11.4824 12.2019 11.8768 12.8505 12.1836C13.5079 12.4816 14.0951 12.692 14.6473 12.7972C15.1995 12.9023 15.7692 12.9023 16.4617 12.7446C17.1541 12.5868 17.9254 12.245 18.7405 11.8155C19.5557 11.3772 20.3971 10.8426 21.3525 10.3255C21.2561 11.4123 20.9493 12.4378 20.476 13.4282C19.9852 14.4012 19.3015 15.3565 18.3111 16.1278C17.3382 16.9079 15.9971 17.4426 14.6385 17.5302C13.2712 17.6266 11.9828 17.3199 10.8784 16.8641C9.77401 16.3996 8.80986 15.7948 7.96843 15.1286C7.73178 14.9446 7.60907 14.8394 7.43377 14.6904L6.9517 14.2609C6.62739 14.0067 6.31186 13.7 5.98755 13.4458C5.34771 12.8848 4.70787 12.3414 4.00668 11.8768C3.65608 11.6402 3.29672 11.4123 2.88476 11.2195C2.68317 11.1231 2.46405 11.0354 2.22739 10.9653C1.99074 10.8864 1.75409 10.8426 1.46484 10.8251Z" fill="#FF4F0A"/>
<path fill-rule="evenodd" clip-rule="evenodd" d="M1.46484 10.8418C1.59632 9.72861 2.11345 8.68559 2.94612 7.80033C3.77002 6.92383 5.06723 6.24017 6.49592 6.15252C7.20588 6.10869 7.9246 6.18758 8.58197 6.36288C9.23935 6.54694 9.85289 6.80989 10.4138 7.12543C10.6943 7.2832 10.9485 7.45849 11.2115 7.62503L11.9039 8.15092L12.982 9.00112C13.6832 9.55331 14.3493 10.0704 14.9629 10.4999C15.5852 10.9294 16.1111 11.2362 16.6194 11.4202C17.119 11.6218 17.7501 11.6657 18.5915 11.4553C19.0035 11.3589 19.4417 11.1836 19.9063 10.9908C20.3621 10.7979 20.8441 10.5613 21.37 10.3334C21.3087 10.8944 21.1947 11.4465 20.9756 11.9724C20.7652 12.4983 20.4935 13.0155 20.1166 13.4975C19.9238 13.7342 19.7134 13.9708 19.468 14.1812C19.2226 14.3916 18.9509 14.5932 18.6529 14.7685C18.0569 15.1103 17.3469 15.3645 16.6194 15.4609C15.8919 15.5485 15.1644 15.5047 14.4983 15.3645C13.8322 15.2242 13.2274 15.0051 12.6664 14.7509C11.5533 14.2338 10.6242 13.5852 9.8003 12.8928C9.38835 12.5509 9.00269 12.1916 8.63457 11.8234L8.20508 11.3852C8.07361 11.2625 7.94213 11.131 7.81066 11.0171C7.28476 10.5525 6.79393 10.1932 6.25927 9.97403C5.7246 9.73738 5.04094 9.64973 4.19951 9.8075C3.35807 9.97403 2.44652 10.3334 1.46484 10.8418Z" fill="#FAFAFA"/>
<path fill-rule="evenodd" clip-rule="evenodd" d="M5.93412 16.5667C5.93412 16.9085 5.66241 17.1802 5.32058 17.1802C4.97874 17.1802 4.70703 16.9085 4.70703 16.5667C4.70703 16.2248 4.97874 15.9531 5.32058 15.9531C5.66241 15.9531 5.93412 16.2248 5.93412 16.5667Z" fill="#FAFAFA"/>
<path fill-rule="evenodd" clip-rule="evenodd" d="M5.93412 16.5667C5.93412 16.9085 5.66241 17.1802 5.32058 17.1802C4.97874 17.1802 4.70703 16.9085 4.70703 16.5667C4.70703 16.2248 4.97874 15.9531 5.32058 15.9531C5.66241 15.9531 5.93412 16.2248 5.93412 16.5667Z" fill="#FAFAFA"/>
</g>
<defs>
<clipPath id="clip0_119_3568">
<rect width="22" height="22" fill="white" transform="translate(0.5)"/>
</clipPath>
</defs>
</svg>
