<svg width="303" height="83" viewBox="0 0 303 83" fill="none" xmlns="http://www.w3.org/2000/svg">
<path d="M98.4631 67.5407L93.1286 60.9422L99.5774 33.074L107.117 27.5752L115.913 44.3055L134.999 21.0937L123.357 69.3658L124.709 41.0062L112.072 57.3855L104.272 39.9065L98.4631 67.5407Z" fill="white"/>
<path d="M149.58 53.5247L145.454 37.3326L126.961 54.8116L149.58 53.5247ZM149.627 53.7587L122.172 62.1589L116.719 56.2858L147.967 27.5518L157.949 58.7427L153.491 68.8744L149.627 53.7587Z" fill="white"/>
<path d="M167.883 49.8511L193.536 38.3388L169.637 33.6824L167.883 49.8511ZM167.859 50.0148L166.271 64.6158L158.47 59.0937L164.682 30.3831L171.226 27.8092L201.834 34.6651L202.83 40.6553L179.666 48.7045L215.443 66.3239L167.859 50.0148Z" fill="white"/>
<path d="M222.058 55.3264L224.239 35.8819L199.345 54.952L222.058 55.3264ZM224.357 57.4557L220.54 69.0148L221.773 57.8769L194.389 62.1589L188.462 54.5777L228.08 27.0838L231.304 36.4902L225.045 55.3732L236.52 55.5604L224.357 57.4557Z" fill="white"/>
<path d="M253.164 57.4323L237.303 62.1589L230.119 55.6306L237.587 29.7513L245.032 25.0481L238.678 53.8757L246.786 55.4668L258.783 26.2649L253.164 57.4323Z" fill="white"/>
<path d="M261.059 67.1429L257.005 55.4434L263.264 24.4163L269.902 27.5752L261.059 67.1429Z" fill="white"/>
<path d="M303 33.6824L298.163 36.4902L297.049 34.4077L275.877 44.3055L301.886 48.7045L302.621 55.6774L266.465 66.4409L291.857 52.9865L266.583 48.0961L269.665 41.3806L301.008 26.8264L303 33.6824Z" fill="white"/>
<path d="M98.6254 11.0258V9.0528H106.093V11.0432C106.093 11.246 106.02 11.4198 105.873 11.5647C105.727 11.7037 105.553 11.7733 105.354 11.7733C105.148 11.7733 104.969 11.7008 104.816 11.556C104.67 11.4111 104.596 11.2402 104.596 11.0432V10.513H103.099V19.8565C103.099 20.0593 103.026 20.2331 102.879 20.378C102.732 20.517 102.559 20.5866 102.359 20.5866C102.148 20.5866 101.969 20.517 101.822 20.378C101.675 20.2331 101.602 20.0593 101.602 19.8565V10.513H100.105V11.0258C100.105 11.2286 100.032 11.4024 99.8847 11.5473C99.7438 11.6864 99.5706 11.7559 99.3651 11.7559C99.1596 11.7559 98.9835 11.6864 98.8367 11.5473C98.6958 11.4024 98.6254 11.2286 98.6254 11.0258Z" fill="white"/>
<path d="M109.51 19.8565V9.76551C109.51 9.5685 109.581 9.39756 109.722 9.2527C109.869 9.10784 110.045 9.03541 110.25 9.03541C110.45 9.03541 110.623 9.10784 110.77 9.2527C110.917 9.39756 110.99 9.5685 110.99 9.76551V14.0679H115.499V9.76551C115.499 9.5685 115.57 9.39756 115.71 9.2527C115.857 9.10784 116.033 9.03541 116.239 9.03541C116.444 9.03541 116.618 9.10784 116.758 9.2527C116.905 9.39756 116.979 9.57429 116.979 9.78289V19.8565C116.979 20.0535 116.902 20.2244 116.75 20.3693C116.603 20.5141 116.433 20.5866 116.239 20.5866C116.027 20.5866 115.851 20.517 115.71 20.378C115.57 20.2331 115.499 20.0593 115.499 19.8565V15.528H111.008V19.8565C111.008 20.0535 110.931 20.2244 110.779 20.3693C110.632 20.5141 110.456 20.5866 110.25 20.5866C110.051 20.5866 109.877 20.517 109.731 20.378C109.584 20.2331 109.51 20.0593 109.51 19.8565Z" fill="white"/>
<path d="M127.159 10.513H121.928V14.0679H124.182C124.382 14.0679 124.555 14.1403 124.702 14.2851C124.849 14.43 124.922 14.6009 124.922 14.7979C124.922 15.0065 124.849 15.1833 124.702 15.3281C124.561 15.473 124.388 15.5454 124.182 15.5454H121.928V19.1264H127.177C127.376 19.1264 127.55 19.1988 127.696 19.3437C127.843 19.4827 127.917 19.6537 127.917 19.8565C127.917 20.0593 127.84 20.2331 127.688 20.378C127.541 20.517 127.365 20.5866 127.159 20.5866H120.448V9.03541H127.159C127.365 9.03541 127.541 9.11074 127.688 9.26139C127.84 9.40625 127.917 9.58009 127.917 9.78289C127.917 9.9799 127.84 10.1508 127.688 10.2957C127.541 10.4406 127.365 10.513 127.159 10.513Z" fill="white"/>
<path d="M70.5823 69.177C62.6408 66.1572 62.6014 71.6443 61.3475 75.964C46.2531 71.3875 31.4978 66.0793 16.0723 68.9591C13.9587 66.6242 16.8609 63.5109 13.7616 62.3123C11.6796 61.4872 9.46355 60.9813 7.05034 60.2653C8.80899 54.28 10.2049 48.3103 12.342 42.6052C15.1259 35.18 15.4098 27.5681 15.1259 19.8549C15.0628 18.2983 15.1259 16.7417 15.1259 14.7258C22.3576 16.765 21.222 10.7564 23.0122 6.94261C38.2643 11.1378 53.1694 17.5278 70.3299 14.1265C68.2243 20.9835 72.6958 21.5517 77.5144 22.4C72.0413 37.3593 67.7669 52.3186 70.5823 69.177ZM16.23 67.5037H68.8237V15.761H16.23V67.5037Z" fill="url(#paint0_linear_806_3544)"/>
<path d="M0 41.1186L6.45099 35.0244C9.29005 39.7877 11.1276 44.5277 7.46832 49.9136C5.10243 47.1662 2.69711 44.302 0 41.1186Z" fill="url(#paint1_linear_806_3544)"/>
<path d="M42.0024 83L35.8826 76.3142C40.4803 73.7147 45.3462 71.8233 51.0322 75.5359L42.0024 83Z" fill="url(#paint2_linear_806_3544)"/>
<path d="M76.5759 32.6894L84.0757 41.1186L77.4039 46.9015C74.1311 42.4807 73.8157 39.274 76.5759 32.6894Z" fill="url(#paint3_linear_806_3544)"/>
<path d="M48.1537 6.56123C43.7453 9.12969 38.8952 10.9432 33.5956 7.49522L42.2469 0L48.1537 6.56123Z" fill="url(#paint4_linear_806_3544)"/>
<path d="M58.1298 49.4389C57.3885 48.6605 56.663 47.9367 55.9059 47.2051C54.3213 45.7659 52.8329 44.2268 51.4502 42.5974C49.9202 41.8191 48.7846 42.0993 48.0433 44.1541C47.2152 46.489 45.149 47.5008 42.6333 47.4308C40.1176 47.3607 38.6901 46.131 37.4362 44.1307C36.8211 43.1345 35.646 42.4651 34.7233 41.6712L34.6208 42.8076C32.7912 44.3642 30.9379 45.8119 29.1714 47.3919C28.6982 47.8122 28.1067 48.6761 28.2645 49.0653C28.6082 49.8195 29.2118 50.429 29.9679 50.7854C32.807 52.1474 34.258 54.747 33.5877 57.5956C33.2775 58.8725 32.5311 60.0049 31.4742 60.8023C30.7095 61.3851 29.8103 61.7716 28.8571 61.9273C27.904 62.083 26.9266 62.0031 26.0124 61.6946C25.0982 61.3861 24.2758 60.8588 23.6187 60.1598C22.9616 59.4608 22.4904 58.6119 22.2472 57.6891C21.9402 56.4689 22.046 55.1832 22.5487 54.028C23.0513 52.8728 23.9232 51.9117 25.0311 51.2913C25.8092 50.928 26.5978 50.6012 27.397 50.3106V47.7421L26.0563 47.2907C24.8642 46.9536 23.8189 46.2361 23.084 45.2503C22.3491 44.2644 21.9661 43.066 21.9949 41.8425C21.9949 39.3129 23.3355 37.515 25.733 36.3942C26.427 36.0751 27.3102 35.3124 27.3575 34.7208C27.4049 34.1293 26.5689 33.2576 25.8986 32.9229C22.8939 31.4285 21.5059 29.0313 22.192 26.2372C22.4689 24.9569 23.1835 23.8095 24.2159 22.9875C25.2483 22.1656 26.5358 21.7191 27.8623 21.7229C29.1929 21.7101 30.4895 22.1376 31.5452 22.9371C32.5897 23.7553 33.3211 24.8998 33.6193 26.1827C34.2265 29.008 32.8306 31.4052 29.8338 32.8684C29.4613 33.055 29.1301 33.3128 28.8593 33.6268C28.5885 33.9408 28.3837 34.3047 28.2566 34.6975C28.1698 35.0866 29.1793 35.7249 29.7077 36.2541C30.93 37.4683 32.1524 38.6747 33.3984 39.8577C33.9663 40.4181 34.6129 41.3132 35.2438 41.3288C35.6437 41.2588 36.0213 41.097 36.346 40.8563C36.6707 40.6156 36.9334 40.3029 37.1129 39.9434C38.2248 37.5072 39.8967 35.9973 42.7043 35.9739C45.5118 35.9506 47.436 37.445 48.4849 40.0445C48.647 40.3843 48.8917 40.6793 49.1971 40.9034C49.5025 41.1274 49.8593 41.2735 50.2357 41.3288C50.9454 41.2587 51.6315 40.5504 52.223 39.9823C53.5479 38.7603 54.8176 37.4839 56.0873 36.2074C56.7734 35.5303 57.4122 34.8065 58.4532 33.7324C56.8759 33.1798 56.0873 32.9541 55.2987 32.6194C54.1143 32.0688 53.1509 31.1426 52.5621 29.9887C51.984 28.8275 51.8171 27.5085 52.0881 26.2427C52.3591 24.9769 53.0524 23.8373 54.0571 23.0063C55.0618 22.1752 56.3198 21.7006 57.63 21.6584C58.9403 21.6163 60.2269 22.0089 61.2844 22.7736C62.3537 23.5547 63.1214 24.672 63.461 25.9414C63.8065 27.1585 63.7286 28.4549 63.2397 29.6232C62.7507 30.7914 61.879 31.7642 60.7639 32.3859C57.6094 34.2305 57.8065 34.7208 60.6692 36.869C62.1954 38.1578 63.2212 39.9294 63.5714 41.8814C63.9263 44.2163 62.3017 45.9909 60.0857 47.1273C59.7139 47.3189 59.3897 47.5891 59.1361 47.9188C58.8826 48.2484 58.7059 48.6293 58.6188 49.0341C58.7012 49.4346 58.8708 49.8125 59.1159 50.1418C59.361 50.471 59.6758 50.7438 60.0383 50.941C63.0193 52.6144 64.2654 54.9883 63.4373 57.798C63.0704 59.0795 62.2666 60.1967 61.1617 60.9611C60.0568 61.7254 58.7185 62.0899 57.3728 61.9932C56.0268 61.8947 54.7553 61.3455 53.7687 60.4365C52.7881 59.5245 52.1558 58.3068 51.9785 56.9886C51.6315 54.1243 53.264 51.7894 56.4106 50.6997C56.7419 50.583 57.1046 50.4974 57.4437 50.404L58.1298 49.4389Z" fill="url(#paint5_linear_806_3544)"/>
<defs>
<linearGradient id="paint0_linear_806_3544" x1="310.969" y1="12.1299" x2="251.946" y2="154.36" gradientUnits="userSpaceOnUse">
<stop offset="0.36" stop-color="#00ECFF"/>
<stop offset="1" stop-color="#FFEB81"/>
</linearGradient>
<linearGradient id="paint1_linear_806_3544" x1="358.354" y1="31.8463" x2="299.356" y2="174.145" gradientUnits="userSpaceOnUse">
<stop offset="0.36" stop-color="#00ECFF"/>
<stop offset="1" stop-color="#FFEB81"/>
</linearGradient>
<linearGradient id="paint2_linear_806_3544" x1="239.435" y1="-17.5293" x2="180.584" y2="124.61" gradientUnits="userSpaceOnUse">
<stop offset="0.36" stop-color="#00ECFF"/>
<stop offset="1" stop-color="#FFEB81"/>
</linearGradient>
<linearGradient id="paint3_linear_806_3544" x1="333.862" y1="21.5909" x2="274.812" y2="163.848" gradientUnits="userSpaceOnUse">
<stop offset="0.36" stop-color="#00ECFF"/>
<stop offset="1" stop-color="#FFEB81"/>
</linearGradient>
<linearGradient id="paint4_linear_806_3544" x1="290.033" y1="3.3689" x2="231.086" y2="145.606" gradientUnits="userSpaceOnUse">
<stop offset="0.36" stop-color="#00ECFF"/>
<stop offset="1" stop-color="#FFEB81"/>
</linearGradient>
<linearGradient id="paint5_linear_806_3544" x1="64.6515" y1="27.3112" x2="26.9459" y2="53.0666" gradientUnits="userSpaceOnUse">
<stop offset="0.36" stop-color="#00ECFF"/>
<stop offset="1" stop-color="#FFEB81"/>
</linearGradient>
</defs>
</svg>
