<svg width="23" height="17" viewBox="0 0 23 17" fill="none" xmlns="http://www.w3.org/2000/svg">
<path fill-rule="evenodd" clip-rule="evenodd" d="M15.485 4.89047C15.485 7.14225 13.6899 8.94781 11.4511 8.94781C9.21233 8.94781 7.4172 7.14225 7.4172 4.89047C7.4172 2.63782 9.21233 0.833984 11.4511 0.833984C13.6899 0.833984 15.485 2.63782 15.485 4.89047ZM11.4511 16.1677C8.16288 16.1677 5.3552 15.6464 5.3552 13.5612C5.3552 11.4752 8.14486 10.9349 11.4511 10.9349C14.7393 10.9349 17.547 11.4562 17.547 13.5422C17.547 15.6274 14.7573 16.1677 11.4511 16.1677ZM17.2088 4.96343C17.2088 6.11133 16.8664 7.18068 16.2657 8.06966C16.2039 8.16114 16.2588 8.28456 16.3678 8.30355C16.518 8.32944 16.6733 8.34412 16.8312 8.34843C18.4058 8.38986 19.8191 7.37056 20.2095 5.836C20.7879 3.5566 19.0897 1.51024 16.9273 1.51024C16.6922 1.51024 16.4674 1.53527 16.2486 1.58015C16.2185 1.58705 16.1868 1.60086 16.1696 1.62762C16.149 1.66041 16.1645 1.70443 16.1851 1.73291C16.8346 2.64864 17.2088 3.76547 17.2088 4.96343ZM19.8166 9.95C20.8746 10.158 21.5705 10.5826 21.8588 11.1997C22.1025 11.7064 22.1025 12.2941 21.8588 12.7999C21.4178 13.757 19.9959 14.0643 19.4433 14.1437C19.3292 14.161 19.2374 14.0617 19.2494 13.9469C19.5317 11.2947 17.2861 10.0372 16.7051 9.74804C16.6802 9.73509 16.6751 9.71524 16.6777 9.70316C16.6794 9.69452 16.6897 9.68072 16.7086 9.67813C17.9657 9.65482 19.3172 9.82744 19.8166 9.95ZM6.1688 8.34843C6.32669 8.34412 6.48114 8.33031 6.63217 8.30355C6.74115 8.28456 6.79606 8.16114 6.73428 8.06966C6.13362 7.18068 5.79124 6.11133 5.79124 4.96343C5.79124 3.76547 6.16536 2.64864 6.81494 1.73291C6.83554 1.70443 6.85012 1.66041 6.83039 1.62762C6.81323 1.60172 6.78062 1.58705 6.75144 1.58015C6.53177 1.53527 6.30695 1.51024 6.07183 1.51024C3.90943 1.51024 2.21127 3.5566 2.79048 5.836C3.18091 7.37056 4.59419 8.38986 6.1688 8.34843ZM6.32198 9.70229C6.32456 9.71524 6.31941 9.73423 6.29538 9.74804C5.7136 10.0372 3.46796 11.2947 3.75028 13.9461C3.76229 14.0617 3.67133 14.1601 3.55721 14.1437C3.00459 14.0643 1.58273 13.757 1.14167 12.7999C0.897113 12.2933 0.897113 11.7064 1.14167 11.1997C1.42999 10.5826 2.12505 10.158 3.18308 9.94913C3.68334 9.82744 5.03398 9.65482 6.29195 9.67813C6.31083 9.68072 6.32027 9.69453 6.32198 9.70229Z" fill="white"/>
</svg>
