<svg width="19" height="20" viewBox="0 0 19 20" fill="none" xmlns="http://www.w3.org/2000/svg">
<path d="M5.65789 11.1978C7.16957 11.1976 8.19875 12.9539 8.19875 14.4655C8.19875 15.1656 8.30882 15.838 8.51136 16.4637C8.83107 17.4514 8.37013 18.6675 7.33193 18.6675C4.36661 18.6675 2.17967 17.6665 0.842908 15.6461C0.555161 15.2112 0.400513 14.6904 0.400513 14.1563V13.2975C0.400513 12.138 1.27327 11.198 2.34987 11.198L5.65789 11.1978ZM13.833 9.33106C16.4661 9.33106 18.6005 11.6298 18.6005 14.4655C18.6005 17.3013 16.4661 19.6 13.833 19.6C11.2001 19.6 9.06556 17.3013 9.06556 14.4655C9.06556 11.6298 11.2001 9.33106 13.833 9.33106ZM13.833 16.5669C13.5341 16.5669 13.2917 16.8279 13.2917 17.1499C13.2917 17.4719 13.5341 17.7329 13.833 17.7329C14.132 17.7329 14.3744 17.4719 14.3744 17.1499C14.3744 16.8279 14.132 16.5669 13.833 16.5669ZM13.8331 11.0806C12.9247 11.0806 12.2171 11.8437 12.2266 12.905C12.2288 13.1628 12.4247 13.3697 12.6641 13.3673C12.9035 13.3648 13.0956 13.1538 13.0933 12.8961C13.0885 12.3555 13.4051 12.0141 13.8331 12.0141C14.2425 12.0141 14.5729 12.38 14.5729 12.9005C14.5729 13.08 14.5249 13.2201 14.3787 13.4247L14.2972 13.5329L14.2114 13.6386L13.9813 13.9094L13.8631 14.0562C13.5309 14.4825 13.3997 14.796 13.3997 15.2792C13.3997 15.537 13.5937 15.746 13.8331 15.746C14.0725 15.746 14.2665 15.537 14.2665 15.2792C14.2665 15.0895 14.3172 14.9441 14.4735 14.7281L14.5471 14.631L14.6347 14.5232L14.865 14.252L14.9817 14.1072C15.3096 13.6864 15.4397 13.3761 15.4397 12.9005C15.4397 11.8702 14.7268 11.0806 13.8331 11.0806ZM7.33193 0C9.72555 0 11.666 2.08979 11.666 4.6677C11.666 7.24559 9.72555 9.33536 7.33193 9.33536C4.93832 9.33536 2.99788 7.24559 2.99788 4.6677C2.99788 2.08979 4.93832 0 7.33193 0Z" fill="#E3E3E3"/>
</svg>
