<svg width="21" height="21" viewBox="0 0 21 21" fill="none" xmlns="http://www.w3.org/2000/svg">
<path d="M10.8768 20.155C16.4052 20.155 20.8869 15.6733 20.8869 10.1449C20.8869 4.61645 16.4052 0.134766 10.8768 0.134766C5.34838 0.134766 0.866699 4.61645 0.866699 10.1449C0.866699 15.6733 5.34838 20.155 10.8768 20.155Z" fill="url(#paint0_linear_6305_3663)"/>
<path d="M10.8763 18.1509C15.299 18.1509 18.8843 14.5656 18.8843 10.1429C18.8843 5.72011 15.299 2.13477 10.8763 2.13477C6.45351 2.13477 2.86816 5.72011 2.86816 10.1429C2.86816 14.5656 6.45351 18.1509 10.8763 18.1509Z" fill="url(#paint1_linear_6305_3663)"/>
<path d="M10.8779 16.7505C14.5267 16.7505 17.4846 13.7926 17.4846 10.1438C17.4846 6.49502 14.5267 3.53711 10.8779 3.53711C7.22915 3.53711 4.27124 6.49502 4.27124 10.1438C4.27124 13.7926 7.22915 16.7505 10.8779 16.7505Z" fill="url(#paint2_linear_6305_3663)"/>
<path d="M10.8779 15.3519C13.7527 15.3519 16.0831 13.0214 16.0831 10.1467C16.0831 7.27188 13.7527 4.94141 10.8779 4.94141C8.00308 4.94141 5.67261 7.27188 5.67261 10.1467C5.67261 13.0214 8.00308 15.3519 10.8779 15.3519Z" fill="url(#paint3_linear_6305_3663)"/>
<path d="M10.8766 14.3538C13.1986 14.3538 15.0809 12.4715 15.0809 10.1496C15.0809 7.82761 13.1986 5.94531 10.8766 5.94531C8.55467 5.94531 6.67236 7.82761 6.67236 10.1496C6.67236 12.4715 8.55467 14.3538 10.8766 14.3538Z" fill="url(#paint4_linear_6305_3663)"/>
<path d="M10.8766 12.7443C12.3139 12.7443 13.4792 11.5791 13.4792 10.1417C13.4792 8.70431 12.3139 7.53906 10.8766 7.53906C9.43916 7.53906 8.27393 8.70431 8.27393 10.1417C8.27393 11.5791 9.43916 12.7443 10.8766 12.7443Z" fill="url(#paint5_linear_6305_3663)"/>
<defs>
<linearGradient id="paint0_linear_6305_3663" x1="2.20805" y1="-125.993" x2="19.5456" y2="-125.993" gradientUnits="userSpaceOnUse">
<stop stop-color="white"/>
<stop offset="1" stop-color="#949494"/>
</linearGradient>
<linearGradient id="paint1_linear_6305_3663" x1="3.94926" y1="-125.995" x2="17.8133" y2="-125.995" gradientUnits="userSpaceOnUse">
<stop stop-color="#949494"/>
<stop offset="1" stop-color="white"/>
</linearGradient>
<linearGradient id="paint2_linear_6305_3663" x1="5.16214" y1="6.84045" x2="16.6037" y2="13.4471" gradientUnits="userSpaceOnUse">
<stop stop-color="white"/>
<stop offset="1" stop-color="#949494"/>
</linearGradient>
<linearGradient id="paint3_linear_6305_3663" x1="5.67261" y1="10.1467" x2="16.0831" y2="10.1467" gradientUnits="userSpaceOnUse">
<stop stop-color="#949494"/>
<stop offset="1" stop-color="white"/>
</linearGradient>
<linearGradient id="paint4_linear_6305_3663" x1="7.24294" y1="8.04743" x2="14.5203" y2="12.2517" gradientUnits="userSpaceOnUse">
<stop stop-color="white"/>
<stop offset="1" stop-color="#949494"/>
</linearGradient>
<linearGradient id="paint5_linear_6305_3663" x1="8.62428" y1="8.84038" x2="13.1288" y2="11.443" gradientUnits="userSpaceOnUse">
<stop stop-color="#949494"/>
<stop offset="0.1" stop-color="#AEAEAE"/>
<stop offset="0.23" stop-color="#C9C9C9"/>
<stop offset="0.38" stop-color="#DFDFDF"/>
<stop offset="0.54" stop-color="#EEEEEE"/>
<stop offset="0.72" stop-color="#F7F7F7"/>
<stop offset="1" stop-color="#FAFAFA"/>
</linearGradient>
</defs>
</svg>
