<svg width="248" height="134" viewBox="0 0 248 134" fill="none" xmlns="http://www.w3.org/2000/svg">
<path d="M0.596365 103.008L104.828 110.267L108.6 110.256L247.26 119.307L244.349 89.6073L153.361 96.9303L238.17 71.7056L211.2 38.2999L145.787 86.5771L192.344 18.4378L136.344 0.380452L126.454 86.6302L108.6 0.380458L60.344 12.3805L108.545 89.9802L38.5919 30.2859L18.3842 55.3333L104.792 97.0637L6.19014 79.4156L0.596365 103.008Z" fill="url(#paint0_radial_6261_3724)"/>
<g filter="url(#filter0_d_6261_3724)">
<path d="M27.1223 81.3789H61.344C63.5531 81.3789 65.344 83.1698 65.344 85.3789V126.379C65.344 128.588 63.5531 130.379 61.344 130.379H27.1223C23.5417 130.379 21.7648 126.035 24.3189 123.526L39.3752 108.732C40.9706 107.165 40.9706 104.593 39.3752 103.026L24.3189 88.2321C21.7648 85.7226 23.5417 81.3789 27.1223 81.3789Z" fill="url(#paint1_linear_6261_3724)"/>
<path d="M215.566 81.3789H181.344C179.135 81.3789 177.344 83.1698 177.344 85.3789V126.379C177.344 128.588 179.135 130.379 181.344 130.379H215.566C219.146 130.379 220.923 126.035 218.369 123.526L203.313 108.732C201.717 107.165 201.717 104.593 203.313 103.026L218.369 88.2321C220.923 85.7226 219.146 81.3789 215.566 81.3789Z" fill="url(#paint2_linear_6261_3724)"/>
<path d="M65.344 126.879V117.379V114.379H53.344V114.879L65.344 126.879Z" fill="#7A6A19"/>
<path d="M177.344 126.88V117.38V114.38L189.344 112.88C189.344 112.88 189.844 111.38 189.844 112.88L177.344 126.88Z" fill="#7A6A19"/>
<rect x="49.344" y="66.3789" width="143" height="51" rx="12" fill="#D3D8FF"/>
<rect x="49.344" y="64.3789" width="143" height="51" rx="12" fill="url(#paint3_linear_6261_3724)"/>
</g>
<mask id="path-8-outside-1_6261_3724" maskUnits="userSpaceOnUse" x="96.4666" y="19.3848" width="48" height="49" fill="black">
<rect fill="white" x="96.4666" y="19.3848" width="48" height="49"/>
<path fill-rule="evenodd" clip-rule="evenodd" d="M123.757 23.6145C122.29 20.6415 118.051 20.6415 116.584 23.6145L112.975 30.9253C112.393 32.1059 111.267 32.9242 109.964 33.1135L101.896 34.2858C99.2871 34.6649 97.9244 37.2915 98.6688 39.5151C98.225 40.8734 98.4899 42.4632 99.6789 43.6221L105.517 49.3128C106.007 49.7904 106.358 50.3774 106.552 51.0133L105.289 58.3752C105.176 59.0357 105.226 59.6645 105.401 60.2346L105.289 60.8887C104.729 64.1563 108.158 66.6482 111.093 65.1054L118.309 61.3116C119.474 60.699 120.867 60.699 122.032 61.3116L129.248 65.1054C132.183 66.6482 135.612 64.1563 135.052 60.8887L134.94 60.2346C135.115 59.6645 135.165 59.0357 135.052 58.3752L133.789 51.0133C133.983 50.3774 134.334 49.7904 134.824 49.3128L140.662 43.6221C141.851 42.4632 142.116 40.8734 141.672 39.5151C142.417 37.2915 141.054 34.6649 138.445 34.2858L130.377 33.1135C129.074 32.9242 127.948 32.1059 127.366 30.9253L123.757 23.6145Z"/>
</mask>
<path fill-rule="evenodd" clip-rule="evenodd" d="M123.757 23.6145C122.29 20.6415 118.051 20.6415 116.584 23.6145L112.975 30.9253C112.393 32.1059 111.267 32.9242 109.964 33.1135L101.896 34.2858C99.2871 34.6649 97.9244 37.2915 98.6688 39.5151C98.225 40.8734 98.4899 42.4632 99.6789 43.6221L105.517 49.3128C106.007 49.7904 106.358 50.3774 106.552 51.0133L105.289 58.3752C105.176 59.0357 105.226 59.6645 105.401 60.2346L105.289 60.8887C104.729 64.1563 108.158 66.6482 111.093 65.1054L118.309 61.3116C119.474 60.699 120.867 60.699 122.032 61.3116L129.248 65.1054C132.183 66.6482 135.612 64.1563 135.052 60.8887L134.94 60.2346C135.115 59.6645 135.165 59.0357 135.052 58.3752L133.789 51.0133C133.983 50.3774 134.334 49.7904 134.824 49.3128L140.662 43.6221C141.851 42.4632 142.116 40.8734 141.672 39.5151C142.417 37.2915 141.054 34.6649 138.445 34.2858L130.377 33.1135C129.074 32.9242 127.948 32.1059 127.366 30.9253L123.757 23.6145Z" fill="url(#paint4_linear_6261_3724)"/>
<path d="M116.584 23.6145L118.377 24.4996V24.4996L116.584 23.6145ZM123.757 23.6145L125.551 22.7294V22.7294L123.757 23.6145ZM112.975 30.9253L111.182 30.0402V30.0402L112.975 30.9253ZM109.964 33.1135L109.676 31.1343L109.964 33.1135ZM101.896 34.2858L102.183 36.2651H102.183L101.896 34.2858ZM98.6688 39.5151L100.57 40.1364L100.775 39.5075L100.565 38.8802L98.6688 39.5151ZM99.6789 43.6221L101.075 42.1899L99.6789 43.6221ZM105.517 49.3128L106.913 47.8806L106.913 47.8806L105.517 49.3128ZM106.552 51.0133L108.523 51.3513L108.603 50.8845L108.465 50.4313L106.552 51.0133ZM105.289 58.3752L107.26 58.7133L105.289 58.3752ZM105.401 60.2346L107.373 60.5727L107.453 60.102L107.313 59.6456L105.401 60.2346ZM105.289 60.8887L103.318 60.5506V60.5506L105.289 60.8887ZM111.093 65.1054L112.024 66.8757L111.093 65.1054ZM118.309 61.3116L117.378 59.5413L118.309 61.3116ZM122.032 61.3116L121.101 63.0819H121.101L122.032 61.3116ZM129.248 65.1054L128.317 66.8757L129.248 65.1054ZM135.052 60.8887L133.081 61.2268V61.2268L135.052 60.8887ZM134.94 60.2346L133.028 59.6456L132.888 60.102L132.968 60.5727L134.94 60.2346ZM135.052 58.3752L137.023 58.0371L135.052 58.3752ZM133.789 51.0133L131.876 50.4313L131.738 50.8845L131.818 51.3513L133.789 51.0133ZM134.824 49.3128L133.428 47.8806L134.824 49.3128ZM140.662 43.6221L142.058 45.0543V45.0543L140.662 43.6221ZM141.672 39.5151L139.776 38.8802L139.566 39.5075L139.771 40.1364L141.672 39.5151ZM138.445 34.2858L138.158 36.2651L138.445 34.2858ZM130.377 33.1135L130.09 35.0927L130.377 33.1135ZM127.366 30.9253L125.572 31.8105V31.8105L127.366 30.9253ZM118.377 24.4996C119.111 23.0131 121.23 23.0131 121.964 24.4996L125.551 22.7294C123.35 18.2699 116.991 18.2699 114.79 22.7294L118.377 24.4996ZM114.769 31.8105L118.377 24.4996L114.79 22.7294L111.182 30.0402L114.769 31.8105ZM110.251 35.0927C112.206 34.8087 113.895 33.5813 114.769 31.8105L111.182 30.0402C110.891 30.6305 110.328 31.0396 109.676 31.1343L110.251 35.0927ZM102.183 36.2651L110.251 35.0927L109.676 31.1343L101.608 32.3066L102.183 36.2651ZM100.565 38.8802C100.186 37.7475 100.902 36.4512 102.183 36.2651L101.608 32.3066C97.6719 32.8786 95.6626 36.8355 96.7723 40.1501L100.565 38.8802ZM101.075 42.1899C100.478 41.6085 100.342 40.8336 100.57 40.1364L96.7678 38.8939C96.1079 40.9133 96.5015 43.3179 98.2829 45.0543L101.075 42.1899ZM106.913 47.8806L101.075 42.1899L98.2829 45.0543L104.121 50.745L106.913 47.8806ZM108.465 50.4313C108.175 49.4778 107.648 48.597 106.913 47.8806L104.121 50.745C104.366 50.9838 104.542 51.277 104.638 51.5952L108.465 50.4313ZM107.26 58.7133L108.523 51.3513L104.581 50.6752L103.318 58.0371L107.26 58.7133ZM107.313 59.6456C107.229 59.3743 107.2 59.0631 107.26 58.7133L103.318 58.0371C103.151 59.0082 103.222 59.9546 103.49 60.8237L107.313 59.6456ZM107.26 61.2268L107.373 60.5727L103.43 59.8965L103.318 60.5506L107.26 61.2268ZM110.162 63.3351C108.695 64.1065 106.98 62.8606 107.26 61.2268L103.318 60.5506C102.477 65.452 107.622 69.1898 112.024 66.8757L110.162 63.3351ZM117.378 59.5413L110.162 63.3351L112.024 66.8757L119.24 63.0819L117.378 59.5413ZM122.963 59.5413C121.215 58.6224 119.126 58.6224 117.378 59.5413L119.24 63.0819C119.822 62.7756 120.519 62.7756 121.101 63.0819L122.963 59.5413ZM130.179 63.3351L122.963 59.5413L121.101 63.0819L128.317 66.8757L130.179 63.3351ZM133.081 61.2268C133.361 62.8606 131.646 64.1065 130.179 63.3351L128.317 66.8757C132.719 69.1898 137.864 65.452 137.023 60.5506L133.081 61.2268ZM132.968 60.5727L133.081 61.2268L137.023 60.5506L136.911 59.8965L132.968 60.5727ZM133.081 58.7133C133.141 59.0631 133.112 59.3743 133.028 59.6456L136.851 60.8237C137.119 59.9546 137.19 59.0082 137.023 58.0371L133.081 58.7133ZM131.818 51.3513L133.081 58.7133L137.023 58.0371L135.76 50.6752L131.818 51.3513ZM133.428 47.8806C132.693 48.597 132.166 49.4778 131.876 50.4313L135.703 51.5952C135.799 51.277 135.975 50.9838 136.22 50.745L133.428 47.8806ZM139.266 42.1899L133.428 47.8806L136.22 50.745L142.058 45.0543L139.266 42.1899ZM139.771 40.1364C139.999 40.8336 139.863 41.6085 139.266 42.1899L142.058 45.0543C143.84 43.3179 144.233 40.9133 143.573 38.8939L139.771 40.1364ZM138.158 36.2651C139.439 36.4512 140.155 37.7475 139.776 38.8802L143.569 40.1501C144.678 36.8355 142.669 32.8786 138.733 32.3066L138.158 36.2651ZM130.09 35.0927L138.158 36.2651L138.733 32.3066L130.665 31.1343L130.09 35.0927ZM125.572 31.8105C126.446 33.5813 128.135 34.8087 130.09 35.0927L130.665 31.1343C130.013 31.0396 129.45 30.6305 129.159 30.0402L125.572 31.8105ZM121.964 24.4996L125.572 31.8105L129.159 30.0402L125.551 22.7294L121.964 24.4996Z" fill="white" mask="url(#path-8-outside-1_6261_3724)"/>
<g filter="url(#filter1_d_6261_3724)">
<path d="M116.757 23.6468C118.224 20.6739 122.464 20.6739 123.931 23.6468L127.539 30.9577C128.122 32.1382 129.248 32.9565 130.551 33.1458L138.619 34.3182C141.9 34.7949 143.21 38.8268 140.836 41.141L134.998 46.8316C134.055 47.7506 133.625 49.0746 133.847 50.3722L135.225 58.4075C135.786 61.6752 132.356 64.167 129.422 62.6242L122.205 58.8305C121.04 58.2178 119.648 58.2178 118.483 58.8305L111.266 62.6242C108.332 64.167 104.902 61.6752 105.463 58.4075L106.841 50.3722C107.063 49.0746 106.633 47.7506 105.69 46.8316L99.8523 41.141C97.4783 38.8268 98.7883 34.7949 102.069 34.3182L110.137 33.1458C111.44 32.9565 112.566 32.1382 113.149 30.9577L116.757 23.6468Z" fill="url(#paint5_linear_6261_3724)"/>
</g>
<mask id="path-11-outside-2_6261_3724" maskUnits="userSpaceOnUse" x="60.9187" y="36.3906" width="39" height="40" fill="black">
<rect fill="white" x="60.9187" y="36.3906" width="39" height="40"/>
<path fill-rule="evenodd" clip-rule="evenodd" d="M83.827 40.6204C82.3598 37.6474 78.1204 37.6474 76.6531 40.6204L74.3993 45.1871C73.8167 46.3677 72.6904 47.1859 71.3876 47.3753L66.3479 48.1076C63.8198 48.4749 62.4619 50.9531 63.058 53.1298C62.7069 54.439 63.0034 55.9257 64.131 57.0249L67.7778 60.5796C68.3082 61.0967 68.6764 61.7419 68.8573 62.4386L68.0673 67.0449C67.9643 67.6452 67.996 68.2193 68.1346 68.747L68.0673 69.1395C67.5068 72.4071 70.9366 74.8989 73.8711 73.3562L78.3787 70.9864C79.544 70.3737 80.9362 70.3737 82.1014 70.9864L86.6091 73.3562C89.5436 74.8989 92.9733 72.4071 92.4129 69.1395L92.3456 68.747C92.4841 68.2193 92.5158 67.6452 92.4129 67.0449L91.6228 62.4386C91.8038 61.7419 92.172 61.0967 92.7024 60.5796L96.3491 57.0249C97.4768 55.9257 97.7733 54.439 97.4222 53.1298C98.0183 50.9531 96.6604 48.4749 94.1323 48.1076L89.0926 47.3753C87.7898 47.1859 86.6635 46.3677 86.0808 45.1871L83.827 40.6204Z"/>
</mask>
<path fill-rule="evenodd" clip-rule="evenodd" d="M83.827 40.6204C82.3598 37.6474 78.1204 37.6474 76.6531 40.6204L74.3993 45.1871C73.8167 46.3677 72.6904 47.1859 71.3876 47.3753L66.3479 48.1076C63.8198 48.4749 62.4619 50.9531 63.058 53.1298C62.7069 54.439 63.0034 55.9257 64.131 57.0249L67.7778 60.5796C68.3082 61.0967 68.6764 61.7419 68.8573 62.4386L68.0673 67.0449C67.9643 67.6452 67.996 68.2193 68.1346 68.747L68.0673 69.1395C67.5068 72.4071 70.9366 74.8989 73.8711 73.3562L78.3787 70.9864C79.544 70.3737 80.9362 70.3737 82.1014 70.9864L86.6091 73.3562C89.5436 74.8989 92.9733 72.4071 92.4129 69.1395L92.3456 68.747C92.4841 68.2193 92.5158 67.6452 92.4129 67.0449L91.6228 62.4386C91.8038 61.7419 92.172 61.0967 92.7024 60.5796L96.3491 57.0249C97.4768 55.9257 97.7733 54.439 97.4222 53.1298C98.0183 50.9531 96.6604 48.4749 94.1323 48.1076L89.0926 47.3753C87.7898 47.1859 86.6635 46.3677 86.0808 45.1871L83.827 40.6204Z" fill="url(#paint6_linear_6261_3724)"/>
<path d="M76.6531 40.6204L78.4466 41.5055V41.5055L76.6531 40.6204ZM83.827 40.6204L82.0336 41.5055V41.5055L83.827 40.6204ZM74.3993 45.1871L76.1928 46.0722L74.3993 45.1871ZM71.3876 47.3753L71.1 45.396L71.3876 47.3753ZM66.3479 48.1076L66.6355 50.0868L66.3479 48.1076ZM63.058 53.1298L64.9898 53.6478L65.1302 53.1243L64.987 52.6015L63.058 53.1298ZM64.131 57.0249L62.735 58.4571H62.735L64.131 57.0249ZM67.7778 60.5796L69.1738 59.1474L67.7778 60.5796ZM68.8573 62.4386L70.8285 62.7767L70.9013 62.3524L70.7931 61.9358L68.8573 62.4386ZM68.0673 67.0449L66.0961 66.7068V66.7068L68.0673 67.0449ZM68.1346 68.747L70.1058 69.0851L70.179 68.6581L70.069 68.2391L68.1346 68.747ZM68.0673 69.1395L66.0961 68.8014H66.0961L68.0673 69.1395ZM73.8711 73.3562L72.9404 71.5859L73.8711 73.3562ZM78.3787 70.9864L79.3094 72.7566L79.3094 72.7566L78.3787 70.9864ZM82.1014 70.9864L81.1708 72.7566H81.1708L82.1014 70.9864ZM86.6091 73.3562L87.5398 71.5859H87.5398L86.6091 73.3562ZM92.4129 69.1395L94.3841 68.8014V68.8014L92.4129 69.1395ZM92.3456 68.747L90.4111 68.2391L90.3011 68.6581L90.3744 69.0851L92.3456 68.747ZM92.4129 67.0449L90.4417 67.383V67.383L92.4129 67.0449ZM91.6228 62.4386L89.6871 61.9358L89.5789 62.3524L89.6516 62.7767L91.6228 62.4386ZM92.7024 60.5796L94.0984 62.0118L94.0984 62.0118L92.7024 60.5796ZM96.3491 57.0249L94.9531 55.5927L96.3491 57.0249ZM97.4222 53.1298L95.4932 52.6015L95.35 53.1243L95.4904 53.6478L97.4222 53.1298ZM94.1323 48.1076L94.4199 46.1284H94.4199L94.1323 48.1076ZM89.0926 47.3753L89.3802 45.396L89.0926 47.3753ZM86.0808 45.1871L87.8743 44.302V44.302L86.0808 45.1871ZM78.4466 41.5055C79.1802 40.019 81.2999 40.019 82.0336 41.5055L85.6205 39.7352C83.4196 35.2757 77.0605 35.2758 74.8597 39.7352L78.4466 41.5055ZM76.1928 46.0722L78.4466 41.5055L74.8597 39.7352L72.6058 44.302L76.1928 46.0722ZM71.6752 49.3545C73.6294 49.0705 75.3188 47.8431 76.1928 46.0722L72.6058 44.302C72.3145 44.8922 71.7514 45.3014 71.1 45.396L71.6752 49.3545ZM66.6355 50.0868L71.6752 49.3545L71.1 45.396L66.0603 46.1284L66.6355 50.0868ZM64.987 52.6015C64.6816 51.4866 65.3947 50.2671 66.6355 50.0868L66.0603 46.1284C62.2449 46.6828 60.2422 50.4197 61.129 53.6581L64.987 52.6015ZM65.5271 55.5927C64.9589 55.0389 64.8108 54.3153 64.9898 53.6478L61.1263 52.6117C60.6031 54.5627 61.0479 56.8125 62.735 58.4571L65.5271 55.5927ZM69.1738 59.1474L65.5271 55.5927L62.735 58.4571L66.3818 62.0118L69.1738 59.1474ZM70.7931 61.9358C70.5218 60.8912 69.9695 59.923 69.1738 59.1474L66.3818 62.0118C66.6469 62.2703 66.831 62.5926 66.9216 62.9414L70.7931 61.9358ZM70.0385 67.383L70.8285 62.7767L66.8861 62.1005L66.0961 66.7068L70.0385 67.383ZM70.069 68.2391C70.003 67.9875 69.9838 67.7018 70.0385 67.383L66.0961 66.7068C65.9448 67.5885 65.9891 68.4511 66.2002 69.2549L70.069 68.2391ZM70.0385 69.4776L70.1058 69.0851L66.1634 68.4089L66.0961 68.8014L70.0385 69.4776ZM72.9404 71.5859C71.4731 72.3573 69.7583 71.1114 70.0385 69.4776L66.0961 68.8014C65.2554 73.7028 70.4 77.4406 74.8018 75.1264L72.9404 71.5859ZM77.448 69.2161L72.9404 71.5859L74.8018 75.1264L79.3094 72.7566L77.448 69.2161ZM83.0321 69.2161C81.2842 68.2972 79.196 68.2971 77.448 69.2161L79.3094 72.7566C79.892 72.4503 80.5881 72.4503 81.1708 72.7566L83.0321 69.2161ZM87.5398 71.5859L83.0321 69.2161L81.1708 72.7566L85.6784 75.1264L87.5398 71.5859ZM90.4417 69.4775C90.7219 71.1114 89.007 72.3573 87.5398 71.5859L85.6784 75.1264C90.0802 77.4406 95.2248 73.7028 94.3841 68.8014L90.4417 69.4775ZM90.3744 69.0851L90.4417 69.4775L94.3841 68.8014L94.3168 68.4089L90.3744 69.0851ZM90.4417 67.383C90.4963 67.7018 90.4772 67.9875 90.4111 68.2391L94.28 69.2549C94.4911 68.4511 94.5353 67.5885 94.3841 66.7068L90.4417 67.383ZM89.6516 62.7767L90.4417 67.383L94.3841 66.7068L93.5941 62.1005L89.6516 62.7767ZM91.3064 59.1474C90.5107 59.923 89.9584 60.8912 89.6871 61.9358L93.5586 62.9414C93.6492 62.5926 93.8332 62.2703 94.0984 62.0118L91.3064 59.1474ZM94.9531 55.5927L91.3064 59.1474L94.0984 62.0118L97.7452 58.4571L94.9531 55.5927ZM95.4904 53.6478C95.6694 54.3153 95.5213 55.0389 94.9531 55.5927L97.7452 58.4571C99.4323 56.8125 99.8771 54.5627 99.3539 52.6117L95.4904 53.6478ZM93.8447 50.0868C95.0855 50.2671 95.7985 51.4866 95.4932 52.6015L99.3511 53.6581C100.238 50.4197 98.2353 46.6828 94.4199 46.1284L93.8447 50.0868ZM88.805 49.3545L93.8447 50.0868L94.4199 46.1284L89.3802 45.396L88.805 49.3545ZM84.2874 46.0722C85.1613 47.8431 86.8507 49.0705 88.805 49.3545L89.3802 45.396C88.7288 45.3014 88.1656 44.8922 87.8743 44.302L84.2874 46.0722ZM82.0336 41.5055L84.2874 46.0722L87.8743 44.302L85.6205 39.7352L82.0336 41.5055Z" fill="white" mask="url(#path-11-outside-2_6261_3724)"/>
<g filter="url(#filter2_d_6261_3724)">
<path d="M76.7976 40.6469C78.2648 37.6739 82.5042 37.6739 83.9715 40.6468L86.2253 45.2136C86.8079 46.3942 87.9342 47.2124 89.237 47.4017L94.2767 48.1341C97.5576 48.6108 98.8677 52.6427 96.4936 54.9568L92.8468 58.5115C91.9041 59.4305 91.4739 60.7545 91.6965 62.0521L92.5573 67.0714C93.1178 70.339 89.688 72.8309 86.7535 71.2881L82.2459 68.9183C81.0806 68.3057 79.6885 68.3057 78.5232 68.9183L74.0155 71.2881C71.081 72.8309 67.6513 70.339 68.2117 67.0714L69.0726 62.0521C69.2952 60.7545 68.865 59.4305 67.9222 58.5115L64.2755 54.9568C61.9014 52.6427 63.2114 48.6108 66.4923 48.1341L71.532 47.4017C72.8349 47.2124 73.9611 46.3942 74.5438 45.2136L76.7976 40.6469Z" fill="url(#paint7_linear_6261_3724)"/>
</g>
<mask id="path-14-outside-3_6261_3724" maskUnits="userSpaceOnUse" x="139.919" y="36.3906" width="39" height="40" fill="black">
<rect fill="white" x="139.919" y="36.3906" width="39" height="40"/>
<path fill-rule="evenodd" clip-rule="evenodd" d="M162.827 40.6204C161.36 37.6474 157.12 37.6474 155.653 40.6204L153.399 45.1871C152.817 46.3677 151.69 47.1859 150.388 47.3753L145.348 48.1076C142.82 48.4749 141.462 50.9531 142.058 53.1298C141.707 54.439 142.003 55.9257 143.131 57.0249L146.778 60.5796C147.308 61.0967 147.676 61.7419 147.857 62.4386L147.067 67.0449C146.964 67.6452 146.996 68.2193 147.135 68.747L147.067 69.1395C146.507 72.4071 149.937 74.8989 152.871 73.3562L157.379 70.9864C158.544 70.3737 159.936 70.3737 161.101 70.9864L165.609 73.3562C168.544 74.8989 171.973 72.4071 171.413 69.1395L171.346 68.747C171.484 68.2193 171.516 67.6452 171.413 67.0449L170.623 62.4386C170.804 61.7419 171.172 61.0967 171.702 60.5796L175.349 57.0249C176.477 55.9257 176.773 54.439 176.422 53.1298C177.018 50.9531 175.66 48.4749 173.132 48.1076L168.093 47.3753C166.79 47.1859 165.663 46.3677 165.081 45.1871L162.827 40.6204Z"/>
</mask>
<path fill-rule="evenodd" clip-rule="evenodd" d="M162.827 40.6204C161.36 37.6474 157.12 37.6474 155.653 40.6204L153.399 45.1871C152.817 46.3677 151.69 47.1859 150.388 47.3753L145.348 48.1076C142.82 48.4749 141.462 50.9531 142.058 53.1298C141.707 54.439 142.003 55.9257 143.131 57.0249L146.778 60.5796C147.308 61.0967 147.676 61.7419 147.857 62.4386L147.067 67.0449C146.964 67.6452 146.996 68.2193 147.135 68.747L147.067 69.1395C146.507 72.4071 149.937 74.8989 152.871 73.3562L157.379 70.9864C158.544 70.3737 159.936 70.3737 161.101 70.9864L165.609 73.3562C168.544 74.8989 171.973 72.4071 171.413 69.1395L171.346 68.747C171.484 68.2193 171.516 67.6452 171.413 67.0449L170.623 62.4386C170.804 61.7419 171.172 61.0967 171.702 60.5796L175.349 57.0249C176.477 55.9257 176.773 54.439 176.422 53.1298C177.018 50.9531 175.66 48.4749 173.132 48.1076L168.093 47.3753C166.79 47.1859 165.663 46.3677 165.081 45.1871L162.827 40.6204Z" fill="url(#paint8_linear_6261_3724)"/>
<path d="M155.653 40.6204L157.447 41.5055V41.5055L155.653 40.6204ZM162.827 40.6204L161.034 41.5055V41.5055L162.827 40.6204ZM153.399 45.1871L155.193 46.0722L153.399 45.1871ZM150.388 47.3753L150.1 45.396L150.388 47.3753ZM145.348 48.1076L145.635 50.0868L145.348 48.1076ZM142.058 53.1298L143.99 53.6478L144.13 53.1243L143.987 52.6015L142.058 53.1298ZM143.131 57.0249L141.735 58.4571H141.735L143.131 57.0249ZM146.778 60.5796L148.174 59.1474L146.778 60.5796ZM147.857 62.4386L149.829 62.7767L149.901 62.3524L149.793 61.9358L147.857 62.4386ZM147.067 67.0449L145.096 66.7068V66.7068L147.067 67.0449ZM147.135 68.747L149.106 69.0851L149.179 68.6581L149.069 68.2391L147.135 68.747ZM147.067 69.1395L145.096 68.8014H145.096L147.067 69.1395ZM152.871 73.3562L151.94 71.5859L152.871 73.3562ZM157.379 70.9864L158.309 72.7566L158.309 72.7566L157.379 70.9864ZM161.101 70.9864L160.171 72.7566H160.171L161.101 70.9864ZM165.609 73.3562L166.54 71.5859H166.54L165.609 73.3562ZM171.413 69.1395L173.384 68.8014V68.8014L171.413 69.1395ZM171.346 68.747L169.411 68.2391L169.301 68.6581L169.374 69.0851L171.346 68.747ZM171.413 67.0449L169.442 67.383V67.383L171.413 67.0449ZM170.623 62.4386L168.687 61.9358L168.579 62.3524L168.652 62.7767L170.623 62.4386ZM171.702 60.5796L173.098 62.0118L173.098 62.0118L171.702 60.5796ZM175.349 57.0249L173.953 55.5927L175.349 57.0249ZM176.422 53.1298L174.493 52.6015L174.35 53.1243L174.49 53.6478L176.422 53.1298ZM173.132 48.1076L173.42 46.1284H173.42L173.132 48.1076ZM168.093 47.3753L168.38 45.396L168.093 47.3753ZM165.081 45.1871L166.874 44.302V44.302L165.081 45.1871ZM157.447 41.5055C158.18 40.019 160.3 40.019 161.034 41.5055L164.62 39.7352C162.42 35.2757 156.061 35.2758 153.86 39.7352L157.447 41.5055ZM155.193 46.0722L157.447 41.5055L153.86 39.7352L151.606 44.302L155.193 46.0722ZM150.675 49.3545C152.629 49.0705 154.319 47.8431 155.193 46.0722L151.606 44.302C151.315 44.8922 150.751 45.3014 150.1 45.396L150.675 49.3545ZM145.635 50.0868L150.675 49.3545L150.1 45.396L145.06 46.1284L145.635 50.0868ZM143.987 52.6015C143.682 51.4866 144.395 50.2671 145.635 50.0868L145.06 46.1284C141.245 46.6828 139.242 50.4197 140.129 53.6581L143.987 52.6015ZM144.527 55.5927C143.959 55.0389 143.811 54.3153 143.99 53.6478L140.126 52.6117C139.603 54.5627 140.048 56.8125 141.735 58.4571L144.527 55.5927ZM148.174 59.1474L144.527 55.5927L141.735 58.4571L145.382 62.0118L148.174 59.1474ZM149.793 61.9358C149.522 60.8912 148.969 59.923 148.174 59.1474L145.382 62.0118C145.647 62.2703 145.831 62.5926 145.922 62.9414L149.793 61.9358ZM149.038 67.383L149.829 62.7767L145.886 62.1005L145.096 66.7068L149.038 67.383ZM149.069 68.2391C149.003 67.9875 148.984 67.7018 149.038 67.383L145.096 66.7068C144.945 67.5885 144.989 68.4511 145.2 69.2549L149.069 68.2391ZM149.038 69.4776L149.106 69.0851L145.163 68.4089L145.096 68.8014L149.038 69.4776ZM151.94 71.5859C150.473 72.3573 148.758 71.1114 149.038 69.4776L145.096 68.8014C144.255 73.7028 149.4 77.4406 153.802 75.1264L151.94 71.5859ZM156.448 69.2161L151.94 71.5859L153.802 75.1264L158.309 72.7566L156.448 69.2161ZM162.032 69.2161C160.284 68.2972 158.196 68.2971 156.448 69.2161L158.309 72.7566C158.892 72.4503 159.588 72.4503 160.171 72.7566L162.032 69.2161ZM166.54 71.5859L162.032 69.2161L160.171 72.7566L164.678 75.1264L166.54 71.5859ZM169.442 69.4775C169.722 71.1114 168.007 72.3573 166.54 71.5859L164.678 75.1264C169.08 77.4406 174.225 73.7028 173.384 68.8014L169.442 69.4775ZM169.374 69.0851L169.442 69.4775L173.384 68.8014L173.317 68.4089L169.374 69.0851ZM169.442 67.383C169.496 67.7018 169.477 67.9875 169.411 68.2391L173.28 69.2549C173.491 68.4511 173.535 67.5885 173.384 66.7068L169.442 67.383ZM168.652 62.7767L169.442 67.383L173.384 66.7068L172.594 62.1005L168.652 62.7767ZM170.306 59.1474C169.511 59.923 168.958 60.8912 168.687 61.9358L172.559 62.9414C172.649 62.5926 172.833 62.2703 173.098 62.0118L170.306 59.1474ZM173.953 55.5927L170.306 59.1474L173.098 62.0118L176.745 58.4571L173.953 55.5927ZM174.49 53.6478C174.669 54.3153 174.521 55.0389 173.953 55.5927L176.745 58.4571C178.432 56.8125 178.877 54.5627 178.354 52.6117L174.49 53.6478ZM172.845 50.0868C174.085 50.2671 174.799 51.4866 174.493 52.6015L178.351 53.6581C179.238 50.4197 177.235 46.6828 173.42 46.1284L172.845 50.0868ZM167.805 49.3545L172.845 50.0868L173.42 46.1284L168.38 45.396L167.805 49.3545ZM163.287 46.0722C164.161 47.8431 165.851 49.0705 167.805 49.3545L168.38 45.396C167.729 45.3014 167.166 44.8922 166.874 44.302L163.287 46.0722ZM161.034 41.5055L163.287 46.0722L166.874 44.302L164.62 39.7352L161.034 41.5055Z" fill="white" mask="url(#path-14-outside-3_6261_3724)"/>
<g filter="url(#filter3_d_6261_3724)">
<path d="M155.798 40.6469C157.265 37.6739 161.504 37.6739 162.971 40.6468L165.225 45.2136C165.808 46.3942 166.934 47.2124 168.237 47.4017L173.277 48.1341C176.558 48.6108 177.868 52.6427 175.494 54.9568L171.847 58.5115C170.904 59.4305 170.474 60.7545 170.696 62.0521L171.557 67.0714C172.118 70.339 168.688 72.8309 165.754 71.2881L161.246 68.9183C160.081 68.3057 158.688 68.3057 157.523 68.9183L153.016 71.2881C150.081 72.8309 146.651 70.339 147.212 67.0714L148.073 62.0521C148.295 60.7545 147.865 59.4305 146.922 58.5115L143.275 54.9568C140.901 52.6427 142.211 48.6108 145.492 48.1341L150.532 47.4017C151.835 47.2124 152.961 46.3942 153.544 45.2136L155.798 40.6469Z" fill="url(#paint9_linear_6261_3724)"/>
</g>
<g filter="url(#filter4_d_6261_3724)">
<mask id="path-17-outside-4_6261_3724" maskUnits="userSpaceOnUse" x="64.3154" y="84" width="117" height="18" fill="black">
<rect fill="white" x="64.3154" y="84" width="117" height="18"/>
<path d="M73.7074 101V95.06L66.4034 85.16H69.8354L75.1814 91.87L80.4614 85.16H83.9594L76.6334 95.082V101H73.7074ZM88.286 101C87.7287 101 87.2154 100.861 86.746 100.582C86.2914 100.303 85.9247 99.9367 85.646 99.482C85.3674 99.0127 85.228 98.4993 85.228 97.942V88.218C85.228 87.6607 85.3674 87.1547 85.646 86.7C85.9247 86.2307 86.2914 85.8567 86.746 85.578C87.2154 85.2993 87.7287 85.16 88.286 85.16H98.01C98.5674 85.16 99.0734 85.2993 99.528 85.578C99.9974 85.8567 100.371 86.2307 100.65 86.7C100.929 87.1547 101.068 87.6607 101.068 88.218V97.942C101.068 98.4993 100.929 99.0127 100.65 99.482C100.371 99.9367 99.9974 100.303 99.528 100.582C99.0734 100.861 98.5674 101 98.01 101H88.286ZM88.396 98.074H97.856C97.9294 98.074 97.9954 98.052 98.054 98.008C98.1127 97.9493 98.142 97.8833 98.142 97.81V88.35C98.142 88.2767 98.1127 88.218 98.054 88.174C97.9954 88.1153 97.9294 88.086 97.856 88.086H88.396C88.3227 88.086 88.2567 88.1153 88.198 88.174C88.154 88.218 88.132 88.2767 88.132 88.35V97.81C88.132 97.8833 88.154 97.9493 88.198 98.008C88.2567 98.052 88.3227 98.074 88.396 98.074ZM106.505 101C105.947 101 105.434 100.861 104.965 100.582C104.51 100.303 104.143 99.9367 103.865 99.482C103.586 99.0127 103.447 98.4993 103.447 97.942V85.16H106.351V97.81C106.351 97.8833 106.373 97.9493 106.417 98.008C106.475 98.052 106.541 98.074 106.615 98.074H116.075C116.148 98.074 116.214 98.052 116.273 98.008C116.331 97.9493 116.361 97.8833 116.361 97.81V85.16H119.287V97.942C119.287 98.4993 119.147 99.0127 118.869 99.482C118.59 99.9367 118.216 100.303 117.747 100.582C117.292 100.861 116.786 101 116.229 101H106.505ZM133.736 101L127.972 85.16H131.052L134.88 95.61L138.708 85.16H141.546L145.374 95.61L149.18 85.16H152.282L146.518 101H144.23L140.116 89.78L136.024 101H133.736ZM154.058 101V85.16H156.94V101H154.058ZM159.071 101V85.16H162.261L171.985 96.732V85.16H174.911V101H171.721L161.975 89.406V101H159.071ZM177.42 96.556V85.16H180.302V96.556H177.42ZM177.42 101V98.118H180.302V101H177.42Z"/>
</mask>
<path d="M73.7074 101V95.06L66.4034 85.16H69.8354L75.1814 91.87L80.4614 85.16H83.9594L76.6334 95.082V101H73.7074ZM88.286 101C87.7287 101 87.2154 100.861 86.746 100.582C86.2914 100.303 85.9247 99.9367 85.646 99.482C85.3674 99.0127 85.228 98.4993 85.228 97.942V88.218C85.228 87.6607 85.3674 87.1547 85.646 86.7C85.9247 86.2307 86.2914 85.8567 86.746 85.578C87.2154 85.2993 87.7287 85.16 88.286 85.16H98.01C98.5674 85.16 99.0734 85.2993 99.528 85.578C99.9974 85.8567 100.371 86.2307 100.65 86.7C100.929 87.1547 101.068 87.6607 101.068 88.218V97.942C101.068 98.4993 100.929 99.0127 100.65 99.482C100.371 99.9367 99.9974 100.303 99.528 100.582C99.0734 100.861 98.5674 101 98.01 101H88.286ZM88.396 98.074H97.856C97.9294 98.074 97.9954 98.052 98.054 98.008C98.1127 97.9493 98.142 97.8833 98.142 97.81V88.35C98.142 88.2767 98.1127 88.218 98.054 88.174C97.9954 88.1153 97.9294 88.086 97.856 88.086H88.396C88.3227 88.086 88.2567 88.1153 88.198 88.174C88.154 88.218 88.132 88.2767 88.132 88.35V97.81C88.132 97.8833 88.154 97.9493 88.198 98.008C88.2567 98.052 88.3227 98.074 88.396 98.074ZM106.505 101C105.947 101 105.434 100.861 104.965 100.582C104.51 100.303 104.143 99.9367 103.865 99.482C103.586 99.0127 103.447 98.4993 103.447 97.942V85.16H106.351V97.81C106.351 97.8833 106.373 97.9493 106.417 98.008C106.475 98.052 106.541 98.074 106.615 98.074H116.075C116.148 98.074 116.214 98.052 116.273 98.008C116.331 97.9493 116.361 97.8833 116.361 97.81V85.16H119.287V97.942C119.287 98.4993 119.147 99.0127 118.869 99.482C118.59 99.9367 118.216 100.303 117.747 100.582C117.292 100.861 116.786 101 116.229 101H106.505ZM133.736 101L127.972 85.16H131.052L134.88 95.61L138.708 85.16H141.546L145.374 95.61L149.18 85.16H152.282L146.518 101H144.23L140.116 89.78L136.024 101H133.736ZM154.058 101V85.16H156.94V101H154.058ZM159.071 101V85.16H162.261L171.985 96.732V85.16H174.911V101H171.721L161.975 89.406V101H159.071ZM177.42 96.556V85.16H180.302V96.556H177.42ZM177.42 101V98.118H180.302V101H177.42Z" fill="white"/>
<path d="M73.7074 101H72.7074V102H73.7074V101ZM73.7074 95.06H74.7074V94.731L74.5121 94.4663L73.7074 95.06ZM66.4034 85.16V84.16H64.4229L65.5987 85.7537L66.4034 85.16ZM69.8354 85.16L70.6175 84.5369L70.3173 84.16H69.8354V85.16ZM75.1814 91.87L74.3993 92.4931L75.1863 93.4809L75.9673 92.4884L75.1814 91.87ZM80.4614 85.16V84.16H79.9758L79.6756 84.5416L80.4614 85.16ZM83.9594 85.16L84.7639 85.754L85.9408 84.16H83.9594V85.16ZM76.6334 95.082L75.829 94.488L75.6334 94.7528V95.082H76.6334ZM76.6334 101V102H77.6334V101H76.6334ZM74.7074 101V95.06H72.7074V101H74.7074ZM74.5121 94.4663L67.2081 84.5663L65.5987 85.7537L72.9027 95.6537L74.5121 94.4663ZM66.4034 86.16H69.8354V84.16H66.4034V86.16ZM69.0533 85.7831L74.3993 92.4931L75.9635 91.2469L70.6175 84.5369L69.0533 85.7831ZM75.9673 92.4884L81.2473 85.7784L79.6756 84.5416L74.3956 91.2516L75.9673 92.4884ZM80.4614 86.16H83.9594V84.16H80.4614V86.16ZM83.155 84.566L75.829 94.488L77.4379 95.676L84.7639 85.754L83.155 84.566ZM75.6334 95.082V101H77.6334V95.082H75.6334ZM76.6334 100H73.7074V102H76.6334V100ZM86.746 100.582L86.2234 101.435L86.2355 101.442L86.746 100.582ZM85.646 99.482L84.7861 99.9926L84.7934 100.005L85.646 99.482ZM85.646 86.7L86.4987 87.2226L86.5059 87.2105L85.646 86.7ZM86.746 85.578L86.2355 84.7181L86.2235 84.7254L86.746 85.578ZM99.528 85.578L99.0054 86.4307L99.0175 86.4379L99.528 85.578ZM100.65 86.7L99.7901 87.2106L99.7974 87.2226L100.65 86.7ZM100.65 99.482L101.503 100.005L101.51 99.9925L100.65 99.482ZM99.528 100.582L99.0175 99.7221L99.0055 99.7294L99.528 100.582ZM98.054 98.008L98.654 98.808L98.7109 98.7654L98.7611 98.7151L98.054 98.008ZM98.054 88.174L97.3469 88.8811L97.3972 88.9314L97.454 88.974L98.054 88.174ZM88.198 88.174L88.9051 88.8811L88.9051 88.8811L88.198 88.174ZM88.198 98.008L87.398 98.608L87.4838 98.7223L87.598 98.808L88.198 98.008ZM88.286 100C87.9044 100 87.568 99.9071 87.2566 99.7221L86.2355 101.442C86.8627 101.814 87.553 102 88.286 102V100ZM87.2686 99.7294C86.9484 99.5332 86.6949 99.2796 86.4986 98.9594L84.7934 100.005C85.1545 100.594 85.6343 101.073 86.2235 101.435L87.2686 99.7294ZM86.5059 98.9715C86.321 98.66 86.228 98.3236 86.228 97.942H84.228C84.228 98.675 84.4138 99.3653 84.7862 99.9925L86.5059 98.9715ZM86.228 97.942V88.218H84.228V97.942H86.228ZM86.228 88.218C86.228 87.8364 86.3208 87.5127 86.4986 87.2226L84.7934 86.1774C84.4139 86.7966 84.228 87.4849 84.228 88.218H86.228ZM86.5059 87.2105C86.7036 86.8775 86.9558 86.6223 87.2686 86.4306L86.2235 84.7254C85.6269 85.091 85.1458 85.5838 84.7862 86.1895L86.5059 87.2105ZM87.2566 86.4379C87.568 86.2529 87.9044 86.16 88.286 86.16V84.16C87.553 84.16 86.8627 84.3457 86.2355 84.7181L87.2566 86.4379ZM88.286 86.16H98.01V84.16H88.286V86.16ZM98.01 86.16C98.3916 86.16 98.7153 86.2528 99.0055 86.4306L100.051 84.7254C99.4314 84.3459 98.7431 84.16 98.01 84.16V86.16ZM99.0175 86.4379C99.343 86.6311 99.5969 86.885 99.7902 87.2105L101.51 86.1895C101.146 85.5763 100.652 85.0822 100.039 84.7181L99.0175 86.4379ZM99.7974 87.2226C99.9753 87.5127 100.068 87.8364 100.068 88.218H102.068C102.068 87.4849 101.882 86.7966 101.503 86.1774L99.7974 87.2226ZM100.068 88.218V97.942H102.068V88.218H100.068ZM100.068 97.942C100.068 98.3236 99.9751 98.66 99.7902 98.9715L101.51 99.9925C101.882 99.3653 102.068 98.675 102.068 97.942H100.068ZM99.7974 98.9594C99.6057 99.2722 99.3505 99.5244 99.0175 99.7221L100.039 101.442C100.644 101.082 101.137 100.601 101.503 100.005L99.7974 98.9594ZM99.0055 99.7294C98.7153 99.9072 98.3916 100 98.01 100V102C98.7431 102 99.4314 101.814 100.051 101.435L99.0055 99.7294ZM98.01 100H88.286V102H98.01V100ZM88.396 99.074H97.856V97.074H88.396V99.074ZM97.856 99.074C98.1457 99.074 98.4223 98.9818 98.654 98.808L97.454 97.208C97.506 97.169 97.5699 97.1336 97.6443 97.1088C97.7187 97.084 97.7911 97.074 97.856 97.074V99.074ZM98.7611 98.7151C98.9805 98.4958 99.142 98.1842 99.142 97.81H97.142C97.142 97.709 97.1632 97.6052 97.2062 97.5084C97.2482 97.4138 97.3022 97.3456 97.3469 97.3009L98.7611 98.7151ZM99.142 97.81V88.35H97.142V97.81H99.142ZM99.142 88.35C99.142 87.9619 98.9645 87.6068 98.654 87.374L97.454 88.974C97.374 88.914 97.2882 88.8234 97.2256 88.6982C97.163 88.573 97.142 88.4501 97.142 88.35H99.142ZM98.7611 87.4669C98.5418 87.2475 98.2303 87.086 97.856 87.086V89.086C97.755 89.086 97.6513 89.0649 97.5544 89.0218C97.4599 88.9798 97.3916 88.9258 97.3469 88.8811L98.7611 87.4669ZM97.856 87.086H88.396V89.086H97.856V87.086ZM88.396 87.086C88.0218 87.086 87.7103 87.2475 87.4909 87.4669L88.9051 88.8811C88.8604 88.9258 88.7922 88.9798 88.6977 89.0218C88.6008 89.0649 88.4971 89.086 88.396 89.086V87.086ZM87.4909 87.4669C87.2262 87.7316 87.132 88.0624 87.132 88.35H89.132C89.132 88.4132 89.1225 88.5018 89.0849 88.6021C89.0461 88.7055 88.9848 88.8015 88.9051 88.8811L87.4909 87.4669ZM87.132 88.35V97.81H89.132V88.35H87.132ZM87.132 97.81C87.132 98.0997 87.2242 98.3762 87.398 98.608L88.998 97.408C89.037 97.46 89.0724 97.5239 89.0972 97.5983C89.122 97.6726 89.132 97.745 89.132 97.81H87.132ZM87.598 98.808C87.8298 98.9818 88.1063 99.074 88.396 99.074V97.074C88.461 97.074 88.5334 97.084 88.6078 97.1088C88.6821 97.1336 88.7461 97.169 88.798 97.208L87.598 98.808ZM104.965 100.582L104.442 101.435L104.454 101.442L104.965 100.582ZM103.865 99.482L103.005 99.9926L103.012 100.005L103.865 99.482ZM103.447 85.16V84.16H102.447V85.16H103.447ZM106.351 85.16H107.351V84.16H106.351V85.16ZM106.417 98.008L105.617 98.608L105.703 98.7223L105.817 98.808L106.417 98.008ZM116.273 98.008L116.873 98.808L116.93 98.7654L116.98 98.7151L116.273 98.008ZM116.361 85.16V84.16H115.361V85.16H116.361ZM119.287 85.16H120.287V84.16H119.287V85.16ZM118.869 99.482L119.721 100.005L119.729 99.9925L118.869 99.482ZM117.747 100.582L117.236 99.7221L117.224 99.7294L117.747 100.582ZM106.505 100C106.123 100 105.787 99.9071 105.475 99.7221L104.454 101.442C105.081 101.814 105.772 102 106.505 102V100ZM105.487 99.7294C105.167 99.5332 104.914 99.2796 104.717 98.9594L103.012 100.005C103.373 100.594 103.853 101.073 104.442 101.435L105.487 99.7294ZM104.725 98.9715C104.54 98.66 104.447 98.3236 104.447 97.942H102.447C102.447 98.675 102.633 99.3653 103.005 99.9925L104.725 98.9715ZM104.447 97.942V85.16H102.447V97.942H104.447ZM103.447 86.16H106.351V84.16H103.447V86.16ZM105.351 85.16V97.81H107.351V85.16H105.351ZM105.351 97.81C105.351 98.0997 105.443 98.3762 105.617 98.608L107.217 97.408C107.256 97.46 107.291 97.5239 107.316 97.5983C107.341 97.6726 107.351 97.745 107.351 97.81H105.351ZM105.817 98.808C106.049 98.9818 106.325 99.074 106.615 99.074V97.074C106.68 97.074 106.752 97.084 106.827 97.1088C106.901 97.1336 106.965 97.169 107.017 97.208L105.817 98.808ZM106.615 99.074H116.075V97.074H106.615V99.074ZM116.075 99.074C116.364 99.074 116.641 98.9818 116.873 98.808L115.673 97.208C115.725 97.169 115.789 97.1336 115.863 97.1088C115.937 97.084 116.01 97.074 116.075 97.074V99.074ZM116.98 98.7151C117.199 98.4958 117.361 98.1842 117.361 97.81H115.361C115.361 97.709 115.382 97.6052 115.425 97.5084C115.467 97.4138 115.521 97.3456 115.566 97.3009L116.98 98.7151ZM117.361 97.81V85.16H115.361V97.81H117.361ZM116.361 86.16H119.287V84.16H116.361V86.16ZM118.287 85.16V97.942H120.287V85.16H118.287ZM118.287 97.942C118.287 98.3236 118.194 98.66 118.009 98.9715L119.729 99.9925C120.101 99.3653 120.287 98.675 120.287 97.942H118.287ZM118.016 98.9594C117.824 99.2722 117.569 99.5244 117.236 99.7221L118.257 101.442C118.863 101.082 119.356 100.601 119.721 100.005L118.016 98.9594ZM117.224 99.7294C116.934 99.9072 116.61 100 116.229 100V102C116.962 102 117.65 101.814 118.269 101.435L117.224 99.7294ZM116.229 100H106.505V102H116.229V100ZM133.736 101L132.796 101.342L133.036 102H133.736V101ZM127.972 85.16V84.16H126.544L127.032 85.502L127.972 85.16ZM131.052 85.16L131.991 84.816L131.751 84.16H131.052V85.16ZM134.88 95.61L133.941 95.954L134.88 98.5173L135.819 95.954L134.88 95.61ZM138.708 85.16V84.16H138.009L137.769 84.816L138.708 85.16ZM141.546 85.16L142.485 84.816L142.245 84.16H141.546V85.16ZM145.374 95.61L144.435 95.954L145.377 98.5247L146.314 95.9522L145.374 95.61ZM149.18 85.16V84.16H148.48L148.241 84.8178L149.18 85.16ZM152.282 85.16L153.222 85.502L153.71 84.16H152.282V85.16ZM146.518 101V102H147.218L147.458 101.342L146.518 101ZM144.23 101L143.291 101.344L143.532 102H144.23V101ZM140.116 89.78L141.055 89.4357L140.114 86.8683L139.177 89.4374L140.116 89.78ZM136.024 101V102H136.724L136.964 101.343L136.024 101ZM134.676 100.658L128.912 84.818L127.032 85.502L132.796 101.342L134.676 100.658ZM127.972 86.16H131.052V84.16H127.972V86.16ZM130.113 85.504L133.941 95.954L135.819 95.266L131.991 84.816L130.113 85.504ZM135.819 95.954L139.647 85.504L137.769 84.816L133.941 95.266L135.819 95.954ZM138.708 86.16H141.546V84.16H138.708V86.16ZM140.607 85.504L144.435 95.954L146.313 95.266L142.485 84.816L140.607 85.504ZM146.314 95.9522L150.12 85.5022L148.241 84.8178L144.435 95.2678L146.314 95.9522ZM149.18 86.16H152.282V84.16H149.18V86.16ZM151.342 84.818L145.578 100.658L147.458 101.342L153.222 85.502L151.342 84.818ZM146.518 100H144.23V102H146.518V100ZM145.169 100.656L141.055 89.4357L139.177 90.1243L143.291 101.344L145.169 100.656ZM139.177 89.4374L135.085 100.657L136.964 101.343L141.056 90.1226L139.177 89.4374ZM136.024 100H133.736V102H136.024V100ZM154.058 101H153.058V102H154.058V101ZM154.058 85.16V84.16H153.058V85.16H154.058ZM156.94 85.16H157.94V84.16H156.94V85.16ZM156.94 101V102H157.94V101H156.94ZM155.058 101V85.16H153.058V101H155.058ZM154.058 86.16H156.94V84.16H154.058V86.16ZM155.94 85.16V101H157.94V85.16H155.94ZM156.94 100H154.058V102H156.94V100ZM159.071 101H158.071V102H159.071V101ZM159.071 85.16V84.16H158.071V85.16H159.071ZM162.261 85.16L163.026 84.5167L162.727 84.16H162.261V85.16ZM171.985 96.732L171.219 97.3753L172.985 99.4765V96.732H171.985ZM171.985 85.16V84.16H170.985V85.16H171.985ZM174.911 85.16H175.911V84.16H174.911V85.16ZM174.911 101V102H175.911V101H174.911ZM171.721 101L170.955 101.643L171.255 102H171.721V101ZM161.975 89.406L162.74 88.7625L160.975 86.6623V89.406H161.975ZM161.975 101V102H162.975V101H161.975ZM160.071 101V85.16H158.071V101H160.071ZM159.071 86.16H162.261V84.16H159.071V86.16ZM161.495 85.8033L171.219 97.3753L172.75 96.0887L163.026 84.5167L161.495 85.8033ZM172.985 96.732V85.16H170.985V96.732H172.985ZM171.985 86.16H174.911V84.16H171.985V86.16ZM173.911 85.16V101H175.911V85.16H173.911ZM174.911 100H171.721V102H174.911V100ZM172.486 100.357L162.74 88.7625L161.209 90.0495L170.955 101.643L172.486 100.357ZM160.975 89.406V101H162.975V89.406H160.975ZM161.975 100H159.071V102H161.975V100ZM177.42 96.556H176.42V97.556H177.42V96.556ZM177.42 85.16V84.16H176.42V85.16H177.42ZM180.302 85.16H181.302V84.16H180.302V85.16ZM180.302 96.556V97.556H181.302V96.556H180.302ZM177.42 101H176.42V102H177.42V101ZM177.42 98.118V97.118H176.42V98.118H177.42ZM180.302 98.118H181.302V97.118H180.302V98.118ZM180.302 101V102H181.302V101H180.302ZM178.42 96.556V85.16H176.42V96.556H178.42ZM177.42 86.16H180.302V84.16H177.42V86.16ZM179.302 85.16V96.556H181.302V85.16H179.302ZM180.302 95.556H177.42V97.556H180.302V95.556ZM178.42 101V98.118H176.42V101H178.42ZM177.42 99.118H180.302V97.118H177.42V99.118ZM179.302 98.118V101H181.302V98.118H179.302ZM180.302 100H177.42V102H180.302V100Z" fill="#9B8A08" mask="url(#path-17-outside-4_6261_3724)"/>
</g>
<defs>
<filter id="filter0_d_6261_3724" x="23.1143" y="64.3789" width="196.459" height="69" filterUnits="userSpaceOnUse" color-interpolation-filters="sRGB">
<feFlood flood-opacity="0" result="BackgroundImageFix"/>
<feColorMatrix in="SourceAlpha" type="matrix" values="0 0 0 0 0 0 0 0 0 0 0 0 0 0 0 0 0 0 127 0" result="hardAlpha"/>
<feOffset dy="3"/>
<feComposite in2="hardAlpha" operator="out"/>
<feColorMatrix type="matrix" values="0 0 0 0 0.827451 0 0 0 0 0.847059 0 0 0 0 1 0 0 0 1 0"/>
<feBlend mode="normal" in2="BackgroundImageFix" result="effect1_dropShadow_6261_3724"/>
<feBlend mode="normal" in="SourceGraphic" in2="effect1_dropShadow_6261_3724" result="shape"/>
</filter>
<filter id="filter1_d_6261_3724" x="98.6399" y="21.418" width="43.408" height="44.6738" filterUnits="userSpaceOnUse" color-interpolation-filters="sRGB">
<feFlood flood-opacity="0" result="BackgroundImageFix"/>
<feColorMatrix in="SourceAlpha" type="matrix" values="0 0 0 0 0 0 0 0 0 0 0 0 0 0 0 0 0 0 127 0" result="hardAlpha"/>
<feOffset dy="3"/>
<feComposite in2="hardAlpha" operator="out"/>
<feColorMatrix type="matrix" values="0 0 0 0 1 0 0 0 0 0.392 0 0 0 0 0.2 0 0 0 1 0"/>
<feBlend mode="normal" in2="BackgroundImageFix" result="effect1_dropShadow_6261_3724"/>
<feBlend mode="normal" in="SourceGraphic" in2="effect1_dropShadow_6261_3724" result="shape"/>
</filter>
<filter id="filter2_d_6261_3724" x="63.0632" y="38.418" width="34.6426" height="36.3379" filterUnits="userSpaceOnUse" color-interpolation-filters="sRGB">
<feFlood flood-opacity="0" result="BackgroundImageFix"/>
<feColorMatrix in="SourceAlpha" type="matrix" values="0 0 0 0 0 0 0 0 0 0 0 0 0 0 0 0 0 0 127 0" result="hardAlpha"/>
<feOffset dy="3"/>
<feComposite in2="hardAlpha" operator="out"/>
<feColorMatrix type="matrix" values="0 0 0 0 1 0 0 0 0 0.392 0 0 0 0 0.2 0 0 0 1 0"/>
<feBlend mode="normal" in2="BackgroundImageFix" result="effect1_dropShadow_6261_3724"/>
<feBlend mode="normal" in="SourceGraphic" in2="effect1_dropShadow_6261_3724" result="shape"/>
</filter>
<filter id="filter3_d_6261_3724" x="142.063" y="38.418" width="34.6426" height="36.3379" filterUnits="userSpaceOnUse" color-interpolation-filters="sRGB">
<feFlood flood-opacity="0" result="BackgroundImageFix"/>
<feColorMatrix in="SourceAlpha" type="matrix" values="0 0 0 0 0 0 0 0 0 0 0 0 0 0 0 0 0 0 127 0" result="hardAlpha"/>
<feOffset dy="3"/>
<feComposite in2="hardAlpha" operator="out"/>
<feColorMatrix type="matrix" values="0 0 0 0 1 0 0 0 0 0.392 0 0 0 0 0.2 0 0 0 1 0"/>
<feBlend mode="normal" in2="BackgroundImageFix" result="effect1_dropShadow_6261_3724"/>
<feBlend mode="normal" in="SourceGraphic" in2="effect1_dropShadow_6261_3724" result="shape"/>
</filter>
<filter id="filter4_d_6261_3724" x="66.4033" y="85.1602" width="113.898" height="17.8398" filterUnits="userSpaceOnUse" color-interpolation-filters="sRGB">
<feFlood flood-opacity="0" result="BackgroundImageFix"/>
<feColorMatrix in="SourceAlpha" type="matrix" values="0 0 0 0 0 0 0 0 0 0 0 0 0 0 0 0 0 0 127 0" result="hardAlpha"/>
<feOffset dy="2"/>
<feComposite in2="hardAlpha" operator="out"/>
<feColorMatrix type="matrix" values="0 0 0 0 0.533382 0 0 0 0 0.513679 0 0 0 0 0.507451 0 0 0 1 0"/>
<feBlend mode="normal" in2="BackgroundImageFix" result="effect1_dropShadow_6261_3724"/>
<feBlend mode="normal" in="SourceGraphic" in2="effect1_dropShadow_6261_3724" result="shape"/>
</filter>
<radialGradient id="paint0_radial_6261_3724" cx="0" cy="0" r="1" gradientUnits="userSpaceOnUse" gradientTransform="translate(123.801 65.1822) rotate(89.8427) scale(54.4633 123.309)">
<stop stop-color="#FFEE37" stop-opacity="0.56"/>
<stop offset="1" stop-color="#FFF8AC" stop-opacity="0"/>
</radialGradient>
<linearGradient id="paint1_linear_6261_3724" x1="41.344" y1="81.3789" x2="41.344" y2="130.379" gradientUnits="userSpaceOnUse">
<stop stop-color="#FFEF9C"/>
<stop offset="1" stop-color="#D5BB34"/>
</linearGradient>
<linearGradient id="paint2_linear_6261_3724" x1="201.344" y1="81.3789" x2="201.344" y2="130.379" gradientUnits="userSpaceOnUse">
<stop stop-color="#FFEF9C"/>
<stop offset="1" stop-color="#D5BB34"/>
</linearGradient>
<linearGradient id="paint3_linear_6261_3724" x1="120.844" y1="64.3789" x2="120.844" y2="115.379" gradientUnits="userSpaceOnUse">
<stop stop-color="#FFEF9C"/>
<stop offset="1" stop-color="#D5BB34"/>
</linearGradient>
<linearGradient id="paint4_linear_6261_3724" x1="120.17" y1="17.2889" x2="120.17" y2="70.9438" gradientUnits="userSpaceOnUse">
<stop offset="0.25" stop-color="#FFEE37"/>
<stop offset="1" stop-color="#F78A3B"/>
</linearGradient>
<linearGradient id="paint5_linear_6261_3724" x1="120.344" y1="16.3789" x2="120.344" y2="71.6762" gradientUnits="userSpaceOnUse">
<stop offset="0.25" stop-color="#FFEE37"/>
<stop offset="1" stop-color="#F78A3B"/>
</linearGradient>
<linearGradient id="paint6_linear_6261_3724" x1="80.24" y1="35.1063" x2="80.24" y2="78.1306" gradientUnits="userSpaceOnUse">
<stop offset="0.25" stop-color="#FFEE37"/>
<stop offset="1" stop-color="#F78A3B"/>
</linearGradient>
<linearGradient id="paint7_linear_6261_3724" x1="80.3845" y1="33.3789" x2="80.3845" y2="79.46" gradientUnits="userSpaceOnUse">
<stop offset="0.25" stop-color="#FFEE37"/>
<stop offset="1" stop-color="#F78A3B"/>
</linearGradient>
<linearGradient id="paint8_linear_6261_3724" x1="159.24" y1="35.1063" x2="159.24" y2="78.1306" gradientUnits="userSpaceOnUse">
<stop offset="0.25" stop-color="#FFEE37"/>
<stop offset="1" stop-color="#F78A3B"/>
</linearGradient>
<linearGradient id="paint9_linear_6261_3724" x1="159.385" y1="33.3789" x2="159.385" y2="79.46" gradientUnits="userSpaceOnUse">
<stop offset="0.25" stop-color="#FFEE37"/>
<stop offset="1" stop-color="#F78A3B"/>
</linearGradient>
</defs>
</svg>
