<svg width="19" height="31" viewBox="0 0 19 31" fill="none" xmlns="http://www.w3.org/2000/svg">
<g clip-path="url(#clip0_471_1443)">
<path d="M0.425226 26.8031C-0.275959 25.928 0.0300128 25.0853 0.378481 24.1657C1.99758 19.9038 3.55719 15.6176 5.14654 11.3436C5.38452 10.7156 5.66924 10.0998 5.49926 9.40709L5.76698 9.30176C6.56795 9.63639 7.29921 10.1057 7.92578 10.6873C8.04162 10.8561 8.13713 11.0369 8.21051 11.2261C9.18367 13.8918 10.1568 16.5575 11.1852 19.2111C12.9488 23.8781 11.5804 26.479 6.60841 27.9739C4.74283 28.2777 3.20872 27.431 1.87859 26.4263C0.960677 25.7579 0.799192 26.3615 0.425226 26.8031Z" fill="#A2CFFF"/>
<path d="M6.37462 27.621C7.23838 27.3406 8.07453 26.9881 8.87339 26.5677C11.4232 24.9472 12.0139 23.1768 10.9982 20.3045C9.90605 17.1972 8.78415 14.1021 7.67925 10.9867C9.60007 10.3466 11.6356 10.0833 13.5352 9.36621C13.8879 12.3317 15.4603 14.9245 16.3187 17.736C16.9986 19.9885 17.8486 22.1762 18.6432 24.3841C18.4223 25.6278 17.5086 26.3287 16.4844 26.9607C13.6542 28.7149 10.535 28.7311 7.33503 28.4515C6.86333 28.411 6.34062 28.2611 6.37462 27.621Z" fill="#6FBFFF"/>
<path d="M6.37424 27.6214C11.0701 28.622 15.3367 28.1359 18.6599 24.3804C19.3738 25.5471 18.9021 26.6004 18.2604 27.597C15.0944 32.4747 2.85 29.1765 1.99596e-07 26.4412C-1.44214e-05 25.8014 -6.19754e-05 24.7127 0.32821 24.4352C0.467747 24.3172 0.95 24.6177 0.95 24.6177C2.6286 25.902 4.02421 27.6376 6.37424 27.6214Z" fill="#2FBDFA"/>
<path d="M5.49894 9.40677C3.51438 7.53511 3.19141 5.29883 4.3388 3.00583C5.48619 0.712838 7.50476 -0.283765 10.199 0.0686921C12.0731 1.83098 11.9668 3.92951 11.0489 5.99159C10.0758 8.1833 8.30368 9.4797 5.64768 9.34601L5.49894 9.40677Z" fill="#A2CFFF"/>
<path d="M5.63916 9.34591C6.39134 9.05422 7.16052 8.80305 7.89145 8.46274C9.18321 7.86175 10.1922 6.82161 10.72 5.54703C11.2477 4.27244 11.2559 2.85571 10.7429 1.57565C10.5517 1.0814 10.3732 0.579051 10.1905 0.0848008C10.7982 0.0848008 11.4314 -0.00432622 11.8903 0.522334C15.545 4.80853 13.6327 9.35401 7.64073 10.6504C7.21815 10.6136 6.81246 10.4744 6.46216 10.2461C6.11186 10.0178 5.82857 9.70791 5.63916 9.34591Z" fill="#6FBFFF"/>
<path d="M7.64941 10.6182C8.17212 9.45551 9.50649 9.86469 10.3819 9.32992C11.0563 8.93434 11.6411 8.41439 12.102 7.80055C12.5629 7.18672 12.8906 6.49134 13.066 5.7552C13.2413 5.01905 13.2607 4.25694 13.1231 3.51355C12.9855 2.77015 12.6936 2.06043 12.2645 1.42598C12.1177 1.12901 11.9955 0.821522 11.899 0.506348C16.0424 3.24093 16.5736 6.20643 13.5224 9.38259C11.9118 11.0436 9.82096 11.1287 7.66641 11.0031C7.64941 10.8734 7.64941 10.7438 7.64941 10.6182Z" fill="#2FBDFA"/>
</g>
<defs>
<clipPath id="clip0_471_1443">
<rect width="19" height="31" fill="white"/>
</clipPath>
</defs>
</svg>
