<svg width="19" height="32" viewBox="0 0 19 32" fill="none" xmlns="http://www.w3.org/2000/svg">
<g clip-path="url(#clip0_486_793)">
<path d="M0.425226 27.3791C-0.275959 26.4853 0.0300128 25.6245 0.378481 24.6851C1.99758 20.3315 3.55719 15.9532 5.14654 11.5872C5.38452 10.9457 5.66924 10.3167 5.49926 9.60906L5.76698 9.50146C6.56795 9.84329 7.29921 10.3227 7.92578 10.9168C8.04162 11.0893 8.13713 11.2739 8.21051 11.4672C9.18367 14.1902 10.1568 16.9133 11.1852 19.6239C12.9488 24.3913 11.5804 27.0481 6.60841 28.5751C4.74283 28.8855 3.20872 28.0206 1.87859 26.9943C0.960677 26.3114 0.799192 26.9281 0.425226 27.3791Z" fill="#A2FFCD"/>
<path d="M6.37462 28.2153C7.23838 27.9288 8.07453 27.5687 8.87339 27.1393C11.4232 25.484 12.0139 23.6755 10.9982 20.7414C9.90605 17.5673 8.78415 14.4056 7.67925 11.2232C9.60007 10.5694 11.6356 10.3004 13.5352 9.56787C13.8879 12.5971 15.4603 15.2457 16.3187 18.1177C16.9986 20.4186 17.8486 22.6533 18.6432 24.9087C18.4223 26.1792 17.5086 26.8951 16.4844 27.5407C13.6542 29.3326 10.535 29.3492 7.33503 29.0636C6.86333 29.0223 6.34062 28.8691 6.37462 28.2153Z" fill="#6FFFC3"/>
<path d="M6.37424 28.2155C11.0701 29.2376 15.3367 28.741 18.6599 24.9048C19.3738 26.0966 18.9021 27.1726 18.2604 28.1906C15.0944 33.1732 2.85 29.8041 1.99596e-07 27.01C-1.44214e-05 26.3564 -6.19754e-05 25.2443 0.32821 24.9607C0.467747 24.8402 0.95 25.1472 0.95 25.1472C2.6286 26.4591 4.02421 28.232 6.37424 28.2155Z" fill="#2FFA68"/>
<path d="M5.49894 9.60908C3.51438 7.69716 3.19141 5.41279 4.3388 3.07048C5.48619 0.728178 7.50476 -0.289857 10.199 0.0701798C12.0731 1.87036 11.9668 4.01403 11.0489 6.12045C10.0758 8.3593 8.30368 9.68357 5.64768 9.547L5.49894 9.60908Z" fill="#A2FFCD"/>
<path d="M5.63916 9.54715C6.39134 9.24919 7.16052 8.99261 7.89145 8.64499C9.18321 8.03107 10.1922 6.96856 10.7199 5.66657C11.2477 4.36457 11.2559 2.91738 10.7429 1.60979C10.5517 1.10491 10.3732 0.591755 10.1905 0.0868765C10.7982 0.0868765 11.4314 -0.00416722 11.8903 0.533818C15.545 4.91219 13.6327 9.55543 7.64073 10.8797C7.21815 10.8421 6.81246 10.6999 6.46216 10.4667C6.11186 10.2334 5.82857 9.91693 5.63916 9.54715Z" fill="#6FFFC3"/>
<path d="M7.64941 10.8464C8.17212 9.65871 9.50649 10.0767 10.3819 9.53042C11.0563 9.12633 11.6411 8.5952 12.102 7.96816C12.5629 7.34112 12.8906 6.6308 13.066 5.87882C13.2413 5.12684 13.2607 4.34834 13.1231 3.58896C12.9855 2.82958 12.6936 2.10459 12.2645 1.4565C12.1177 1.15314 11.9955 0.839042 11.899 0.51709C16.0424 3.31048 16.5736 6.33975 13.5224 9.58422C11.9118 11.2809 9.82096 11.3678 7.66641 11.2396C7.64941 11.1071 7.64941 10.9747 7.64941 10.8464Z" fill="#2FFA68"/>
</g>
<defs>
<clipPath id="clip0_486_793">
<rect width="19" height="31.6667" fill="white"/>
</clipPath>
</defs>
</svg>
