<svg width="19" height="32" viewBox="0 0 19 32" fill="none" xmlns="http://www.w3.org/2000/svg">
<g clip-path="url(#clip0_486_1449)">
<path d="M0.425226 27.0259C-0.275959 26.1436 0.0300128 25.2939 0.378481 24.3666C1.99758 20.0692 3.55719 15.7473 5.14654 11.4377C5.38452 10.8046 5.66924 10.1836 5.49926 9.48512L5.76698 9.37891C6.56795 9.71632 7.29921 10.1895 7.92578 10.776C8.04162 10.9462 8.13713 11.1285 8.21051 11.3193C9.18367 14.0072 10.1568 16.6951 11.1852 19.3707C12.9488 24.0766 11.5804 26.6991 6.60841 28.2065C4.74283 28.5128 3.20872 27.6591 1.87859 26.646C0.960677 25.972 0.799192 26.5806 0.425226 27.0259Z" fill="#FFF6A2"/>
<path d="M6.37462 27.8511C7.23838 27.5683 8.07453 27.2129 8.87339 26.789C11.4232 25.1551 12.0139 23.3699 10.9982 20.4737C9.90605 17.3406 8.78415 14.2196 7.67925 11.0783C9.60007 10.4329 11.6356 10.1674 13.5352 9.44434C13.8879 12.4345 15.4603 15.0489 16.3187 17.8838C16.9986 20.1551 17.8486 22.361 18.6432 24.5873C18.4223 25.8413 17.5086 26.548 16.4844 27.1853C13.6542 28.9541 10.535 28.9704 7.33503 28.6886C6.86333 28.6477 6.34062 28.4966 6.37462 27.8511Z" fill="#FFE86F"/>
<path d="M6.37424 27.851C11.0701 28.86 15.3367 28.3698 18.6599 24.583C19.3738 25.7595 18.9021 26.8216 18.2604 27.8265C15.0944 32.7447 2.85 29.4191 1.99596e-07 26.661C-1.44214e-05 26.0159 -6.19754e-05 24.9181 0.32821 24.6382C0.467747 24.5193 0.95 24.8223 0.95 24.8223C2.6286 26.1173 4.02421 27.8673 6.37424 27.851Z" fill="#FADA2F"/>
<path d="M5.49894 9.48508C3.51438 7.59784 3.19141 5.34294 4.3388 3.03086C5.48619 0.718776 7.50476 -0.286123 10.199 0.069268C12.0731 1.84622 11.9668 3.96223 11.0489 6.04147C10.0758 8.25143 8.30368 9.55861 5.64768 9.42381L5.49894 9.48508Z" fill="#FFF6A2"/>
<path d="M5.63916 9.42403C6.39134 9.12991 7.16052 8.87665 7.89145 8.53351C9.18321 7.92751 10.1922 6.87872 10.7199 5.59352C11.2477 4.30832 11.2559 2.8798 10.7429 1.58909C10.5517 1.09072 10.3732 0.584189 10.1905 0.0858248C10.7982 0.0858248 11.4314 -0.00404416 11.8903 0.527C15.545 4.84888 13.6327 9.4322 7.64073 10.7394C7.21815 10.7022 6.81246 10.5619 6.46216 10.3317C6.11186 10.1015 5.82857 9.78904 5.63916 9.42403Z" fill="#FFE86F"/>
<path d="M7.64941 10.7068C8.17212 9.5344 9.50649 9.94698 10.3819 9.40777C11.0563 9.00889 11.6411 8.48462 12.102 7.86567C12.5629 7.24672 12.8906 6.54556 13.066 5.80329C13.2413 5.06101 13.2607 4.29256 13.1231 3.54298C12.9855 2.79339 12.6936 2.07776 12.2645 1.43803C12.1177 1.13858 11.9955 0.82854 11.899 0.510742C16.0424 3.26809 16.5736 6.25827 13.5224 9.46087C11.9118 11.1357 9.82096 11.2215 7.66641 11.0949C7.64941 10.9641 7.64941 10.8334 7.64941 10.7068Z" fill="#FADA2F"/>
</g>
<defs>
<clipPath id="clip0_486_1449">
<rect width="19" height="31.2581" fill="white"/>
</clipPath>
</defs>
</svg>
