<svg width="99" height="46" viewBox="0 0 99 46" fill="none" xmlns="http://www.w3.org/2000/svg">
<g filter="url(#filter0_d_214_9155)">
<rect x="3" y="3" width="93.4167" height="38" rx="8.68571" fill="#08B9FF"/>
<rect x="1.91429" y="1.91429" width="95.5881" height="40.1714" rx="9.77143" stroke="white" stroke-width="2.17143"/>
</g>
<rect x="3" y="3" width="93.4167" height="34.0417" rx="8.68571" fill="#4CDAFE"/>
<path opacity="0.5" fill-rule="evenodd" clip-rule="evenodd" d="M36.4306 3H11.6857C6.88873 3 3 6.88873 3 11.6857V28.356C3 33.1529 6.88872 37.0417 11.6857 37.0417H65.9858L36.4306 3Z" fill="#94E7FC"/>
<g filter="url(#filter1_d_214_9155)">
<path d="M29.3665 27L25.2435 22.079H28.5305L32.1025 26.297V27H29.3665ZM18.4605 27V13.339H29.4805C29.9618 13.339 30.4052 13.4593 30.8105 13.7C31.2158 13.9407 31.5388 14.2637 31.7795 14.669C32.0202 15.0617 32.1405 15.4987 32.1405 15.98V19.666C32.1405 20.1473 32.0202 20.5907 31.7795 20.996C31.5388 21.4013 31.2158 21.7243 30.8105 21.965C30.4052 22.193 29.9618 22.307 29.4805 22.307L20.9685 22.326V27H18.4605ZM21.1965 19.78H29.3665C29.4298 19.78 29.4868 19.761 29.5375 19.723C29.5882 19.685 29.6135 19.6343 29.6135 19.571V16.075C29.6135 16.0117 29.5882 15.961 29.5375 15.923C29.4868 15.8723 29.4298 15.847 29.3665 15.847H21.1965C21.1332 15.847 21.0762 15.8723 21.0255 15.923C20.9875 15.961 20.9685 16.0117 20.9685 16.075V19.571C20.9685 19.6343 20.9875 19.685 21.0255 19.723C21.0762 19.761 21.1332 19.78 21.1965 19.78ZM37.5022 27C37.0209 27 36.5775 26.8797 36.1722 26.639C35.7795 26.3983 35.4629 26.0817 35.2222 25.689C34.9815 25.2837 34.8612 24.8403 34.8612 24.359V15.961C34.8612 15.4797 34.9815 15.0427 35.2222 14.65C35.4629 14.2447 35.7795 13.9217 36.1722 13.681C36.5775 13.4403 37.0209 13.32 37.5022 13.32H45.9002C46.3815 13.32 46.8185 13.4403 47.2112 13.681C47.6165 13.9217 47.9395 14.2447 48.1802 14.65C48.4209 15.0427 48.5412 15.4797 48.5412 15.961V24.359C48.5412 24.8403 48.4209 25.2837 48.1802 25.689C47.9395 26.0817 47.6165 26.3983 47.2112 26.639C46.8185 26.8797 46.3815 27 45.9002 27H37.5022ZM37.5972 24.473H45.7672C45.8305 24.473 45.8875 24.454 45.9382 24.416C45.9889 24.3653 46.0142 24.3083 46.0142 24.245V16.075C46.0142 16.0117 45.9889 15.961 45.9382 15.923C45.8875 15.8723 45.8305 15.847 45.7672 15.847H37.5972C37.5339 15.847 37.4769 15.8723 37.4262 15.923C37.3882 15.961 37.3692 16.0117 37.3692 16.075V24.245C37.3692 24.3083 37.3882 24.3653 37.4262 24.416C37.4769 24.454 37.5339 24.473 37.5972 24.473ZM51.4126 27V13.301H53.9206V24.473H65.0926V27H51.4126ZM66.9792 27V13.301H69.4872V24.473H80.6592V27H66.9792Z" fill="white"/>
</g>
<defs>
<filter id="filter0_d_214_9155" x="0.828125" y="0.828125" width="97.7598" height="44.5152" filterUnits="userSpaceOnUse" color-interpolation-filters="sRGB">
<feFlood flood-opacity="0" result="BackgroundImageFix"/>
<feColorMatrix in="SourceAlpha" type="matrix" values="0 0 0 0 0 0 0 0 0 0 0 0 0 0 0 0 0 0 127 0" result="hardAlpha"/>
<feOffset dy="2.17143"/>
<feComposite in2="hardAlpha" operator="out"/>
<feColorMatrix type="matrix" values="0 0 0 0 0 0 0 0 0 0 0 0 0 0 0 0 0 0 0.15 0"/>
<feBlend mode="normal" in2="BackgroundImageFix" result="effect1_dropShadow_214_9155"/>
<feBlend mode="normal" in="SourceGraphic" in2="effect1_dropShadow_214_9155" result="shape"/>
</filter>
<filter id="filter1_d_214_9155" x="18.4609" y="13.3008" width="62.1992" height="14.6992" filterUnits="userSpaceOnUse" color-interpolation-filters="sRGB">
<feFlood flood-opacity="0" result="BackgroundImageFix"/>
<feColorMatrix in="SourceAlpha" type="matrix" values="0 0 0 0 0 0 0 0 0 0 0 0 0 0 0 0 0 0 127 0" result="hardAlpha"/>
<feOffset dy="1"/>
<feComposite in2="hardAlpha" operator="out"/>
<feColorMatrix type="matrix" values="0 0 0 0 0 0 0 0 0 0 0 0 0 0 0 0 0 0 0.15 0"/>
<feBlend mode="normal" in2="BackgroundImageFix" result="effect1_dropShadow_214_9155"/>
<feBlend mode="normal" in="SourceGraphic" in2="effect1_dropShadow_214_9155" result="shape"/>
</filter>
</defs>
</svg>
