<svg width="10" height="9" viewBox="0 0 10 9" fill="none" xmlns="http://www.w3.org/2000/svg">
<g clip-path="url(#clip0_214_12278)">
<path fill-rule="evenodd" clip-rule="evenodd" d="M9.33591 4.35838C9.33591 6.76235 7.38637 8.71189 4.98241 8.71189C2.57844 8.71189 0.628906 6.76235 0.628906 4.35838C0.628906 1.95442 2.57844 0.00488281 4.98241 0.00488281C7.38637 0.00488281 9.33591 1.95442 9.33591 4.35838Z" fill="#29296E"/>
<path fill-rule="evenodd" clip-rule="evenodd" d="M7.02175 3.1959L6.91075 2.85595C6.88993 2.78657 6.83443 2.73454 6.76505 2.71025L6.4251 2.60619C6.37653 2.59231 6.37653 2.5264 6.4251 2.50906L6.76505 2.39805C6.83443 2.37724 6.88646 2.32173 6.91075 2.25236L7.01481 1.9124C7.02869 1.86384 7.0946 1.86384 7.11194 1.9124L7.22295 2.25236C7.24376 2.32173 7.29926 2.37377 7.36864 2.39805L7.7086 2.50212C7.75716 2.51599 7.75716 2.5819 7.7086 2.59925L7.36864 2.71025C7.29926 2.73107 7.24723 2.78657 7.22295 2.85595L7.11888 3.1959C7.10154 3.241 7.03563 3.241 7.02175 3.1959Z" fill="#FAFAFA"/>
<path fill-rule="evenodd" clip-rule="evenodd" d="M1.00977 4.29015C1.11383 4.08548 1.3185 3.92938 1.53357 3.83225C1.74865 3.73512 1.98453 3.67615 2.21695 3.65881C2.68526 3.61718 3.14315 3.69349 3.55943 3.83225C3.7745 3.89816 3.96529 3.98488 4.16302 4.07508C4.26015 4.12017 4.35034 4.17568 4.444 4.22771L4.7007 4.37687C4.98515 4.55032 5.2592 4.70642 5.5159 4.82783C5.77607 4.94578 6.00849 5.02903 6.22703 5.07066C6.44557 5.11229 6.67105 5.11229 6.9451 5.04984C7.21914 4.9874 7.52441 4.85212 7.84702 4.68214C8.16963 4.50869 8.50264 4.29709 8.88076 4.09242C8.8426 4.52257 8.72119 4.92843 8.53386 5.32042C8.3396 5.70547 8.06903 6.08358 7.67704 6.38885C7.29199 6.69758 6.76124 6.90919 6.22356 6.94388C5.68241 6.98204 5.17248 6.86062 4.73539 6.68024C4.29831 6.49639 3.91673 6.25703 3.58371 5.99339C3.49005 5.92055 3.44148 5.87892 3.3721 5.81995L3.18131 5.64997C3.05296 5.54937 2.92808 5.42796 2.79973 5.32736C2.5465 5.10535 2.29327 4.89027 2.01575 4.70642C1.877 4.61276 1.73477 4.52257 1.57173 4.44625C1.49195 4.40809 1.40522 4.3734 1.31156 4.34565C1.2179 4.31443 1.12424 4.29709 1.00977 4.29015Z" fill="#FF4F0A"/>
<path fill-rule="evenodd" clip-rule="evenodd" d="M1.00977 4.29711C1.0618 3.85655 1.26647 3.44375 1.59601 3.09339C1.92209 2.7465 2.43549 2.47592 3.00093 2.44123C3.28191 2.42389 3.56636 2.45511 3.82653 2.52448C4.0867 2.59733 4.32953 2.7014 4.55154 2.82628C4.66254 2.88872 4.76314 2.9581 4.86721 3.02401L5.14126 3.23215L5.56793 3.56863C5.84545 3.78717 6.10909 3.99184 6.35191 4.16182C6.5982 4.33179 6.80634 4.45321 7.00754 4.52605C7.20527 4.60584 7.45503 4.62318 7.78805 4.53993C7.95109 4.50177 8.12453 4.43239 8.30838 4.35608C8.48877 4.27976 8.67956 4.1861 8.8877 4.09591C8.86341 4.31792 8.81832 4.53646 8.73159 4.7446C8.64834 4.95273 8.5408 5.1574 8.39164 5.34819C8.31532 5.44185 8.23207 5.53551 8.13494 5.61877C8.03781 5.70202 7.93027 5.78181 7.81233 5.85118C7.57644 5.98647 7.29546 6.08707 7.00754 6.12523C6.71962 6.15992 6.4317 6.14257 6.16806 6.08707C5.90442 6.03157 5.66506 5.94484 5.44305 5.84425C5.0025 5.63958 4.63479 5.38288 4.30871 5.10883C4.14567 4.97355 3.99304 4.83132 3.84735 4.68562L3.67737 4.51218C3.62534 4.46361 3.5733 4.41158 3.52127 4.36648C3.31313 4.18263 3.11887 4.04041 2.90727 3.95368C2.69566 3.86002 2.42509 3.82533 2.09207 3.88777C1.75905 3.95368 1.39829 4.09591 1.00977 4.29711Z" fill="#FAFAFA"/>
<path fill-rule="evenodd" clip-rule="evenodd" d="M2.78057 6.56021C2.78057 6.6955 2.67303 6.80303 2.53775 6.80303C2.40246 6.80303 2.29492 6.6955 2.29492 6.56021C2.29492 6.42492 2.40246 6.31738 2.53775 6.31738C2.67303 6.31738 2.78057 6.42492 2.78057 6.56021Z" fill="#FAFAFA"/>
<path fill-rule="evenodd" clip-rule="evenodd" d="M2.78057 6.56021C2.78057 6.6955 2.67303 6.80303 2.53775 6.80303C2.40246 6.80303 2.29492 6.6955 2.29492 6.56021C2.29492 6.42492 2.40246 6.31738 2.53775 6.31738C2.67303 6.31738 2.78057 6.42492 2.78057 6.56021Z" fill="#FAFAFA"/>
</g>
<defs>
<clipPath id="clip0_214_12278">
<rect width="8.707" height="8.707" fill="white" transform="translate(0.628906 0.00488281)"/>
</clipPath>
</defs>
</svg>
