<svg width="64" height="17" viewBox="0 0 64 17" fill="none" xmlns="http://www.w3.org/2000/svg">
<path d="M20.7162 13.8336L19.5939 12.4821L20.9507 6.77419L22.537 5.64793L24.3876 9.07462L28.4032 4.32039L25.9539 14.2075L26.2382 8.39887L23.5795 11.7537L21.9384 8.17362L20.7162 13.8336Z" fill="white"/>
<path d="M31.4709 10.9629L30.603 7.64644L26.7121 11.2265L31.4709 10.9629ZM31.4809 11.0108L25.7045 12.7313L24.5572 11.5284L31.1317 5.64314L33.2318 12.0316L32.294 14.1068L31.4809 11.0108Z" fill="white"/>
<path d="M35.3219 10.2105L40.7192 7.85252L35.691 6.89879L35.3219 10.2105ZM35.3169 10.244L34.9827 13.2346L33.3415 12.1035L34.6485 6.22304L36.0252 5.69586L42.4651 7.10008L42.6746 8.32698L37.801 9.97562L45.3283 13.5844L35.3169 10.244Z" fill="white"/>
<path d="M46.7201 11.3319L47.179 7.3493L41.9413 11.2552L46.7201 11.3319ZM47.2039 11.768L46.4008 14.1356L46.6602 11.8543L40.8988 12.7313L39.6517 11.1786L47.9871 5.54729L48.6655 7.4739L47.3486 11.3415L49.7629 11.3798L47.2039 11.768Z" fill="white"/>
<path d="M53.2647 11.7632L49.9275 12.7313L48.4161 11.3942L49.9874 6.09364L51.5537 5.13034L50.2168 11.0348L51.9228 11.3607L54.4469 5.37955L53.2647 11.7632Z" fill="white"/>
<path d="M54.9258 13.7522L54.0728 11.3559L55.3897 5.00094L56.7864 5.64793L54.9258 13.7522Z" fill="white"/>
<path d="M63.75 6.89879L62.7324 7.4739L62.4979 7.04736L58.0434 9.07462L63.5156 9.97562L63.6702 11.4038L56.0631 13.6084L61.4055 10.8527L56.088 9.85102L56.7365 8.47555L63.331 5.49457L63.75 6.89879Z" fill="white"/>
<path d="M20.7504 2.25829V1.85419H22.3216V2.26185C22.3216 2.30339 22.3062 2.339 22.2753 2.36867C22.2444 2.39715 22.208 2.41139 22.166 2.41139C22.1228 2.41139 22.0851 2.39656 22.053 2.36689C22.0221 2.33722 22.0067 2.30221 22.0067 2.26185V2.15326H21.6917V4.06699C21.6917 4.10852 21.6762 4.14413 21.6453 4.1738C21.6145 4.20228 21.578 4.21652 21.536 4.21652C21.4915 4.21652 21.4539 4.20228 21.423 4.1738C21.3921 4.14413 21.3767 4.10852 21.3767 4.06699V2.15326H21.0617V2.25829C21.0617 2.29983 21.0462 2.33544 21.0154 2.36511C20.9857 2.39359 20.9493 2.40783 20.906 2.40783C20.8628 2.40783 20.8257 2.39359 20.7949 2.36511C20.7652 2.33544 20.7504 2.29983 20.7504 2.25829Z" fill="white"/>
<path d="M23.0406 4.06699V2.00016C23.0406 1.95981 23.0554 1.9248 23.085 1.89513C23.1159 1.86546 23.153 1.85063 23.1962 1.85063C23.2382 1.85063 23.2747 1.86546 23.3055 1.89513C23.3364 1.9248 23.3519 1.95981 23.3519 2.00016V2.88137H24.3005V2.00016C24.3005 1.95981 24.3154 1.9248 24.345 1.89513C24.3759 1.86546 24.413 1.85063 24.4562 1.85063C24.4994 1.85063 24.5359 1.86546 24.5655 1.89513C24.5964 1.9248 24.6118 1.961 24.6118 2.00372V4.06699C24.6118 4.10734 24.5958 4.14235 24.5637 4.17202C24.5328 4.20169 24.497 4.21652 24.4562 4.21652C24.4117 4.21652 24.3747 4.20228 24.345 4.1738C24.3154 4.14413 24.3005 4.10852 24.3005 4.06699V3.18044H23.3556V4.06699C23.3556 4.10734 23.3395 4.14235 23.3074 4.17202C23.2765 4.20169 23.2395 4.21652 23.1962 4.21652C23.1542 4.21652 23.1178 4.20228 23.0869 4.1738C23.056 4.14413 23.0406 4.10852 23.0406 4.06699Z" fill="white"/>
<path d="M26.7538 2.15326H25.6532V2.88137H26.1275C26.1695 2.88137 26.2059 2.8962 26.2368 2.92587C26.2677 2.95554 26.2831 2.99055 26.2831 3.0309C26.2831 3.07363 26.2677 3.10983 26.2368 3.1395C26.2072 3.16917 26.1707 3.184 26.1275 3.184H25.6532V3.91745H26.7575C26.7995 3.91745 26.8359 3.93228 26.8668 3.96195C26.8977 3.99044 26.9131 4.02545 26.9131 4.06699C26.9131 4.10852 26.8971 4.14413 26.865 4.1738C26.8341 4.20228 26.797 4.21652 26.7538 4.21652H25.3419V1.85063H26.7538C26.797 1.85063 26.8341 1.86606 26.865 1.89691C26.8971 1.92658 26.9131 1.96219 26.9131 2.00372C26.9131 2.04408 26.8971 2.07909 26.865 2.10876C26.8341 2.13843 26.797 2.15326 26.7538 2.15326Z" fill="white"/>
<path d="M14.8502 14.1688C13.1794 13.5503 13.1711 14.6741 12.9073 15.5589C9.73147 14.6215 6.62702 13.5343 3.38154 14.1242C2.93686 13.6459 3.54746 13.0083 2.89538 12.7628C2.45734 12.5938 1.99109 12.4902 1.48336 12.3435C1.85338 11.1176 2.14706 9.89488 2.59672 8.72637C3.18243 7.20555 3.24216 5.64647 3.18243 4.06667C3.16916 3.74784 3.18243 3.42901 3.18243 3.01613C4.70396 3.4338 4.46503 2.20311 4.84167 1.42198C8.05065 2.28123 11.1866 3.59002 14.7971 2.89338C14.3541 4.29782 15.2949 4.4142 16.3087 4.58796C15.1572 7.65191 14.2579 10.7159 14.8502 14.1688ZM3.41472 13.8261H14.4802V3.22815H3.41472V13.8261Z" fill="url(#paint0_linear_214_12265)"/>
<path d="M0 8.42189L1.35726 7.17367C1.95459 8.14929 2.34119 9.12012 1.5713 10.2233C1.07353 9.66054 0.567462 9.07389 0 8.42189Z" fill="url(#paint1_linear_214_12265)"/>
<path d="M8.83713 17L7.54956 15.6306C8.5169 15.0982 9.54065 14.7108 10.737 15.4712L8.83713 17Z" fill="url(#paint2_linear_214_12265)"/>
<path d="M16.1113 6.69542L17.6892 8.42189L16.2855 9.60634C15.5969 8.70086 15.5305 8.04407 16.1113 6.69542Z" fill="url(#paint3_linear_214_12265)"/>
<path d="M10.1313 1.34387C9.20383 1.86994 8.18339 2.24137 7.06838 1.53517L8.88857 0L10.1313 1.34387Z" fill="url(#paint4_linear_214_12265)"/>
<path d="M12.2303 10.126C12.0743 9.96662 11.9217 9.81836 11.7624 9.66851C11.429 9.37373 11.1158 9.05849 10.8249 8.72478C10.503 8.56536 10.2641 8.62275 10.1081 9.0436C9.9339 9.52185 9.49917 9.72909 8.96988 9.71474C8.44058 9.70039 8.14025 9.44852 7.87643 9.03882C7.74701 8.83477 7.49978 8.69767 7.30565 8.53507L7.28408 8.76782C6.89914 9.08665 6.50922 9.38316 6.13755 9.70677C6.03799 9.79285 5.91355 9.96981 5.94673 10.0495C6.01905 10.204 6.14604 10.3288 6.30513 10.4018C6.90246 10.6808 7.20776 11.2132 7.06672 11.7967C7.00146 12.0582 6.84442 12.2902 6.62204 12.4535C6.46115 12.5728 6.27197 12.652 6.07143 12.6839C5.87089 12.7158 5.66524 12.6994 5.4729 12.6362C5.28056 12.5731 5.10753 12.4651 4.96928 12.3219C4.83103 12.1787 4.73189 12.0048 4.68073 11.8158C4.61612 11.5659 4.6384 11.3026 4.74415 11.066C4.84991 10.8294 5.03334 10.6325 5.26644 10.5054C5.43015 10.431 5.59608 10.3641 5.76421 10.3046V9.77851L5.48214 9.68605C5.23132 9.61701 5.0114 9.47004 4.85678 9.26812C4.70217 9.06621 4.62158 8.82075 4.62763 8.57014C4.62763 8.05204 4.9097 7.6838 5.41411 7.45424C5.56013 7.38888 5.74596 7.23265 5.75592 7.1115C5.76587 6.99034 5.58999 6.8118 5.44896 6.74325C4.81679 6.43717 4.52476 5.94617 4.66911 5.37387C4.72737 5.11164 4.87771 4.87664 5.09493 4.70829C5.31215 4.53994 5.58303 4.44848 5.86211 4.44927C6.14207 4.44665 6.41487 4.5342 6.63698 4.69796C6.85675 4.86554 7.01064 5.09997 7.07336 5.36272C7.20112 5.94139 6.90743 6.43239 6.27692 6.73209C6.19854 6.77031 6.12885 6.82311 6.07188 6.88742C6.01491 6.95173 5.97181 7.02627 5.94507 7.10671C5.92682 7.18642 6.1392 7.31714 6.25037 7.42554C6.50756 7.67423 6.76474 7.92132 7.0269 8.16363C7.14636 8.27841 7.28242 8.46174 7.41516 8.46493C7.49929 8.45061 7.57873 8.41746 7.64705 8.36816C7.71536 8.31886 7.77064 8.25481 7.8084 8.18117C8.04236 7.6822 8.39412 7.37294 8.98481 7.36816C9.5755 7.36337 9.98035 7.66945 10.201 8.20189C10.2351 8.27149 10.2866 8.33191 10.3509 8.3778C10.4151 8.42369 10.4902 8.45362 10.5694 8.46493C10.7187 8.45058 10.8631 8.30551 10.9875 8.18914C11.2663 7.93886 11.5334 7.67742 11.8005 7.41598C11.9449 7.27729 12.0793 7.12903 12.2983 6.90904C11.9665 6.79586 11.8005 6.74962 11.6346 6.68108C11.3854 6.56831 11.1827 6.37861 11.0589 6.14225C10.9372 5.90443 10.9021 5.63428 10.9591 5.37501C11.0162 5.11575 11.162 4.88234 11.3734 4.71212C11.5848 4.5419 11.8495 4.4447 12.1251 4.43607C12.4008 4.42743 12.6715 4.50785 12.894 4.66448C13.119 4.82445 13.2805 5.0533 13.3519 5.3133C13.4246 5.56259 13.4082 5.82811 13.3054 6.06739C13.2025 6.30668 13.0191 6.50592 12.7845 6.63325C12.1208 7.01107 12.1623 7.1115 12.7646 7.55148C13.0857 7.81545 13.3015 8.17831 13.3752 8.57811C13.4498 9.05636 13.108 9.41982 12.6418 9.65257C12.5636 9.69181 12.4954 9.74717 12.442 9.81469C12.3887 9.88221 12.3515 9.96021 12.3332 10.0431C12.3505 10.1251 12.3862 10.2026 12.4378 10.27C12.4893 10.3374 12.5555 10.3933 12.6318 10.4337C13.259 10.7764 13.5212 11.2627 13.347 11.8381C13.2698 12.1006 13.1007 12.3295 12.8682 12.486C12.6357 12.6425 12.3541 12.7172 12.071 12.6974C11.7878 12.6772 11.5203 12.5647 11.3127 12.3786C11.1064 12.1918 10.9734 11.9424 10.9361 11.6724C10.8631 11.0857 11.2065 10.6075 11.8686 10.3843C11.9383 10.3604 12.0146 10.3428 12.0859 10.3237L12.2303 10.126Z" fill="url(#paint5_linear_214_12265)"/>
<defs>
<linearGradient id="paint0_linear_214_12265" x1="65.4267" y1="2.48444" x2="53.567" y2="31.8416" gradientUnits="userSpaceOnUse">
<stop offset="0.36" stop-color="#00ECFF"/>
<stop offset="1" stop-color="#FFEB81"/>
</linearGradient>
<linearGradient id="paint1_linear_214_12265" x1="75.3963" y1="6.52274" x2="63.5417" y2="35.8937" gradientUnits="userSpaceOnUse">
<stop offset="0.36" stop-color="#00ECFF"/>
<stop offset="1" stop-color="#FFEB81"/>
</linearGradient>
<linearGradient id="paint2_linear_214_12265" x1="50.3761" y1="-3.59034" x2="38.5514" y2="25.7472" gradientUnits="userSpaceOnUse">
<stop offset="0.36" stop-color="#00ECFF"/>
<stop offset="1" stop-color="#FFEB81"/>
</linearGradient>
<linearGradient id="paint3_linear_214_12265" x1="70.2433" y1="4.42223" x2="58.3781" y2="33.7849" gradientUnits="userSpaceOnUse">
<stop offset="0.36" stop-color="#00ECFF"/>
<stop offset="1" stop-color="#FFEB81"/>
</linearGradient>
<linearGradient id="paint4_linear_214_12265" x1="61.0218" y1="0.690015" x2="49.1775" y2="30.0481" gradientUnits="userSpaceOnUse">
<stop offset="0.36" stop-color="#00ECFF"/>
<stop offset="1" stop-color="#FFEB81"/>
</linearGradient>
<linearGradient id="paint5_linear_214_12265" x1="13.6024" y1="5.59387" x2="5.80621" y2="11.0642" gradientUnits="userSpaceOnUse">
<stop offset="0.36" stop-color="#00ECFF"/>
<stop offset="1" stop-color="#FFEB81"/>
</linearGradient>
</defs>
</svg>
