<svg width="30" height="30" viewBox="0 0 30 30" fill="none" xmlns="http://www.w3.org/2000/svg">
<path d="M15 30C23.2843 30 30 23.2843 30 15C30 6.71573 23.2843 0 15 0C6.71573 0 0 6.71573 0 15C0 23.2843 6.71573 30 15 30Z" fill="url(#paint0_linear_6024_5527)"/>
<path d="M15 27C21.6274 27 27 21.6274 27 15C27 8.37258 21.6274 3 15 3C8.37258 3 3 8.37258 3 15C3 21.6274 8.37258 27 15 27Z" fill="url(#paint1_linear_6024_5527)"/>
<path d="M15.0006 24.8977C20.4682 24.8977 24.9006 20.4653 24.9006 14.9977C24.9006 9.53005 20.4682 5.09766 15.0006 5.09766C9.53297 5.09766 5.10059 9.53005 5.10059 14.9977C5.10059 20.4653 9.53297 24.8977 15.0006 24.8977Z" fill="url(#paint2_linear_6024_5527)"/>
<path d="M14.9997 22.8012C19.3075 22.8012 22.7997 19.309 22.7997 15.0012C22.7997 10.6933 19.3075 7.20117 14.9997 7.20117C10.6919 7.20117 7.19971 10.6933 7.19971 15.0012C7.19971 19.309 10.6919 22.8012 14.9997 22.8012Z" fill="url(#paint3_linear_6024_5527)"/>
<path d="M14.9997 21.3012C18.4791 21.3012 21.2997 18.4806 21.2997 15.0012C21.2997 11.5218 18.4791 8.70117 14.9997 8.70117C11.5203 8.70117 8.69971 11.5218 8.69971 15.0012C8.69971 18.4806 11.5203 21.3012 14.9997 21.3012Z" fill="url(#paint4_linear_6024_5527)"/>
<path d="M15.0006 18.8977C17.1545 18.8977 18.9006 17.1516 18.9006 14.9977C18.9006 12.8438 17.1545 11.0977 15.0006 11.0977C12.8467 11.0977 11.1006 12.8438 11.1006 14.9977C11.1006 17.1516 12.8467 18.8977 15.0006 18.8977Z" fill="url(#paint5_linear_6024_5527)"/>
<defs>
<linearGradient id="paint0_linear_6024_5527" x1="2.01" y1="-189" x2="27.99" y2="-189" gradientUnits="userSpaceOnUse">
<stop stop-color="white"/>
<stop offset="1" stop-color="#949494"/>
</linearGradient>
<linearGradient id="paint1_linear_6024_5527" x1="4.62" y1="-189" x2="25.395" y2="-189" gradientUnits="userSpaceOnUse">
<stop stop-color="#949494"/>
<stop offset="1" stop-color="white"/>
</linearGradient>
<linearGradient id="paint2_linear_6024_5527" x1="6.43559" y1="10.0477" x2="23.5806" y2="19.9477" gradientUnits="userSpaceOnUse">
<stop stop-color="white"/>
<stop offset="1" stop-color="#949494"/>
</linearGradient>
<linearGradient id="paint3_linear_6024_5527" x1="7.19971" y1="15.0012" x2="22.7997" y2="15.0012" gradientUnits="userSpaceOnUse">
<stop stop-color="#949494"/>
<stop offset="1" stop-color="white"/>
</linearGradient>
<linearGradient id="paint4_linear_6024_5527" x1="9.55471" y1="11.8512" x2="20.4597" y2="18.1512" gradientUnits="userSpaceOnUse">
<stop stop-color="white"/>
<stop offset="1" stop-color="#949494"/>
</linearGradient>
<linearGradient id="paint5_linear_6024_5527" x1="11.6256" y1="13.0477" x2="18.3756" y2="16.9477" gradientUnits="userSpaceOnUse">
<stop stop-color="#949494"/>
<stop offset="0.1" stop-color="#AEAEAE"/>
<stop offset="0.23" stop-color="#C9C9C9"/>
<stop offset="0.38" stop-color="#DFDFDF"/>
<stop offset="0.54" stop-color="#EEEEEE"/>
<stop offset="0.72" stop-color="#F7F7F7"/>
<stop offset="1" stop-color="#FAFAFA"/>
</linearGradient>
</defs>
</svg>
