<svg width="49" height="46" viewBox="0 0 49 46" fill="none" xmlns="http://www.w3.org/2000/svg">
<path d="M19.9883 15.2531C20.093 14.9353 20.7736 14.5656 21.1517 14.4248L21.7424 15.4694L23.3211 15.8176C23.1244 15.8176 21.4504 16.5969 20.7256 16.9783V15.8056C20.3655 15.5468 19.9883 15.2531 19.9883 15.2531Z" fill="#408CFF"/>
<path d="M29.1094 15.2531C29.0047 14.9353 28.324 14.5656 27.9459 14.4248L27.3553 15.4694L25.6597 15.8176C25.8563 15.8176 27.6473 16.5969 28.372 16.9783V15.8056C28.7322 15.5468 29.1094 15.2531 29.1094 15.2531Z" fill="#408CFF"/>
<path d="M22.6192 15.0049L23.3209 15.8174L21.7422 15.4692L22.6192 15.0049Z" fill="#0066FF"/>
<path d="M26.42 15.0049L25.6598 15.8174L27.3555 15.4692L26.42 15.0049Z" fill="#0066FF"/>
<path d="M24.4993 4.79102L26.3729 6.96729H22.6258L24.4993 4.79102Z" fill="url(#paint0_linear_214_16261)"/>
<path d="M24.5007 17.21L22.6271 15.0337L26.3742 15.0337L24.5007 17.21Z" fill="url(#paint1_linear_214_16261)"/>
<g filter="url(#filter0_f_214_16261)">
<path d="M24.4493 5.34766L24.6664 6.00273L25.3264 6.21817L24.6664 6.43361L24.4493 7.08868L24.2323 6.43361L23.5723 6.21817L24.2323 6.00273L24.4493 5.34766Z" fill="white"/>
<path d="M24.4493 5.66559L24.5714 6.03418L24.5873 6.08212L24.6353 6.09779L25.0041 6.21817L24.6353 6.33854L24.5873 6.35421L24.5714 6.40215L24.4493 6.77074L24.3272 6.40215L24.3113 6.35421L24.2633 6.33854L23.8945 6.21817L24.2633 6.09779L24.3113 6.08212L24.3272 6.03418L24.4493 5.66559Z" stroke="#3E74FF" stroke-width="0.2"/>
</g>
<path d="M29.9183 14.1057L27.0827 14.628L28.9562 11.4071L29.9183 14.1057Z" fill="url(#paint2_linear_214_16261)"/>
<path d="M19.0817 7.89628L21.9173 7.37397L20.0438 10.5949L19.0817 7.89628Z" fill="url(#paint3_linear_214_16261)"/>
<path d="M29.9176 7.89669L28.9555 10.5953L27.082 7.37438L29.9176 7.89669Z" fill="url(#paint4_linear_214_16261)"/>
<path d="M19.0824 14.1053L20.0445 11.4067L21.918 14.6276L19.0824 14.1053Z" fill="url(#paint5_linear_214_16261)"/>
<path d="M28.8527 10.9434C28.8527 13.2919 26.9335 15.2021 24.5582 15.2021C22.1829 15.2021 20.2637 13.2919 20.2637 10.9434C20.2637 8.59481 22.1829 6.68457 24.5582 6.68457C26.9335 6.68457 28.8527 8.59481 28.8527 10.9434Z" fill="url(#paint6_linear_214_16261)" stroke="url(#paint7_linear_214_16261)"/>
<g filter="url(#filter1_i_214_16261)">
<ellipse cx="24.5575" cy="10.9421" rx="4.20983" ry="4.17845" fill="url(#paint8_linear_214_16261)"/>
</g>
<g filter="url(#filter2_ii_214_16261)">
<ellipse cx="24.559" cy="10.942" rx="3.50819" ry="3.48204" fill="url(#paint9_linear_214_16261)"/>
</g>
<g filter="url(#filter3_d_214_16261)">
<path d="M23.0403 11.829C22.8022 11.1893 23.5174 10.6159 24.09 10.9875C24.6818 11.3716 24.4098 12.2903 23.7043 12.2903C23.4083 12.2903 23.1436 12.1063 23.0403 11.829Z" fill="url(#paint10_linear_214_16261)"/>
<path d="M26.071 11.8296C26.3126 11.1885 25.5978 10.6096 25.021 10.9792C24.4224 11.3628 24.694 12.2903 25.405 12.2903C25.7012 12.2903 25.9665 12.1068 26.071 11.8296Z" fill="url(#paint11_linear_214_16261)"/>
<path d="M23.7431 11.0063C24.0756 10.327 25.0438 10.327 25.3763 11.0063C25.672 11.6103 25.2322 12.3152 24.5597 12.3152C23.8872 12.3152 23.4474 11.6103 23.7431 11.0063Z" fill="url(#paint12_linear_214_16261)"/>
<mask id="mask0_214_16261" style="mask-type:alpha" maskUnits="userSpaceOnUse" x="23" y="10" width="3" height="3">
<path d="M23.7431 11.0063C24.0756 10.327 25.0438 10.327 25.3763 11.0063C25.672 11.6103 25.2322 12.3152 24.5597 12.3152C23.8872 12.3152 23.4474 11.6103 23.7431 11.0063Z" fill="url(#paint13_linear_214_16261)"/>
</mask>
<g mask="url(#mask0_214_16261)">
<g filter="url(#filter4_f_214_16261)">
<ellipse cx="1.52633" cy="0.414225" rx="1.52633" ry="0.414225" transform="matrix(0.204188 0.978932 -0.979534 0.201279 25.5039 9.71094)" fill="#7BB0FF"/>
</g>
</g>
<ellipse cx="24.5593" cy="9.11978" rx="0.268264" ry="0.266264" fill="url(#paint14_linear_214_16261)"/>
<ellipse cx="22.4402" cy="9.89461" rx="0.219489" ry="0.217852" fill="url(#paint15_linear_214_16261)"/>
<ellipse cx="26.6687" cy="9.89461" rx="0.219489" ry="0.217852" fill="url(#paint16_linear_214_16261)"/>
<rect x="23.2012" y="12.5254" width="2.66814" height="0.361125" rx="0.180562" fill="url(#paint17_linear_214_16261)"/>
</g>
<path d="M22.6868 7.9248L22.7736 8.18683L23.0376 8.27301L22.7736 8.35918L22.6868 8.62121L22.5999 8.35918L22.3359 8.27301L22.5999 8.18683L22.6868 7.9248Z" fill="white"/>
<path d="M21.635 6.76367L21.8376 7.37507L22.4536 7.57615L21.8376 7.77723L21.635 8.38862L21.4324 7.77723L20.8164 7.57615L21.4324 7.37507L21.635 6.76367Z" fill="white"/>
<g filter="url(#filter5_d_214_16261)">
<path d="M20.8066 13.9872L21.7422 15.4697C24.2564 14.1349 26.6536 15.1214 27.3553 15.4697L28.2908 13.9872C28.0233 13.6805 26.9022 13.0603 24.558 13.0331C22.2139 13.0058 21.0804 13.6578 20.8066 13.9872Z" fill="url(#paint18_linear_214_16261)"/>
</g>
<defs>
<filter id="filter0_f_214_16261" x="18.5723" y="0.347656" width="11.7539" height="11.7412" filterUnits="userSpaceOnUse" color-interpolation-filters="sRGB">
<feFlood flood-opacity="0" result="BackgroundImageFix"/>
<feBlend mode="normal" in="SourceGraphic" in2="BackgroundImageFix" result="shape"/>
<feGaussianBlur stdDeviation="2.5" result="effect1_foregroundBlur_214_16261"/>
</filter>
<filter id="filter1_i_214_16261" x="20.3477" y="4.76367" width="8.41992" height="10.3564" filterUnits="userSpaceOnUse" color-interpolation-filters="sRGB">
<feFlood flood-opacity="0" result="BackgroundImageFix"/>
<feBlend mode="normal" in="SourceGraphic" in2="BackgroundImageFix" result="shape"/>
<feColorMatrix in="SourceAlpha" type="matrix" values="0 0 0 0 0 0 0 0 0 0 0 0 0 0 0 0 0 0 127 0" result="hardAlpha"/>
<feOffset dy="-2"/>
<feGaussianBlur stdDeviation="2"/>
<feComposite in2="hardAlpha" operator="arithmetic" k2="-1" k3="1"/>
<feColorMatrix type="matrix" values="0 0 0 0 0 0 0 0 0 0.172667 0 0 0 0 0.616667 0 0 0 0.15 0"/>
<feBlend mode="normal" in2="shape" result="effect1_innerShadow_214_16261"/>
</filter>
<filter id="filter2_ii_214_16261" x="21.0508" y="5.45996" width="7.01562" height="10.9639" filterUnits="userSpaceOnUse" color-interpolation-filters="sRGB">
<feFlood flood-opacity="0" result="BackgroundImageFix"/>
<feBlend mode="normal" in="SourceGraphic" in2="BackgroundImageFix" result="shape"/>
<feColorMatrix in="SourceAlpha" type="matrix" values="0 0 0 0 0 0 0 0 0 0 0 0 0 0 0 0 0 0 127 0" result="hardAlpha"/>
<feOffset dy="2"/>
<feGaussianBlur stdDeviation="5"/>
<feComposite in2="hardAlpha" operator="arithmetic" k2="-1" k3="1"/>
<feColorMatrix type="matrix" values="0 0 0 0 0 0 0 0 0 0.193203 0 0 0 0 0.4875 0 0 0 1 0"/>
<feBlend mode="normal" in2="shape" result="effect1_innerShadow_214_16261"/>
<feColorMatrix in="SourceAlpha" type="matrix" values="0 0 0 0 0 0 0 0 0 0 0 0 0 0 0 0 0 0 127 0" result="hardAlpha"/>
<feOffset dy="-2"/>
<feGaussianBlur stdDeviation="5"/>
<feComposite in2="hardAlpha" operator="arithmetic" k2="-1" k3="1"/>
<feColorMatrix type="matrix" values="0 0 0 0 0.4375 0 0 0 0 0.62875 0 0 0 0 1 0 0 0 1 0"/>
<feBlend mode="normal" in2="effect1_innerShadow_214_16261" result="effect2_innerShadow_214_16261"/>
</filter>
<filter id="filter3_d_214_16261" x="18.2207" y="6.85352" width="12.668" height="12.0332" filterUnits="userSpaceOnUse" color-interpolation-filters="sRGB">
<feFlood flood-opacity="0" result="BackgroundImageFix"/>
<feColorMatrix in="SourceAlpha" type="matrix" values="0 0 0 0 0 0 0 0 0 0 0 0 0 0 0 0 0 0 127 0" result="hardAlpha"/>
<feOffset dy="2"/>
<feGaussianBlur stdDeviation="2"/>
<feComposite in2="hardAlpha" operator="out"/>
<feColorMatrix type="matrix" values="0 0 0 0 0.111875 0 0 0 0 0.364131 0 0 0 0 0.745833 0 0 0 0.68 0"/>
<feBlend mode="normal" in2="BackgroundImageFix" result="effect1_dropShadow_214_16261"/>
<feBlend mode="normal" in="SourceGraphic" in2="effect1_dropShadow_214_16261" result="shape"/>
</filter>
<filter id="filter4_f_214_16261" x="18.8984" y="3.79199" width="13.0234" height="14.9932" filterUnits="userSpaceOnUse" color-interpolation-filters="sRGB">
<feFlood flood-opacity="0" result="BackgroundImageFix"/>
<feBlend mode="normal" in="SourceGraphic" in2="BackgroundImageFix" result="shape"/>
<feGaussianBlur stdDeviation="3" result="effect1_foregroundBlur_214_16261"/>
</filter>
<filter id="filter5_d_214_16261" x="0.806641" y="3.03223" width="47.4844" height="42.4375" filterUnits="userSpaceOnUse" color-interpolation-filters="sRGB">
<feFlood flood-opacity="0" result="BackgroundImageFix"/>
<feColorMatrix in="SourceAlpha" type="matrix" values="0 0 0 0 0 0 0 0 0 0 0 0 0 0 0 0 0 0 127 0" result="hardAlpha"/>
<feOffset dy="10"/>
<feGaussianBlur stdDeviation="10"/>
<feComposite in2="hardAlpha" operator="out"/>
<feColorMatrix type="matrix" values="0 0 0 0 0 0 0 0 0 0 0 0 0 0 0 0 0 0 0.3 0"/>
<feBlend mode="normal" in2="BackgroundImageFix" result="effect1_dropShadow_214_16261"/>
<feBlend mode="normal" in="SourceGraphic" in2="effect1_dropShadow_214_16261" result="shape"/>
</filter>
<linearGradient id="paint0_linear_214_16261" x1="23.7205" y1="5.66153" x2="25.2781" y2="5.66153" gradientUnits="userSpaceOnUse">
<stop offset="0.488759" stop-color="#E3EBFF"/>
<stop offset="0.488859" stop-color="#D1E5EE"/>
<stop offset="0.488959" stop-color="#B3C2D9"/>
</linearGradient>
<linearGradient id="paint1_linear_214_16261" x1="25.2795" y1="16.3395" x2="23.7219" y2="16.3395" gradientUnits="userSpaceOnUse">
<stop offset="0.488759" stop-color="#E3EBFF"/>
<stop offset="0.488859" stop-color="#D1E5EE"/>
<stop offset="0.488959" stop-color="#B3C2D9"/>
</linearGradient>
<linearGradient id="paint2_linear_214_16261" x1="29.5482" y1="13.001" x2="28.7781" y2="14.3449" gradientUnits="userSpaceOnUse">
<stop offset="0.488759" stop-color="#E3EBFF"/>
<stop offset="0.488859" stop-color="#D1E5EE"/>
<stop offset="0.488959" stop-color="#B3C2D9"/>
</linearGradient>
<linearGradient id="paint3_linear_214_16261" x1="19.4518" y1="9.00098" x2="20.2219" y2="7.6571" gradientUnits="userSpaceOnUse">
<stop offset="0.488759" stop-color="#E3EBFF"/>
<stop offset="0.488859" stop-color="#D1E5EE"/>
<stop offset="0.488959" stop-color="#B3C2D9"/>
</linearGradient>
<linearGradient id="paint4_linear_214_16261" x1="28.7687" y1="7.66249" x2="29.5388" y2="9.00638" gradientUnits="userSpaceOnUse">
<stop offset="0.488759" stop-color="#E3EBFF"/>
<stop offset="0.488859" stop-color="#D1E5EE"/>
<stop offset="0.488959" stop-color="#B3C2D9"/>
</linearGradient>
<linearGradient id="paint5_linear_214_16261" x1="20.2313" y1="14.3395" x2="19.4612" y2="12.9956" gradientUnits="userSpaceOnUse">
<stop offset="0.488759" stop-color="#E3EBFF"/>
<stop offset="0.488859" stop-color="#D1E5EE"/>
<stop offset="0.488959" stop-color="#B3C2D9"/>
</linearGradient>
<linearGradient id="paint6_linear_214_16261" x1="21.4848" y1="7.40477" x2="27.8245" y2="14.5291" gradientUnits="userSpaceOnUse">
<stop stop-color="#D5E3FF"/>
<stop offset="0.520833" stop-color="#F0F5FF"/>
<stop offset="1" stop-color="#D0DFFE"/>
</linearGradient>
<linearGradient id="paint7_linear_214_16261" x1="24.5582" y1="6.18457" x2="24.5582" y2="15.7021" gradientUnits="userSpaceOnUse">
<stop stop-color="white" stop-opacity="0.5"/>
<stop offset="1" stop-color="white" stop-opacity="0"/>
</linearGradient>
<linearGradient id="paint8_linear_214_16261" x1="21.8679" y1="7.75025" x2="27.1994" y2="14.2312" gradientUnits="userSpaceOnUse">
<stop stop-color="#B1CCFF"/>
<stop offset="1" stop-color="#D5E3FF"/>
</linearGradient>
<linearGradient id="paint9_linear_214_16261" x1="22.2374" y1="8.07444" x2="25.0907" y2="14.4401" gradientUnits="userSpaceOnUse">
<stop stop-color="#78A6FF"/>
<stop offset="0.484375" stop-color="#376EC1"/>
<stop offset="1" stop-color="#1352B0"/>
</linearGradient>
<linearGradient id="paint10_linear_214_16261" x1="22.5237" y1="10.5233" x2="23.9402" y2="11.5612" gradientUnits="userSpaceOnUse">
<stop stop-color="#90BDFF"/>
<stop offset="1" stop-color="#408CFF"/>
</linearGradient>
<linearGradient id="paint11_linear_214_16261" x1="26.4492" y1="10.2235" x2="25.596" y2="11.7706" gradientUnits="userSpaceOnUse">
<stop stop-color="#90BDFF"/>
<stop offset="1" stop-color="#408CFF"/>
</linearGradient>
<linearGradient id="paint12_linear_214_16261" x1="23.8142" y1="10.8705" x2="25.3265" y2="10.8705" gradientUnits="userSpaceOnUse">
<stop offset="0.49728" stop-color="#90BDFF"/>
<stop offset="0.49738" stop-color="#408CFF"/>
</linearGradient>
<linearGradient id="paint13_linear_214_16261" x1="23.8142" y1="10.8705" x2="25.3265" y2="10.8705" gradientUnits="userSpaceOnUse">
<stop offset="0.416667" stop-color="#B1B0D8"/>
<stop offset="0.49738" stop-color="#FFCC1D"/>
</linearGradient>
<linearGradient id="paint14_linear_214_16261" x1="24.5593" y1="8.85352" x2="24.5593" y2="9.38604" gradientUnits="userSpaceOnUse">
<stop stop-color="#B0C6FF"/>
<stop offset="1" stop-color="#408CFF"/>
</linearGradient>
<linearGradient id="paint15_linear_214_16261" x1="22.4402" y1="9.67676" x2="22.4402" y2="10.1125" gradientUnits="userSpaceOnUse">
<stop stop-color="#B0C6FF"/>
<stop offset="1" stop-color="#408CFF"/>
</linearGradient>
<linearGradient id="paint16_linear_214_16261" x1="26.6687" y1="9.67676" x2="26.6687" y2="10.1125" gradientUnits="userSpaceOnUse">
<stop stop-color="#B0C6FF"/>
<stop offset="1" stop-color="#408CFF"/>
</linearGradient>
<linearGradient id="paint17_linear_214_16261" x1="23.2315" y1="12.706" x2="25.8996" y2="12.706" gradientUnits="userSpaceOnUse">
<stop stop-color="#90BDFF"/>
<stop offset="1" stop-color="#458FFF"/>
</linearGradient>
<linearGradient id="paint18_linear_214_16261" x1="21.2071" y1="14.4414" x2="27.9454" y2="14.3663" gradientUnits="userSpaceOnUse">
<stop stop-color="#8FBCFF"/>
<stop offset="1" stop-color="#408CFF"/>
</linearGradient>
</defs>
</svg>
